<svg xmlns="http://www.w3.org/2000/svg" xmlns:xlink="http://www.w3.org/1999/xlink" viewBox="0 0 309.26 329.12"><defs><style>.cls-1,.cls-5{fill:#fff;}.cls-2{fill:#f5d6d8;}.cls-3{fill:#020202;}.cls-4,.cls-6{fill:#fbf8ea;}.cls-10,.cls-11,.cls-4,.cls-7,.cls-8,.cls-9{stroke:#020202;}.cls-10,.cls-11,.cls-16,.cls-20,.cls-21,.cls-22,.cls-23,.cls-25,.cls-26,.cls-28,.cls-30,.cls-4,.cls-5,.cls-7,.cls-8,.cls-9{stroke-linecap:round;}.cls-10,.cls-11,.cls-22,.cls-25,.cls-26,.cls-28,.cls-30,.cls-4,.cls-5,.cls-7,.cls-8,.cls-9{stroke-linejoin:round;}.cls-10,.cls-11,.cls-20,.cls-23,.cls-4,.cls-5,.cls-6,.cls-7{stroke-width:1.5px;}.cls-16,.cls-22,.cls-23,.cls-25,.cls-26,.cls-27,.cls-28,.cls-5,.cls-6{stroke:#231f20;}.cls-16,.cls-19,.cls-20,.cls-21,.cls-23,.cls-27,.cls-6{stroke-miterlimit:10;}.cls-16,.cls-19,.cls-20,.cls-21,.cls-22,.cls-23,.cls-28,.cls-30,.cls-7,.cls-8,.cls-9{fill:none;}.cls-8{stroke-width:1.66px;}.cls-9{stroke-width:1.6px;}.cls-10,.cls-12{fill:#e39a25;}.cls-11,.cls-31{fill:#f4a2a5;}.cls-13{fill:#fdf6ea;}.cls-14{fill:#c2a58d;}.cls-15{fill:#231f20;}.cls-17{fill:#cb7d29;}.cls-18{fill:#83796e;}.cls-19,.cls-20,.cls-21{stroke:#000;}.cls-24,.cls-27{fill:#d7728f;}.cls-25,.cls-26,.cls-28{stroke-width:0.5px;}.cls-25{fill:url(#linear-gradient);}.cls-26{fill:#eff8fd;}.cls-29{fill:#d2c3aa;}.cls-30{stroke:#f4a2a5;stroke-width:3px;}</style><linearGradient id="linear-gradient" x1="66.28" y1="201.62" x2="64.53" y2="210.54" gradientUnits="userSpaceOnUse"><stop offset="0" stop-color="#fff"/><stop offset="1" stop-color="#badaed"/></linearGradient></defs><g id="Layer_2" data-name="Layer 2"><g id="Layer_1-2" data-name="Layer 1"><path class="cls-1" d="M306,167.42c-.09-.08-.16-.17-.24-.25a8.49,8.49,0,0,0-11.13-.1,8,8,0,0,0-1.5,1.4c-1.33,1-3.55,1.52-6.81,2.22-.83.17-1.65.35-2.47.54a32.38,32.38,0,0,1-7.45.73c-2.52,0-5.12-.17-7.87-.35l-2.83-.18c-1.72-.1-3.4-.14-5-.18s-3.41-.09-5-.2c2.1-5.85,5.47-15.74,6.53-19.11.69-2.19,1.46-4.57,2.22-6.89a14.23,14.23,0,0,0,2.08,2.36,15.64,15.64,0,0,0,10.74,3.91,23.9,23.9,0,0,0,7.41-1.25,15.71,15.71,0,0,0,8.84-6.57c1.56-2.55,3.37-8.21,1.93-13a11.7,11.7,0,0,0-.62-2.48c-1.7-4.53-5.62-8.42-11.66-11.56-1.66-.86-5.47-2.76-9.39-4.49a18.56,18.56,0,0,0,1-16.6c-2.6-5.65-7.66-7.67-10.69-8.87L262.83,86c-.56-.24-1.38-.68-2.25-1.15-3.12-1.66-7.38-3.94-12.24-3.94a14.37,14.37,0,0,0-9.41,3.43,26,26,0,0,0-6.08,8.43l-.43.82c-1.59,3-3,5.71-4.49,8.4a46.25,46.25,0,0,0-4.75-4.31,63.5,63.5,0,0,0-18.47-9.81,118.94,118.94,0,0,0-39.33-6.21c-1.64,0-3.32,0-5,.08-1.91.06-3.86.22-5.84.46a33.31,33.31,0,0,0-11.11-3.81l-.73-.13a34.57,34.57,0,0,0-6.1-.68,18.46,18.46,0,0,0-2.76.2,20,20,0,0,0-2.53-5.56,17,17,0,0,0-14.44-7.85,19.1,19.1,0,0,0-4.47.54c-6.57,1.58-11.5,6.6-13.52,13.78a64.34,64.34,0,0,0-2,10.72A28.11,28.11,0,0,0,84.58,87c-.4,0-.81,0-1.2,0-5.27.15-9.74,2.39-13.36,4.19l-1.26.63c-.53.26-1.09.52-1.75.82-3.93,1.81-9.32,4.3-12.9,9.08a9.8,9.8,0,0,0-.92,1.45,21,21,0,0,0-3.4,1.79c-1,.68-2.06,1.45-3,2.21a28.37,28.37,0,0,1-2.85,2c-.86.32-2.69.92-5.15,1.7a13.09,13.09,0,0,0-5.48-1H32.17c-5.24,0-9.63,2.74-12.52,4.55l-.44.28a69.49,69.49,0,0,0-8.59,6.45l-.85.71c-2.95,2.49-7,5.89-8.91,11.44s-.57,11.83,3.63,16.93c.07.41.14.93.22,1.55.11.77.21,1.49.32,2.11,1,5.82,5.56,9.89,11,9.89.3,0,.6,0,.9,0,.63,7.08,3.48,13.74,8.71,20.33.73.91,1.46,2,2.26,3.17a51.31,51.31,0,0,0,5.15,6.69,50.9,50.9,0,0,0,17.54,11.74,12.68,12.68,0,0,0,.77,2.61,12,12,0,0,0-.44,3.08,9.92,9.92,0,0,0,6.61,9.93,9.62,9.62,0,0,0,7,5.7,9.59,9.59,0,0,0,9.3-3.3,10.89,10.89,0,0,0,2-9.15c-.11-.54-.26-1.1-.42-1.67a1.94,1.94,0,0,0-.05-.2c.14-.38.28-.76.39-1.13a8.19,8.19,0,0,0,.23-.81,9,9,0,0,0,2.13.26,9.55,9.55,0,0,0,5.17-1.53h0a21.26,21.26,0,0,0,13.48-7.61l.14,0a22,22,0,0,0,6.88-2.33c.73,0,1.52.06,2.33.06a30.72,30.72,0,0,0,3.6-.19c1.07-.12,4-.24,8.91-.24,3.33,0,7,.06,10,.17,2.85.1,5.28.4,7.85.71a104.27,104.27,0,0,0,11.57.92h1.49c3,0,6.2-.14,9.87-.43,3-.24,5.93-.52,8.8-.79,5.3-.51,10.31-1,15.37-1.19,1.64-.06,3.25-.1,4.76-.1a82.28,82.28,0,0,1,10.27.59c2.75.33,5.51.84,8.44,1.37,2.27.41,4.62.84,7,1.19a74.27,74.27,0,0,0,10.54.71c4.09,0,9.74-.28,13.41-1.64a10.41,10.41,0,0,0,1.28-.57,32,32,0,0,0,5.73-1.2l.9-.25a38.5,38.5,0,0,1,6-1.06c3.06-.33,6.21-.41,9.55-.49,1.33,0,2.66-.07,4-.12,1.71-.06,3.4-.16,5.1-.26,2.74-.16,5.32-.3,7.86-.3h.82c1.24,0,2.56.11,4,.21,1.77.12,3.59.25,5.53.25a34.19,34.19,0,0,0,5.23-.38,16.37,16.37,0,0,0,12.62-10.13,29.63,29.63,0,0,0,1.66-5.57,13.39,13.39,0,0,0,.2-1.58C310.1,175.28,309.29,170.19,306,167.42Z"/><path class="cls-1" d="M239.84,8.84A53.07,53.07,0,0,0,210.4,0c-29.14,0-55.78,23.18-73,42.64-.68.77-2.58,3.17-4.59,5.76l-8.61-6.31c-29.33-21.48-54.42-23.8-63.84-23.8A65.63,65.63,0,0,0,41,21.11c-14.33,4.43-25.77,15.5-33.09,32-9.61,21.7-8.17,44.62,4.42,69.64A135.7,135.7,0,0,0,27.4,153a418.52,418.52,0,0,0,45.93,58.24c18.9,20.16,40.26,37.4,60.92,54.07l7.33,5.92a25.18,25.18,0,0,0,16,5.93h0c14,0,22.27-11.55,27.18-18.45.82-1.15,1.67-2.34,2.18-2.95,11.17-13.44,20.75-26,29.27-38.32C236.45,188.13,251.08,160.5,261,133a155.06,155.06,0,0,0,6.78-26.61c1.3-5,2.4-10.11,3.22-15.27C275.28,64,269.37,28.15,239.84,8.84Z"/><path class="cls-2" d="M138.51,86.48c-.85-.65,12.48-18.17,13.29-19.12,16.94-19.79,49-49.43,76.59-30.76,21,14.21,26.44,41.93,22.8,65.55A137.73,137.73,0,0,1,245,127.21c-10.27,28.64-25.47,55.57-42.72,80.54-8.85,12.82-18.4,25.13-28.36,37.11-5.05,6.07-12.21,20.73-21.59,13.14-22.94-18.6-46.29-36.81-66.54-58.41a403.65,403.65,0,0,1-44.07-55.86c-13.74-21.19-22.9-45.5-12.31-70.24,4.19-9.79,11-19.14,21.53-22.51,21.79-7,47.72,5.28,65,18.33Z"/><path class="cls-3" d="M287.63,182.09c-6.78,1.58-13.7.81-20.57.41-5.24-.3-10.57,0-15.73-1.11-1.94-.4-4-.27-5.87-.75l.25.17a29.76,29.76,0,0,1-3.35,6.33c-.66,1-1.26,2-1.91,2.92a8.75,8.75,0,0,1-1.2,1.25c2.21-2.63,4-6.75,4.92-8.46,1.25-2.37,2.5-7.5,3.63-10.25s6.37-18,7.75-22.37,6.62-20.63,7.75-21.75,7.25.5,9.12,1.25,0,2.37-.75,5.12a7.42,7.42,0,0,0,2,7.1c2.59,2.36,6.7,1.89,9.76.88a7.49,7.49,0,0,0,4.25-2.93c.87-1.42,1.59-4.69,1-6.3-1.12-3-4.5-5.37-7.62-7A140.93,140.93,0,0,0,266.3,120c-4.18-1.44-8.4.85-10.46,4.57-2.8,5.06-5.44,10.21-8.05,15.37q-2.64,5.27-5.24,10.56s-.38-4.25-3.38-12.63S230.3,115.23,219.8,107a55.61,55.61,0,0,0-16-8.47c-13.19-4.61-27.32-6.12-41.23-5.66-26.63.88-47.88,20.75-47.88,20.75-.28-8-.82-15.92,1.13-23.75,0,0,3.94.31,4.35.32,2.77,0,6.08-.68,7.23-3.5,1-2.39.06-5.11-1.29-7.16a8.75,8.75,0,0,0-9.81-3.72c-3.94.95-6.27,4.07-7.32,7.82a57.53,57.53,0,0,0-2,14c-.12,6.5-1.5,18.5-2.87,22.88a20.88,20.88,0,0,1-4.25,7.37l2.88,63.7a38.43,38.43,0,0,0,7.62.18c3.37-.38,13.12-.38,20.12-.13s11.38,1.5,19.25,1.63c3.53.05,7.05-.12,10.56-.4,8.17-.64,16.31-1.66,24.49-2a101.16,101.16,0,0,1,16.42.54c5.25.65,10.42,1.82,15.66,2.6,6.75,1,16.37.75,19.75-.5a5.78,5.78,0,0,0,1.95-1.35,2.79,2.79,0,0,0-.19.33c2.38.15,4.62-.62,6.88-1.24a47.25,47.25,0,0,1,7.28-1.3c4.69-.5,9.41-.48,14.12-.65s9.45-.63,14.2-.57c4.43.06,8.89.86,13.31.18a8,8,0,0,0,6.1-5.07,20.38,20.38,0,0,0,1.14-3.91c.16-.8.11-3.17.64-3.77C298.28,180.32,292.78,180.9,287.63,182.09Z"/><path class="cls-4" d="M99.42,126.1a20.71,20.71,0,0,0,4.25-7.37c1.38-4.38,2.75-16.38,2.88-22.88a57.05,57.05,0,0,1,2-14c1-3.75,3.37-6.87,7.32-7.82a8.75,8.75,0,0,1,9.81,3.72c1.35,2,2.26,4.77,1.29,7.16-1.16,2.82-4.47,3.52-7.23,3.5-.42,0-4.36-.31-4.36-.32-2,7.83-1.41,15.77-1.12,23.75,0,0,21.25-19.87,47.87-20.75,13.91-.46,28.05,1.05,41.24,5.66a55.42,55.42,0,0,1,16,8.47c10.5,8.25,16.38,22.5,19.38,30.87s3.37,12.63,3.37,12.63q2.6-5.29,5.25-10.56c2.61-5.16,5.25-10.31,8-15.37,2.06-3.72,6.28-6,10.46-4.57a139.07,139.07,0,0,1,14.75,6.62c3.13,1.63,6.5,4,7.63,7,.6,1.61-.11,4.88-1,6.3a7.54,7.54,0,0,1-4.26,2.93c-3.06,1-7.16,1.48-9.75-.88a7.39,7.39,0,0,1-2-7.1c.75-2.75,2.62-4.37.75-5.12s-8-2.38-9.13-1.25-6.37,17.37-7.75,21.75-6.62,19.62-7.75,22.37-2.37,7.88-3.62,10.25-4.25,9.38-7.63,10.63-13,1.5-19.75.5c-5.23-.78-10.4-1.95-15.66-2.6a101.08,101.08,0,0,0-16.41-.54c-8.19.33-16.32,1.35-24.49,2-3.51.28-7,.45-10.56.4-7.88-.13-12.25-1.38-19.25-1.63s-16.75-.25-20.13.13a35.75,35.75,0,0,1-6.25.12Z"/><path class="cls-5" d="M236.53,164.37l-1.28,2a1.54,1.54,0,0,1-.89-1.58c.13-1.15,6.55-14.13,7.45-16.56s7.49-14.81,8.51-16.6a22.4,22.4,0,0,1,2.77-3.61l8.08,4-15.36,44.3s-2.81-2-3.45-3.23a74.2,74.2,0,0,0-3.83-6.77A13.89,13.89,0,0,0,236.53,164.37Z"/><path class="cls-6" d="M118.67,130.64c2-5.45,2.92-11.21,4.25-16.85a83.79,83.79,0,0,1,5.78-16.1c1.28-2.78,2-6.09,4-8.48,2.74-3.28,7.15-2.21,10.83-1.58,4.82.84,14.73,3.74,10.55,10.38-3,4.78-12.09,2-15.67-.74-.59-.44-1.15-1-1.71-1.44-2.11,4.11-3,8.69-3.87,13.18-.73,3.7-1.6,7.39-2.14,11.13-.47,3.26-.2,6.88-1.32,10"/><path class="cls-7" d="M115.42,88.1a14.77,14.77,0,0,1,.75-3.75"/><path class="cls-7" d="M263.84,124.48c-.63,1.39-2.52,5.6-3.19,6.86"/><path class="cls-7" d="M284.84,140.27c2.43-1.82-.32-7-2.83-7.46"/><path class="cls-7" d="M252.67,128.31c2.79.05,5,3.26,7.67,3.33"/><path class="cls-8" d="M248,135.64a28.92,28.92,0,0,1,11.18,1.84"/><path class="cls-9" d="M237.71,157.48c4.76.74,7.5,5.52,12.1,6"/><path class="cls-7" d="M236.17,163.14c1.85.92,3.88,6.18,5.09,8,1.35,2,2.38,3.57,4.41,4.5"/><path class="cls-3" d="M243.88,144.5c.13.12,2.91,2.25,5,3.95s4.71,3.86,4.71,3.86l-1.26,2.86a32.13,32.13,0,0,0-5-4.77c-2.06-1.35-4.93-3.3-4.93-3.3Z"/><path class="cls-7" d="M234.91,166.15a7,7,0,0,0,.9-1.87c.08-.55-.45-.52-.29-1.05a47.07,47.07,0,0,1,1.88-4.87c.66-1.55,1.22-3.14,1.9-4.67,1-2.28,2.62-4.2,3.91-6.31"/><path class="cls-4" d="M232.09,120.14a51.93,51.93,0,0,1,4.42-12.5c1.67-3,3.3-6.13,4.92-9.21,1.22-2.31,2.46-5,4.49-6.73,4.56-3.85,10.79,1.14,15,3,2.83,1.22,6.1,2,7.5,5.09,1.28,2.78.94,7.84-1.62,9.88a7.11,7.11,0,0,1-6.75,1.55c-1.89-.6-4.55-2-4.75-4.21-.17-1.84.75-3.34-.42-4a27.21,27.21,0,0,0-4.66-1.5,58.18,58.18,0,0,0-2.84,5.25c-2.81,7.5-6.76,14.59-8.5,22.47-.27,1.23-1.14,3.35-.83,4.61.08.33-3.58-7.17-4.67-9.75A22,22,0,0,1,232.09,120.14Z"/><path class="cls-7" d="M251.92,96.64c.06.65-1,2.28-1.37,2.88a9,9,0,0,0-.76,1.88,28.38,28.38,0,0,1-1.87,4.24"/><path class="cls-7" d="M265.59,103.81a4.13,4.13,0,0,1,2.08,4.83"/><path class="cls-7" d="M266.84,101.81c.78.36,1.87,1,2.08,1.83"/><path class="cls-10" d="M245.09,178.89c1.92.48,3.93.35,5.86.75,5.17,1.08,10.5.81,15.74,1.11,6.86.4,13.79,1.17,20.57-.41,5.14-1.19,10.65-1.77,14.35-6-.53.6-.48,3-.65,3.77a19.69,19.69,0,0,1-1.14,3.91,8,8,0,0,1-6.1,5.07c-4.42.68-8.87-.12-13.31-.18-4.74-.06-9.46.39-14.2.57s-9.43.15-14.12.65a47.47,47.47,0,0,0-7.28,1.3c-2.26.62-4.5,1.39-6.88,1.24.4-.87,1.57-1.56,2.14-2.4s1.26-1.95,1.92-2.92a29.76,29.76,0,0,0,3.35-6.33"/><path class="cls-11" d="M208.34,98.89s-6.5,1.67-12,3.5-9.25,3.34-9.25,3.34a2.76,2.76,0,0,0-.83,2.33,17.43,17.43,0,0,0,1.83,4.25c.67.92,2.58,2.17,3.83,1.83s7.5-2.5,11.09-3.83,9.83-3.58,11.5-4.33a39.21,39.21,0,0,1,3.83-1.42s-5.67-3.17-6.92-3.83S208.34,98.89,208.34,98.89Z"/><path class="cls-11" d="M193.59,94.31l1.92,8.08a5.54,5.54,0,0,1,1.41,1.84c.34.91,1.75,6.33,1.75,6.33l-.08,1.67,1.92,6.5a4.73,4.73,0,0,0,3.25,1.08c1.83-.17,4.5-1.33,5.16-2.58s.09-3.84.09-3.84l-1.75-4.58s.41-2.83-.17-3.92-2.67-4.58-2.67-4.58l-1-2.92a17.25,17.25,0,0,0-5.25-2.25A28.37,28.37,0,0,0,193.59,94.31Z"/><path class="cls-7" d="M196,101.89c.67.29,1.53-.26,2.18-.42s1.62-.26,2.41-.41c1.42-.26,2.87-.57,4.24-.75"/><path class="cls-7" d="M198.92,111.56c3-.33,5.85-2.42,8.84-2.92"/><path class="cls-12" d="M131,187.56c1.31-.45,2.86-1.87,4.1-2.66,7.85-5,15.5-10,23.63-14.46a86.13,86.13,0,0,1,13.55-5.56c11.2-3.84,25.32-5.53,34.74,3.49a51.08,51.08,0,0,1,6.06,7.71,57,57,0,0,1,7.57,15.41c-4.34.71-9-1.61-13.26-2.28-2.51-.39-5.21-.5-7.74-.78a59.71,59.71,0,0,0-6.95-.54c-4.46.06-9.11.45-13.63.67-5.67.28-11.56.43-17.17,1.17a72.55,72.55,0,0,1-17.49.46c-2.53-.27-5.18-.49-7.73-.76-1-.1-6.11,0-5.37-1.7"/><path class="cls-13" d="M77.67,201c-1.41,0-3,1-4.55,1-2.69.07-5.31-.82-7.88-1.51-8.62-2.32-17.23-6-23.47-12.56-2.65-2.8-4.46-6.2-6.84-9.2-3.65-4.61-6.22-9.58-6.63-15.49-.38-5.38-.5-7.88-2-9.25s-2.63-2.63-2.38-3.75-.87-1.13-2.12-1.13a16.25,16.25,0,0,1-3.38-.62s.38,4.5,0,5.5-1.75,1.12-2.12-1-.63-6.13-1.75-7.25c-2.12-2.13-3.84-5.36-2.8-8.4,1.14-3.33,4.24-5.62,6.81-7.82A60.82,60.82,0,0,1,26,123.94c2.1-1.31,5.15-3.34,7.72-3.34,1.5,0,2.38-.12,3,.5a4.37,4.37,0,0,1,.88,1.88s8.5-2.63,11.25-3.63,5.75-3.87,7.87-5.25a17.8,17.8,0,0,1,5-2c.27-.06,1.61-3.26,1.88-3.62,2.49-3.33,7.4-5.15,11-6.92,3.16-1.53,7-3.73,10.58-3.83,4.25-.13,8.25.62,10,2.25s3.75,4.62,3.38,7-.88,4.87,0,5.87a15.38,15.38,0,0,0,2.62,2.13s1.25,2.25-.12,1.87-2.88-.37-5-2.25A19.31,19.31,0,0,0,92.42,112a37.68,37.68,0,0,1,2.5,6.75c.38,2.25,1.88,7.37,3.38,8.12,8.83,4.42,12.49,16.54,14,25.5a52.94,52.94,0,0,1-2.59,25.88c-2.33,6.4-5.35,13.37-12.87,14.62a26.69,26.69,0,0,1-4,.38c-.36,0-2.34,3.07-2.78,3.5a14,14,0,0,1-3.72,2.7A19.87,19.87,0,0,1,77.67,201Z"/><path class="cls-14" d="M112.07,157.18c-.37-2.5-4.47-3-5.49-.72-.26.58-.48,1.18-.75,1.75-.35-2.82-1.11-5.73-.61-8.58a4.05,4.05,0,0,0-.11-2c2.46-.92,4.23-2.67,3.38-5.76-1.32-4.81-8.52-5.58-12.38-3.75-3.42,1.61-7-.1-10.17-1.45a24.36,24.36,0,0,0-10.15-1.95c-8,.13-15.63.81-22.39,5.45-5.22,3.59-8.11,11-8.71,17.08a52.64,52.64,0,0,1-2,10.18c-1,3.17-2.89,6.09-3.6,9.32-.94,4.29,1,9.45,3.66,12.79s7,4.35,10.86,6.09c4.64,2.08,9.14,3.9,13.93,5.67s7.89-.23,12-2.44c2.68-1.45,4.89-3.22,7.82-4.26,2.5-.9,5-1,7.61-1.36a15.07,15.07,0,0,0,10.15-6.1c1.67-2.29,1.74-5.33,2.72-7.91.85-2.2,2.16-4.19,3.11-6.34C113,168.27,112.79,162.05,112.07,157.18Z"/><path class="cls-12" d="M23.92,149.23c2.74-2.9,4-7.19,5.42-10.81A32.5,32.5,0,0,1,35,128.31c2-2.29,4.29-4.71,7.25-5.65,2.43-.76,4.72.17,6.66,1.57s2.15,3,2.34,5.08a5.66,5.66,0,0,1,.09,1.31c-.09.67-.52,1.19-.65,1.84-.21,1.1.41,1.19,1.17,1.83,1.88,1.55-.89,3.81-2,4.79a18.69,18.69,0,0,0-4.49,5.07,12,12,0,0,0-1.51,6.16c.29,3.6-.59,7-.58,10.56,0,4.5-.68,8.78-4.67,11.37-1.78,1.16-3.34,3.22-5.5,1.76a16.69,16.69,0,0,1-1.84-2c-.88-.83-1.05-2.1-1.39-3.21-.85-2.79.18-5.49-.25-8.32s-.88-5-2.84-7.15c-1.11-1.21-2.53-1.4-2.26-3.41s2-3.81,2.81-5.57c1.48-3.1,2.13-6.57,3.77-9.59"/><path class="cls-12" d="M11.34,142c1.68.4,2.86,1.82,4.76,1.42a6.36,6.36,0,0,0,3.49-2.6c1.57-2.56,1.65-6,2.93-8.68S27,128,29.43,126.56c1.91-1.14,5-1.69,6.31-3.69,1-1.56-.8-2.67-2.23-2.81-2.64-.27-4.89,1.58-7,2.85a61.58,61.58,0,0,0-10.3,7.8c-2.88,2.68-7.92,7.26-4.43,11.35"/><path class="cls-15" d="M113.66,152.12c-1.57-9.53-5.4-21.87-14.71-26.52-.74-.51-2.17-4.36-2.63-7.11a14.71,14.71,0,0,0-.65-2.36,9.34,9.34,0,0,0,4.29,1.92c.24,0,.48.1.71.17a2.54,2.54,0,0,0,.65.09,1.77,1.77,0,0,0,1.54-.85c.45-.76.3-1.83-.45-3.17l-.17-.31-.3-.2a13.33,13.33,0,0,1-2.32-1.86c-.36-.49,0-2.85.23-4.11l.1-.61c.51-3.25-2.16-6.72-3.81-8.26-2.57-2.39-7.89-2.64-10.06-2.64h-1c-3.4.1-6.79,1.8-9.79,3.3l-1.36.67c-.61.3-1.25.59-1.91.9-3.45,1.59-7.37,3.39-9.65,6.44a11.17,11.17,0,0,0-.85,1.65c-.2.44-.54,1.16-.76,1.58a18.37,18.37,0,0,0-4.91,2.06c-.75.49-1.56,1.12-2.43,1.79A22.21,22.21,0,0,1,48.31,118c-2,.74-7.38,2.42-9.87,3.2a4,4,0,0,0-.77-1.12,3.76,3.76,0,0,0-2.86-.93H33.67c-2.8,0-5.82,1.89-8,3.27l-.45.28a64.7,64.7,0,0,0-7.56,5.7c-.29.25-.59.51-.9.76-2.43,2-5.2,4.36-6.33,7.68-1.08,3.13.1,6.82,3.14,9.86.52.53.91,3.36,1.09,4.73.09.65.17,1.26.26,1.76.38,2.12,1.61,2.87,2.65,2.87a2.37,2.37,0,0,0,2.2-1.62,14.12,14.12,0,0,0,.22-4.16,10.93,10.93,0,0,0,1.83.21h.67c0,1.69,1.46,3.19,2.87,4.49,1,.95,1.19,3.23,1.51,7.77l0,.54c.4,5.62,2.6,10.79,6.94,16.27.93,1.17,1.8,2.44,2.64,3.68a43.16,43.16,0,0,0,4.28,5.61c5.53,5.84,13.42,10.07,24.14,13l1.22.34a25,25,0,0,0,6.72,1.22h.34a10.11,10.11,0,0,0,2.72-.59,6.63,6.63,0,0,1,1.79-.43,21.25,21.25,0,0,0,9.25-1.69,15.33,15.33,0,0,0,4.1-3,14.21,14.21,0,0,0,1.13-1.48c.33-.46.87-1.22,1.21-1.63a29.65,29.65,0,0,0,3.67-.38c8.18-1.36,11.5-8.74,14-15.54A54.49,54.49,0,0,0,113.66,152.12Zm-4,26.11c-2.33,6.4-5.35,13.37-12.87,14.62a26.69,26.69,0,0,1-4,.38c-.36,0-2.34,3.07-2.78,3.5a14,14,0,0,1-3.72,2.7A19.87,19.87,0,0,1,77.67,201c-1.41,0-3,1-4.55,1-2.69.07-5.31-.82-7.88-1.51-8.62-2.32-17.23-6-23.47-12.56-2.65-2.8-4.46-6.2-6.84-9.2-3.65-4.61-6.22-9.58-6.63-15.49-.38-5.38-.5-7.88-2-9.25s-2.63-2.63-2.38-3.75-.87-1.13-2.12-1.13a16.25,16.25,0,0,1-3.38-.62s.38,4.5,0,5.5-1.75,1.12-2.12-1-.63-6.13-1.75-7.25c-2.12-2.13-3.84-5.36-2.8-8.4,1.14-3.33,4.24-5.62,6.81-7.82A60.82,60.82,0,0,1,26,123.94c2.1-1.31,5.15-3.34,7.72-3.34,1.5,0,2.38-.12,3,.5a4.37,4.37,0,0,1,.88,1.88s8.5-2.63,11.25-3.63,5.75-3.87,7.87-5.25a17.8,17.8,0,0,1,5-2c.27-.06,1.61-3.26,1.88-3.62,2.49-3.33,7.4-5.15,11-6.92,3.16-1.53,7-3.73,10.58-3.83,4.25-.13,8.25.62,10,2.25s3.75,4.62,3.38,7-.88,4.87,0,5.87a15.38,15.38,0,0,0,2.62,2.13s1.25,2.25-.12,1.87-2.88-.37-5-2.25A19.31,19.31,0,0,0,92.42,112a37.68,37.68,0,0,1,2.5,6.75c.38,2.25,1.88,7.37,3.38,8.12,8.83,4.42,12.49,16.54,14,25.5A52.94,52.94,0,0,1,109.67,178.23Z"/><path class="cls-15" d="M76.55,111.1c-.25-.58-5.88-.79-4.88-2.17.55-.76,1.91-.75,2.75-.85a17.57,17.57,0,0,1,5.22,0,28.93,28.93,0,0,1,5,1.54A22.24,22.24,0,0,1,94.24,116l.31-2.56c0-.3-1.87-1.47-2.11-1.64a26.83,26.83,0,0,0-14.29-5.29,22,22,0,0,0-4.52.31,11.31,11.31,0,0,0-3.08.87,1.57,1.57,0,0,0-.26,2.58A6.59,6.59,0,0,0,74,111.78c.63.1,1.93.49,2.53.13C76.8,111.73,76.55,111.1,76.55,111.1Z"/><path class="cls-15" d="M75.74,130.7A3.66,3.66,0,1,1,72.08,127,3.66,3.66,0,0,1,75.74,130.7Z"/><path class="cls-15" d="M47.3,146.2a3.66,3.66,0,1,1-3.66-3.66A3.66,3.66,0,0,1,47.3,146.2Z"/><circle class="cls-1" cx="44.8" cy="144.79" r="1.44"/><circle class="cls-1" cx="73.05" cy="129.1" r="1.44"/><path class="cls-15" d="M18.42,150.16s-.75-2.68.07-4.06a21.36,21.36,0,0,0,2.59-6c.5-2.19.52-4.64,1.62-6.64a16.75,16.75,0,0,1,4.16-4.79,44.47,44.47,0,0,1,5.44-3.31s-.32.49-.38.55a19.69,19.69,0,0,1-2.44,1.7c-.92.68-1.78,1.44-2.63,2.19a10.32,10.32,0,0,0-3.3,4A38,38,0,0,0,22.4,140a15.41,15.41,0,0,1-1,3.6,20.66,20.66,0,0,0-1.26,2.8,2.58,2.58,0,0,0,1,3Z"/><path class="cls-15" d="M22.55,149.66c-.39-.53.25-2.6.42-3.14a17.34,17.34,0,0,1,1.91-3.61,70.49,70.49,0,0,0,3.2-7.09,18.91,18.91,0,0,1,2.36-4.44,14.46,14.46,0,0,1,3.23-2.65s.13.56-.68,1.37A8.28,8.28,0,0,0,30.61,134c-.25,1.65-1.5,3-2.21,4.47-.79,1.63-1.3,3.37-2.07,5-.67,1.41-1.78,2.85-2.09,4.4a6.9,6.9,0,0,0,0,3.75C24.67,152.54,22.55,149.67,22.55,149.66Z"/><path class="cls-16" d="M56.74,120.73c1.6-.39,2.83-1.56,4.5-1.82a29.58,29.58,0,0,1,12.41,1,53.55,53.55,0,0,0,8.15,1.47,68.27,68.27,0,0,0,8.06.78"/><path class="cls-16" d="M50.67,131.79a11.5,11.5,0,0,0,4-3.45c.45-.71,1.75-3.73.08-3.86"/><path class="cls-16" d="M54.86,132.16c.19.67.66,1.22.88,1.88a6.76,6.76,0,0,1,.24,1.55,20.35,20.35,0,0,1,.07,2.07"/><path class="cls-16" d="M58.24,128.29c-.58,1.42.51,3.58,1.51,4.57.83.82,2.2,1.92,3.42,1.8"/><path class="cls-15" d="M39.3,170.85c0-.32.84-1,1-1.21a8.69,8.69,0,0,0,1.2-1.86,16.3,16.3,0,0,0,1.1-6.22A36.45,36.45,0,0,1,46,147.48a22.69,22.69,0,0,1,9.29-10,31.88,31.88,0,0,1,14.3-4,33.47,33.47,0,0,1,4.25.06c5.4.38,10.88,1,15.68,3.69a5.87,5.87,0,0,0,4.23,1,15.05,15.05,0,0,0,3.65-1.67c-.2.11-.4.89-.51,1.09a3.81,3.81,0,0,1-1.65,1.72c-3.28,1.62-5.56-.33-8.4-1.81-4.14-2.16-9-2.6-13.65-2.72a32.57,32.57,0,0,0-16.3,3.37,23.32,23.32,0,0,0-3.69,2.4A24.33,24.33,0,0,0,46.24,150c-.82,1.81-1.88,8.68-2.19,10.87s-.69,6.56-1.81,7.88-1.88,2.31-2.44,2.43S39.3,170.85,39.3,170.85Z"/><path class="cls-17" d="M25.34,148.23c.85-.53,1.93-.75,2.82-1.34a8.9,8.9,0,0,0,2.7-2.73A35.26,35.26,0,0,0,33,139.4a11.67,11.67,0,0,0,1.23-4.69,18,18,0,0,0-.15-4.23c-1.86,3.09-3.51,6.4-5.44,9.48a25.48,25.48,0,0,0-2.48,5c-.41,1.16-1.19,2.11-.93,3.33"/><path class="cls-17" d="M31.76,147.48c1.9-.87,2.84-4.39,3.6-6.24a46.7,46.7,0,0,1,2.48-5.6,30.3,30.3,0,0,1,3-4.56c.67-.79,2.06-2.67,3.26-2.6A10.54,10.54,0,0,1,42.32,132c-.71,1.18-1.33,2.35-2,3.55-1.29,2.33-2.25,4.82-3.51,7.18s-2.57,4.55-5.55,4.67"/><path class="cls-17" d="M35.17,153.64A3.3,3.3,0,0,0,38,157.22a3.46,3.46,0,0,0,3.76-1.55c0,1.91-3.82,4.15-5.58,3.39S35,155.82,35,154.39"/><path class="cls-17" d="M39.26,141.56a15.68,15.68,0,0,1,6.27-7.17c1-.55,2.18-.85,3.25-1.33.49-.22,1-.84,1.46-.9.73,3-3.21,4-5.32,5.09a17.22,17.22,0,0,0-3.39,2.22A11.67,11.67,0,0,0,39.17,142"/><path class="cls-16" d="M49.59,149.56c.36-2.24,2.38-3.87,4-5.25s3.91-3.56,6.33-3.75"/><path class="cls-16" d="M29.24,149.35c.87-.15,1.49-1.64,1.91-2.32a47.32,47.32,0,0,0,3.4-7.63c2.08-5.23,6.46-8.94,10.62-12.51,1.55-1.33,3.06-2.69,4.67-3.94a5,5,0,0,1,2.51-1.41,2.77,2.77,0,0,1,1.5.37A.17.17,0,0,1,54,122"/><path class="cls-15" d="M55.7,157.4a5.26,5.26,0,0,1-3.23-1.06c-1.7-1.33-1.67-4.24-1.42-5.59a23,23,0,0,1,1.87-5.33,13.53,13.53,0,0,1,3.28-4.33C58.64,139,62,138.31,64.68,138a14.06,14.06,0,0,1,1.72-.11c3.49,0,6.25,1.32,7.56,3.61a5.47,5.47,0,0,1-2.1,7.46l-.46.25a.84.84,0,0,0-.21.11,8.41,8.41,0,0,0-.7,1.21,7.89,7.89,0,0,1-1.71,2.44,8.18,8.18,0,0,1-4.37,2.14,6.47,6.47,0,0,1-.76.05h0c-.48,0-.92-.05-1.36-.09a9.81,9.81,0,0,0-1.07-.08,2.47,2.47,0,0,0-.83.12,2.8,2.8,0,0,0-.82.65,5.13,5.13,0,0,1-2.07,1.4A6,6,0,0,1,55.7,157.4Z"/><path class="cls-18" d="M72.73,142.16c-1.52-2.64-5.19-3.14-7.86-2.79s-5.64,1-7.75,2.79A12.14,12.14,0,0,0,54.21,146a21.17,21.17,0,0,0-1.76,5c-.22,1.15-.16,3.38.89,4.21a4.19,4.19,0,0,0,3.73.54c1.22-.38,1.73-1.65,2.86-2,1.4-.48,2.88.11,4.31-.07a6.65,6.65,0,0,0,3.58-1.77c1.14-1,1.4-2.38,2.28-3.52a3.26,3.26,0,0,1,1-.66A4.07,4.07,0,0,0,72.73,142.16Z"/><path class="cls-16" d="M76.59,139.73c2.69,0,5.51,1.32,8,2.36a48.46,48.46,0,0,1,7.83,4.23c4.85,3.26,11.73,5.53,15.55-.51"/><path class="cls-19" d="M73.76,144.64a22.89,22.89,0,0,1,9.71,2c3.42,1.61,5.08,4.51,7.54,7.16"/><path class="cls-20" d="M57.67,146.73c4.61-.52,4,6.16.84,8.87"/><path class="cls-20" d="M66,143.23a2.56,2.56,0,0,0-.57,4.89c1.75.88,6.17.53,7.53-1"/><path class="cls-21" d="M62.51,149.39c-.08,2.27,1.5,2.87,3,4.11s.93,3.35.67,5.06"/><path class="cls-21" d="M74.22,144a15,15,0,0,1,5-.22,11.86,11.86,0,0,1,4.09,1c1.31.61,2.47,1.51,3.73,2.22"/><path class="cls-16" d="M37.84,177.73c3.62,1.67,8.49-2,7.5-6"/><path class="cls-22" d="M106,160.23c-.78,2.13-3.64,4.22-5.47,5.39-1.47.95-3.17.92-4.84,1.19"/><path class="cls-16" d="M92.26,190.48a14.57,14.57,0,0,0,5.31-1.57,10.74,10.74,0,0,0,4.23-4c2.1-3.41,3.64-6.58,4-10.58a16.06,16.06,0,0,1,.33-2.06"/><path class="cls-23" d="M41.59,181.06c1.45,0,3.06.1,4.18-.92A9.48,9.48,0,0,0,48,176.47a24.06,24.06,0,0,0,1.43-8.58"/><path class="cls-15" d="M45.17,180.81c.06,0,1.5,1.62,1.59,1.71A12.28,12.28,0,0,0,50.09,185a11.2,11.2,0,0,0,7.48.53c4.75-1.47,7-6.26,7.66-10.84a40.41,40.41,0,0,0,.3-7.21c0-1.62-.33-3.41.29-5,.14-.33,1.8-2.88,1.69-3a44.31,44.31,0,0,0,14.88,9.84c5.17,2,11.54,3.93,16.8,1.13a12,12,0,0,0,5.38-15c-.37-1-.74-2-1.15-2.9,0,0,2.5-2.42,2.67-1.67a3.07,3.07,0,0,1-.58,1.84,29.28,29.28,0,0,1,1.16,6.75,18.69,18.69,0,0,1-1.75,7.44c-1.25,2.8-1.85,5.92-3.65,8.46C98,180,91.7,178,87,179.39c-2.85.83-5.4,2.51-8,3.87-4.28,2.22-8.38,4.7-12.57,7.08-2.45,1.39-5.67,3-8.58,2.65a5.83,5.83,0,0,1-4-2.65,13.23,13.23,0,0,1-1.21-2c-.15-.29-.32-1.15-.63-1.27,0,0-4.25-1.67-5.5-3.08s-2.25-2.84-2.25-2.84Z"/><path class="cls-24" d="M64.51,180.48c1.83,4.89,3.89,10.09,7.33,14.09,2,2.38,4.69,4.63,7.88,5.14a11.78,11.78,0,0,0,10.76-4.34c2.06-2.79.46-6.55-1-9.19a35.29,35.29,0,0,0-4.55-6A31.75,31.75,0,0,1,80.76,175a10.93,10.93,0,0,1-1.17-5.78L68,160.56s-1.5.75-1.59,1.92,0,6.5-.25,8.83a64.78,64.78,0,0,1-2,7.92Z"/><path class="cls-25" d="M62.19,191.71c1-1.32,1.25-3.52,2.55-4.63s1.38.38,1.78,1.32c.6,1.4-.43,1.86-1.33,2.76s.19,2,.25,3c.08,1.36-.37,2.63.81,3.53.53.4.59.79,1.07,1.29a6.53,6.53,0,0,1,1.25,2.2,8.35,8.35,0,0,1,.87,2.75c.08.91-.06,1.83-.06,2.74a10.11,10.11,0,0,1-.2,3.06c-.27.83-.65,1.66-.85,2.51-.36,1.57.38,3.31.69,4.82.2.95.09,2.65-1.39,2.37-1.1-.22-1-2.09-1-2.93.06-1.38.5-2.65.5-4.07,0-1,.05-2,0-3-1.31,1.3-1.43,4-3.43,4.62a2.57,2.57,0,0,1-2.21-.21c-.59-.45-.54-1-.54-1.71,0-1.56,1.51-2.68,1.15-4.25-.17-.74-.85-1.13-1.2-1.77a4.7,4.7,0,0,1-.51-2.37A16.07,16.07,0,0,1,62,197a5.29,5.29,0,0,0,.53-3c0-.57-.78-2.08-.23-2.44"/><path class="cls-26" d="M82.92,176.66c.25-.71.36-1.28,1.13-1.56a3.15,3.15,0,0,1,1.85,0c1.28.35,2.16,1.23,3.59,1.31s3.11,0,4.69,0a11.45,11.45,0,0,1,3,.14c.34,1.35-3.65.8-4.28.8a15.31,15.31,0,0,0-5.65.86c-1.32.5-2.19,1.1-3.38,0-.61-.58-1.51-1.49-.68-2.38"/><path class="cls-27" d="M81.87,202a10.3,10.3,0,0,1-1.68-.13c-2.9-.46-5.64-2.24-8.39-5.43-3.46-4-5.52-9.08-7.48-14.35l-.43-1.57.08-.23a64.67,64.67,0,0,0,2-7.75c.16-1.46.18-4.2.2-6.21,0-1.2,0-2.15.05-2.6a8.47,8.47,0,0,1,1.45-3.8l1.07,1,12.35,9.24v.42a10.26,10.26,0,0,0,1,5.36A24.22,24.22,0,0,0,85.31,180q.43.47.84.93a36,36,0,0,1,4.66,6.13c.9,1.61,3.64,6.49,1,10.12a12.77,12.77,0,0,1-9.9,4.81Z"/><path class="cls-23" d="M68.06,161.07a46.47,46.47,0,0,0,2,11.26,28,28,0,0,0,6.8,12.75c1,1.07,2.34,2.58,3.75,3.15"/><path class="cls-26" d="M76.65,195.17a6.68,6.68,0,0,1-1-1.44c-.24-.63-.08-1.64-.49-2.17-1.1-1.4-2.55,1.53-.78,2.25l0-.15a4.59,4.59,0,0,1,.35.5,8.09,8.09,0,0,1,.6,2.07c.19.63,1.19,1.18,1.78.52C77.47,196.24,77,195.6,76.65,195.17Z"/><path class="cls-26" d="M77.69,201c.07-1.22-.69-2.21.43-3.27s1.85,0,2.2,1.08c.15.49.58,1,.48,1.49-.06.34-.41.59-.44.95s.19.31.26.62a1.17,1.17,0,0,1-.66,1.39c-.85.26-1-.46-1.2-1.07s-.8-.7-1.07-1.32"/><path class="cls-28" d="M63.42,209.48c0-.43.22-1.34.84-1.26s.53,1,.08,1.26"/><path class="cls-29" d="M91,159.93c0-1.47-1.48-3.39-2.43-4.32a22.77,22.77,0,0,0-3.7-2.94,11.29,11.29,0,0,0-7.13-2.83,14.29,14.29,0,0,0-2.25-.22c-1.55,0-2,.63-1.84,1.56a2.53,2.53,0,0,0,0,.38,1.37,1.37,0,0,0,0,.35,5,5,0,0,0,1,2.16l.28.49a1,1,0,0,0,.43.38,14.38,14.38,0,0,0,3.12,3.68L79,159l0,0c1.73,2.63,9.36,5.3,11.89,2.77a.94.94,0,0,0,.09-.12C91.49,161.32,91.65,160.75,91,159.93Z"/><path class="cls-15" d="M74.42,158a.75.75,0,0,0,0-1.5.75.75,0,0,0,0,1.5Z"/><path class="cls-15" d="M73.26,153.06a.75.75,0,0,0,0-1.5.75.75,0,0,0,0,1.5Z"/><path class="cls-15" d="M76,152.48a.75.75,0,0,0,0-1.5.75.75,0,0,0,0,1.5Z"/><path class="cls-15" d="M75.76,150a.75.75,0,0,0,0-1.5.75.75,0,0,0,0,1.5Z"/><path class="cls-15" d="M80.34,152.73a.75.75,0,0,0,0-1.5.75.75,0,0,0,0,1.5Z"/><path class="cls-15" d="M80.09,155.89a.75.75,0,0,0,0-1.5.75.75,0,0,0,0,1.5Z"/><path class="cls-15" d="M77.84,155.73a.75.75,0,0,0,0-1.5.75.75,0,0,0,0,1.5Z"/><path class="cls-15" d="M78.17,159.06a.75.75,0,0,0,0-1.5.75.75,0,0,0,0,1.5Z"/><path class="cls-15" d="M79.26,162.39a.75.75,0,0,0,0-1.5.75.75,0,0,0,0,1.5Z"/><path class="cls-15" d="M82.09,159.64a.75.75,0,0,0,0-1.5.75.75,0,0,0,0,1.5Z"/><path class="cls-15" d="M84.67,157a.75.75,0,0,0,0-1.5.75.75,0,0,0,0,1.5Z"/><path class="cls-15" d="M85.09,153.64a.75.75,0,0,0,0-1.5.75.75,0,0,0,0,1.5Z"/><path class="cls-15" d="M89.17,156.31a.75.75,0,0,0,0-1.5.75.75,0,0,0,0,1.5Z"/><path class="cls-15" d="M93.34,159.64a.75.75,0,0,0,0-1.5.75.75,0,0,0,0,1.5Z"/><path class="cls-15" d="M88.67,160.23a.75.75,0,0,0,0-1.5.75.75,0,0,0,0,1.5Z"/><path class="cls-15" d="M89.42,164.39a.75.75,0,0,0,0-1.5.75.75,0,0,0,0,1.5Z"/><path class="cls-15" d="M93.59,163.81a.75.75,0,0,0,0-1.5.75.75,0,0,0,0,1.5Z"/><path class="cls-15" d="M83.92,164.89a.75.75,0,0,0,0-1.5.75.75,0,0,0,0,1.5Z"/><path class="cls-29" d="M62.43,160.12c-.41-1.14-2.32-2.44-3.4-1.29l-.09.08c-1.69.4-4.21,1.33-4.34,3-.07.13-.12.24-.17.35a49,49,0,0,0-2.93,9.17,7.75,7.75,0,0,0-.18,1c-.16.81-.3,1.61-.41,2.36-.4,2.68-.54,5.28,1.9,6.85,2,1.3,5.43-2.17,6.58-3.4,2.23-2.38,2.8-5.83,3.13-8.93C62.83,166.42,63.44,162.93,62.43,160.12Z"/><path class="cls-15" d="M56.09,171.73a.75.75,0,0,0,0-1.5.75.75,0,0,0,0,1.5Z"/><path class="cls-15" d="M62.59,168.48a.75.75,0,0,0,0-1.5.75.75,0,0,0,0,1.5Z"/><path class="cls-15" d="M59,169.73a.75.75,0,0,0,0-1.5.75.75,0,0,0,0,1.5Z"/><path class="cls-15" d="M56.26,165.81a.75.75,0,0,0,0-1.5.75.75,0,0,0,0,1.5Z"/><path class="cls-15" d="M53.92,168.14a.75.75,0,0,0,0-1.5.75.75,0,0,0,0,1.5Z"/><path class="cls-15" d="M58.76,173.48a.75.75,0,0,0,0-1.5.75.75,0,0,0,0,1.5Z"/><path class="cls-15" d="M60.26,175.64a.75.75,0,0,0,0-1.5.75.75,0,0,0,0,1.5Z"/><path class="cls-15" d="M61.76,172.14a.75.75,0,0,0,0-1.5.75.75,0,0,0,0,1.5Z"/><path class="cls-15" d="M55.84,174.73a.75.75,0,0,0,0-1.5.75.75,0,0,0,0,1.5Z"/><path class="cls-15" d="M56.92,178.48a.75.75,0,0,0,0-1.5.75.75,0,0,0,0,1.5Z"/><path class="cls-15" d="M54.09,177.23a.75.75,0,0,0,0-1.5.75.75,0,0,0,0,1.5Z"/><path class="cls-15" d="M54,180.89a.75.75,0,0,0,0-1.5.75.75,0,0,0,0,1.5Z"/><path class="cls-15" d="M52.34,175.73a.75.75,0,0,0,0-1.5.75.75,0,0,0,0,1.5Z"/><path class="cls-15" d="M52.59,171.73a.75.75,0,0,0,0-1.5.75.75,0,0,0,0,1.5Z"/><path class="cls-15" d="M55.67,160.73a.75.75,0,0,0,0,1.5A.75.75,0,0,0,55.67,160.73Z"/><path class="cls-15" d="M58.76,161.48a.75.75,0,0,0,0,1.5A.75.75,0,0,0,58.76,161.48Z"/><path class="cls-15" d="M59.59,164.39a.75.75,0,0,0,0,1.5A.75.75,0,0,0,59.59,164.39Z"/><path class="cls-15" d="M62.17,160.73a.75.75,0,0,0,0,1.5A.75.75,0,0,0,62.17,160.73Z"/><path class="cls-15" d="M58.84,158.14a.75.75,0,0,0,0,1.5A.75.75,0,0,0,58.84,158.14Z"/><path class="cls-15" d="M55.7,157.4a5.26,5.26,0,0,1-3.23-1.06c-1.7-1.33-1.67-4.24-1.42-5.59a23,23,0,0,1,1.87-5.33,13.53,13.53,0,0,1,3.28-4.33C58.64,139,62,138.31,64.68,138a14.06,14.06,0,0,1,1.72-.11c3.49,0,6.25,1.32,7.56,3.61a5.47,5.47,0,0,1-2.1,7.46l-.46.25a.84.84,0,0,0-.21.11,8.41,8.41,0,0,0-.7,1.21,7.89,7.89,0,0,1-1.71,2.44,8.18,8.18,0,0,1-4.37,2.14,6.47,6.47,0,0,1-.76.05h0c-.48,0-.92-.05-1.36-.09a9.81,9.81,0,0,0-1.07-.08,2.47,2.47,0,0,0-.83.12,2.8,2.8,0,0,0-.82.65,5.13,5.13,0,0,1-2.07,1.4A6,6,0,0,1,55.7,157.4Z"/><path class="cls-18" d="M72.73,142.16c-1.52-2.64-5.19-3.14-7.86-2.79s-5.64,1-7.75,2.79A12.14,12.14,0,0,0,54.21,146a21.17,21.17,0,0,0-1.76,5c-.22,1.15-.16,3.38.89,4.21a4.19,4.19,0,0,0,3.73.54c1.22-.38,1.73-1.65,2.86-2,1.4-.48,2.88.11,4.31-.07a6.65,6.65,0,0,0,3.58-1.77c1.14-1,1.4-2.38,2.28-3.52a3.26,3.26,0,0,1,1-.66A4.07,4.07,0,0,0,72.73,142.16Z"/><path class="cls-29" d="M100,140.39c-1,0-4.59-.14-5.79,1.08-1.6-.31-3.18-.69-4.68-1a1,1,0,0,0-.53,1.93,37.26,37.26,0,0,0,9.49,2.92c1.2.15,4.07.42,5-.86a3.17,3.17,0,0,0,.49-.48C105.67,141.76,101.45,140.4,100,140.39Z"/><path class="cls-7" d="M99.67,126.35a50.46,50.46,0,0,1,8-9.23,60.55,60.55,0,0,1,4.81-4,32.05,32.05,0,0,0,3.89-3"/><path class="cls-30" d="M11.55,92.1c-1,4.47,2,7.6,6.63,6.5,2.75-.65,5.28-6.4,2.49-8.25"/><path class="cls-31" d="M8.53,84.44a66.43,66.43,0,0,0,13,1.54,1,1,0,0,0,0-2A64.07,64.07,0,0,1,9.06,82.51c-1.25-.25-1.79,1.67-.53,1.93Z"/><path class="cls-31" d="M16.67,83.85c0-.82,0-1.63,0-2.45,0-.4,0-.8.09-1.2,0,.22,0-.1,0-.14l.06-.32c0-.21.1-.42.16-.62a1,1,0,0,0-1.93-.53,18.21,18.21,0,0,0-.41,5.26,1,1,0,0,0,2,0Z"/><path class="cls-31" d="M8.16,78.94a64.11,64.11,0,0,0,7.32.87c1.22.06,2.43,0,3.65.13s2.52.27,3.79.29a1,1,0,0,0,0-2c-1.22,0-2.43-.16-3.65-.27s-2.34-.09-3.51-.14A58,58,0,0,1,8.69,77c-1.26-.21-1.8,1.72-.53,1.93Z"/><path class="cls-31" d="M23.56,74a84.16,84.16,0,0,1-8-2.53,18.51,18.51,0,0,1-3.33-1.33c-.17-.11-.3-.18-.32-.34,0-.32.32-.76.48-1a8.35,8.35,0,0,1,1.36-1.6c.34-.32,1-.9,1.41-.85.54.08.73,1.46.76,2a13.9,13.9,0,0,0,.33,3.75,1,1,0,0,0,1.93,0c.41-1.11.59-2.33,1.95-2.52a16.56,16.56,0,0,1,5.44.22c1.26.25,1.8-1.68.53-1.93a18.49,18.49,0,0,0-3.64-.36,11.52,11.52,0,0,0-3.26.23c-1.87.53-2.34,2.19-2.95,3.83h1.93c-.69-2.13.35-4.82-1.44-6.59-1.28-1.26-3-.42-4.16.56s-2.47,2.49-2.64,4C9.65,71.78,12.37,72.45,14,73c3,1.11,6,2.1,9.06,2.91A1,1,0,0,0,23.56,74Z"/><path class="cls-31" d="M15.29,59.47a53.54,53.54,0,0,0,10.87,5.35,1,1,0,1,0,.53-1.93A51,51,0,0,1,16.3,57.74c-1.08-.7-2.09,1-1,1.73Z"/><path class="cls-31" d="M21.31,44.72c-1.25,2.12-2.45,4.94-1.95,7.46.36,1.79,2.13,2.36,3.77,2.21a34.58,34.58,0,0,0,4.71-1.2,3.35,3.35,0,0,1,2.21,0,2.56,2.56,0,0,1,1.08,1.95c.2,1.58-.65,3.55-2.46,3.44-1.28-.08-1.28,1.92,0,2,4.26.26,5.89-5.94,3.09-8.6-1.52-1.44-3.77-1-5.56-.42-1.28.42-3,1.2-4.37.75a.63.63,0,0,1-.48-.41,4,4,0,0,1,0-1.68A11.9,11.9,0,0,1,23,45.73a1,1,0,0,0-1.73-1Z"/><path class="cls-31" d="M32.18,33.72a4.06,4.06,0,0,1-.56.71c-.24.26-.5.5-.76.74-.51.47-1,.91-1.52,1.42-1.06,1.13-1.48,2.58-2.28,3.88a1,1,0,0,0,1.73,1c.38-.63.67-1.32,1-2a8.62,8.62,0,0,1,.52-.94l.16-.24c-.07.09.06-.06.08-.09s.23-.26.35-.38a20.64,20.64,0,0,0,3-3.12,1,1,0,0,0-.36-1.37,1,1,0,0,0-1.37.36Z"/><path class="cls-31" d="M29.43,38.36c.68,1,1.43,2,2.18,3s1.37,1.93,2.14,2.81c1.33,1.54,3,3,3.71,4.93a1,1,0,0,0,1.23.7,1,1,0,0,0,.7-1.23,18.28,18.28,0,0,0-3.89-5.43c-.75-.83-1.37-1.74-2-2.63s-1.59-2.08-2.3-3.18-2.43-.08-1.73,1Z"/><path class="cls-31" d="M48.3,31.6a7.78,7.78,0,0,0-4.82,1.92,5.42,5.42,0,0,0-1.17,5.61,5.11,5.11,0,0,0,1.6,2.3,6.72,6.72,0,0,0,1.73.93,8.56,8.56,0,0,0,4.07.53,4.16,4.16,0,0,0,3.68-2.65,1,1,0,0,0-1.93-.53c-.07.18,0,0,0,0a.8.8,0,0,1-.08.16,1.75,1.75,0,0,1-.18.29c.12-.16-.08.07-.12.12L51,40.4c.16-.14,0,0-.07,0l-.26.16-.16.07c-.14.07.14-.05,0,0a4,4,0,0,1-.75.2l-.19,0c.18,0,0,0,0,0l-.38,0a5.41,5.41,0,0,1-.9,0l-.24,0-.4-.06c-.26-.05-.52-.12-.78-.19s-.49-.16-.73-.25c.16.06-.13-.06-.19-.09l-.39-.21a2.2,2.2,0,0,1-.28-.18,1.1,1.1,0,0,1-.14-.09s.16.13,0,0a2.78,2.78,0,0,1-.59-.73,3.47,3.47,0,0,1,.15-3.91,5.26,5.26,0,0,1,3.64-1.6,1,1,0,0,0,1-1,1,1,0,0,0-1-1Z"/><path class="cls-31" d="M55.67,27.1c0,4.32-.64,8.9,1,13a1,1,0,0,0,1.23.7,1,1,0,0,0,.7-1.23c-1.62-4-1-8.34-1-12.49a1,1,0,0,0-2,0Z"/><path class="cls-31" d="M57.42,34.6c1.42,0,2.84.13,4.25,0a1,1,0,0,0,0-2c-1.41.13-2.83,0-4.25,0a1,1,0,0,0,0,2Z"/><path class="cls-31" d="M61.3,25.73c0,2.67.4,5.37.65,8a32.45,32.45,0,0,0,1.63,7.48c.42,1.21,2.35.69,1.93-.53a29.41,29.41,0,0,1-1.59-7.23c-.2-2.58-.6-5.16-.62-7.75a1,1,0,0,0-2,0Z"/><path class="cls-31" d="M69.46,28c-.93,2.42-2.19,4.93-1.87,7.59a5.35,5.35,0,0,0,4.19,4.91,5.61,5.61,0,0,0,5.13-1.17,7.8,7.8,0,0,0,1.91-4.51,39.33,39.33,0,0,0,.23-5.43,1,1,0,0,0-2,0c0,1.35,0,2.7-.08,4a9.2,9.2,0,0,1-1,3.79A2.72,2.72,0,0,1,75,38.28a3.58,3.58,0,0,1-1.89.33,4,4,0,0,1-2.22-.68,3.57,3.57,0,0,1-1.2-2.18c-.53-2.46.89-5,1.75-7.26A1,1,0,1,0,69.46,28Z"/><path class="cls-31" d="M81.67,43.48c-.17-2.09,1-4.11,1.82-6,.59-1.41.81-2.93,1.39-4.34a3.94,3.94,0,0,1,1-1.6c.34-.26,1.05.14,1.47.42,1.07.7,2.71,2.66,1.63,4s-3.27.66-4.43,0l-.77,1.83a1.7,1.7,0,0,1,1.53,1,5.79,5.79,0,0,1,.26,2.41c0,1.73-.43,3.63.14,5.31.41,1.21,2.34.69,1.93-.53-.61-1.79,0-3.89-.07-5.74-.09-2.09-1-4-3.26-4.33-1-.15-1.85,1.23-.77,1.83,1.76,1,4.3,1.37,6.09.27,2.19-1.34,2-4.09.59-6-1.16-1.59-3.76-3.55-5.65-2-1.48,1.24-2,3.52-2.47,5.31-.68,2.72-2.67,5.17-2.43,8.1.11,1.27,2.11,1.28,2,0Z"/><path class="cls-31" d="M101.54,41a5.8,5.8,0,0,0-4.2-2.3,4.43,4.43,0,0,0-4.51,1.54,9.91,9.91,0,0,0-1.63,4.54A5.3,5.3,0,0,0,93,49.3a8.14,8.14,0,0,0,5.35,1.93,1,1,0,0,0,0-2c-2.2,0-5-1.2-5.14-3.7a6.25,6.25,0,0,1,.3-1.82A8.61,8.61,0,0,1,94.08,42a2.74,2.74,0,0,1,1-1.19,2.65,2.65,0,0,1,1.44-.22,6.17,6.17,0,0,1,2,.45,4.55,4.55,0,0,1,.78.43,1.93,1.93,0,0,1,.51.52c.68,1.09,2.41.09,1.73-1Z"/><path class="cls-31" d="M103.54,53.48a45.12,45.12,0,0,0,3.24-5.16,40,40,0,0,1,3.13-5.71c.7-1.09-1-2.09-1.73-1A40,40,0,0,0,105,47.38c-.79,1.85-2.17,3.38-3.21,5.09-.67,1.1,1.06,2.11,1.73,1Z"/><path class="cls-31" d="M105.17,49.09a11.43,11.43,0,0,0,2,1.14,12,12,0,0,0,2.26.84,1,1,0,0,0,.53-1.93,5.9,5.9,0,0,1-.93-.29c-.19-.06-.37-.14-.55-.21l.07,0-.14-.07-.29-.13a10.2,10.2,0,0,1-1.92-1.11,1,1,0,0,0-.77-.1,1.07,1.07,0,0,0-.6.46,1,1,0,0,0-.1.77,1.1,1.1,0,0,0,.46.6Z"/><path class="cls-31" d="M113.31,43.1a38.4,38.4,0,0,0-6.48,14c-.27,1.25,1.66,1.79,1.93.53A37,37,0,0,1,115,44.11c.75-1-1-2-1.73-1Z"/><path class="cls-31" d="M133,63.86a14.39,14.39,0,0,1,2.07-2.77,9.69,9.69,0,0,1,1.37-1.27,3.27,3.27,0,0,1,.64-.4.83.83,0,0,1,.34-.07h0c-.12,0,.26.18.07,0,0,0,.19.22.09.09a1.35,1.35,0,0,1,.15.26,4.86,4.86,0,0,1,.25,1.21,7.35,7.35,0,0,1-.24,2.63,1,1,0,0,0,1.83.77,1.89,1.89,0,0,1,1.89-1.16,2.25,2.25,0,0,1,1.65,1.28,7.9,7.9,0,0,1,.69,2.87,5.19,5.19,0,0,1-.33,2.87c-.62,1.13,1.11,2.14,1.73,1a7.24,7.24,0,0,0,.58-4.14,8.87,8.87,0,0,0-1.2-4.05,4.13,4.13,0,0,0-3.32-1.85,3.9,3.9,0,0,0-3.42,2.16l1.83.77c.56-2,.79-6.13-1.83-6.71-1.5-.33-2.86.88-3.84,1.86a16.94,16.94,0,0,0-2.78,3.58,1,1,0,0,0,1.73,1Z"/><path class="cls-31" d="M132.67,63.22c3.33,2,7.53,2.62,10.3,5.46.9.93,2.31-.49,1.41-1.41-2.92-3-7.19-3.73-10.7-5.78a1,1,0,0,0-1,1.73Z"/><path class="cls-31" d="M140.59,55.93a15.63,15.63,0,0,0,2.73,2.21,16.87,16.87,0,0,0,4,2.17c1.2.41,2.72.58,3.7-.4,1.34-1.36.8-3.7.13-5.23a11,11,0,0,0-4.63-5.19c-1.13-.61-2.14,1.11-1,1.73A9,9,0,0,1,149,54.84a6.26,6.26,0,0,1,.81,2.32,3.27,3.27,0,0,1,0,1c0,.09-.18.4,0,.17a.3.3,0,0,0-.06.11l-.07.11.06-.08c-.1.1-.22.16,0,.06-.12.06-.3.13-.07.06l-.29.08c-.18.08.23,0,0,0h-.2l-.35,0c.29,0-.1,0-.17,0a6.22,6.22,0,0,1-.84-.25,11.43,11.43,0,0,1-1.58-.75c-.58-.32-1.15-.68-1.7-1.06-.29-.19-.58-.4-.86-.61l-.17-.13c-.21-.15.05,0-.1-.08l-.34-.27a8.64,8.64,0,0,1-1-.91c-.88-1-2.29.47-1.42,1.41Z"/><path class="cls-31" d="M147.54,45.09a23.89,23.89,0,0,1,3.62,3.42A27.64,27.64,0,0,1,154.44,52c.7,1,1.61,2.28,3,1.57a4.69,4.69,0,0,0,1.62-1.77,12.22,12.22,0,0,1,1.44-2c.89-.93-.52-2.34-1.42-1.42a12.26,12.26,0,0,0-1.39,1.83c-.08.13-1.12,1.6-1.15,1.56h.16c.08-.06.14.22,0,0s-.26-.31-.36-.46a13.76,13.76,0,0,0-1.11-1.41c-1.05-1.17-2.19-2.25-3.27-3.38a20.32,20.32,0,0,0-3.43-3.12c-1.08-.7-2.08,1-1,1.73Z"/><path class="cls-31" d="M155.34,37.81a51.67,51.67,0,0,1,3.35,4.07,14.77,14.77,0,0,0,3.15,3.67,2.52,2.52,0,0,0,3.61-.16A35.11,35.11,0,0,1,168.93,42a1,1,0,0,0,.36-1.37,1,1,0,0,0-1.37-.36,20.81,20.81,0,0,0-3.15,2.93c-.27.3-.77,1.07-1.16,1.11s-.81-.52-1.05-.73A18.52,18.52,0,0,1,160,40.18c-.94-1.35-2.18-2.5-3.21-3.79a1,1,0,0,0-1.42,0,1,1,0,0,0,0,1.42Z"/><path class="cls-31" d="M172.71,22.87a19.73,19.73,0,0,0,3.55,5.49c1.2,1.49,3.11,2.27,4.18,3.87.7,1.07,2.44.07,1.72-1-1.1-1.66-2.9-2.5-4.22-3.95A26.41,26.41,0,0,1,176.15,25a11.79,11.79,0,0,1-1.51-2.65,1,1,0,0,0-1.23-.7,1,1,0,0,0-.7,1.23Z"/><path class="cls-31" d="M172.05,24.59c1.14-.55,1.86-1.68,3-2.11.73-.27,2-1,2.65-.32a.65.65,0,0,1,.12.56A4,4,0,0,1,177.4,24a21.13,21.13,0,0,1-1.46,2.25,1,1,0,0,0,.25,1.29,1,1,0,0,0,1.32-.08,5.29,5.29,0,0,1,2.23-.86,4.9,4.9,0,0,1,1.14,0,2.35,2.35,0,0,1,1,.31c.76.56.51,1.82.2,2.68A9.73,9.73,0,0,1,179.72,33c-.91.92.51,2.33,1.41,1.41a11.44,11.44,0,0,0,3-4.73,4.08,4.08,0,0,0-.84-4.27c-1.93-1.68-5.34-.89-7.15.59l1.57,1.21c1.17-1.66,3.39-4.57,1.5-6.49-1.19-1.2-2.71-.87-4.13-.36a7.22,7.22,0,0,0-2.18,1.1A9.73,9.73,0,0,1,171,22.86c-1.16.56-.14,2.29,1,1.73Z"/><path class="cls-31" d="M188.64,28.34c-1-3.45-3.22-6.47-4-10-.28-1.26-2.21-.73-1.93.53.78,3.54,3,6.55,4,10a1,1,0,0,0,1.93-.53Z"/><path class="cls-31" d="M182.19,18.82a23.74,23.74,0,0,1,4.2-1.22,3.2,3.2,0,0,1,1.59.13l.18.11c-.07-.07-.06-.06,0,0l.12.12c-.07-.09-.08-.09,0,0s0-.18,0,0,0,.1,0,0v.16c0,.14.05-.14,0,.13,0,0-.09.28,0,.1a3.52,3.52,0,0,1-.39.68,7.21,7.21,0,0,1-.92,1.07,9.73,9.73,0,0,1-2,1.63l1.21,1.57c1-1,2.09-.86,3.2,0a11.41,11.41,0,0,1,2.61,3.17,1,1,0,0,0,1.72-1,12.38,12.38,0,0,0-3.6-4.08,4.44,4.44,0,0,0-2.57-.82,4.11,4.11,0,0,0-2.77,1.32,1,1,0,0,0,1.21,1.58,10.87,10.87,0,0,0,4-4,2.54,2.54,0,0,0-.19-2.94,4,4,0,0,0-3.47-.95,26.18,26.18,0,0,0-4.58,1.28c-1.23.38-.7,2.31.53,1.93Z"/><path class="cls-31" d="M196.66,11.51c-1,.41-2.19.43-3.1,1.06-1.3.9-1.27,2.52-.91,3.91a19.32,19.32,0,0,0,.87,2.34c.25.65.45,1.33.69,2a5.79,5.79,0,0,0,2.39,3.34c1.48.75,3.29,0,4.58-.8,1.07-.7.07-2.43-1-1.73a5.09,5.09,0,0,1-1.81.81,1.17,1.17,0,0,1-1.27-.42c-.89-.92-1.14-2.38-1.58-3.54-.3-.81-.68-1.58-.91-2.42a4,4,0,0,1-.18-1.19,1,1,0,0,1,.13-.52c-.12.17.23-.19.06-.06a1.35,1.35,0,0,1,.26-.15,4.61,4.61,0,0,1,.59-.19,17.07,17.07,0,0,0,1.73-.49,1,1,0,0,0,.7-1.23,1,1,0,0,0-1.23-.7Z"/><path class="cls-31" d="M195.3,19.34l0,0-.24.1a16.2,16.2,0,0,1,2.83-.85,1,1,0,0,0-.53-1.93,17.9,17.9,0,0,0-3.12,1,1,1,0,0,0-.35,1.37,1,1,0,0,0,.59.46l.27,0a1,1,0,0,0,.5-.14Z"/><path class="cls-31" d="M202.91,12.07a7.74,7.74,0,0,0,2.45.12,5.27,5.27,0,0,0,2.44-.6,1,1,0,1,0-1-1.73,1.19,1.19,0,0,1-.15.09c-.14.08.11,0,.12,0l-.11,0a2.54,2.54,0,0,1-.45.13c-.17,0-.35.06-.52.09.35-.06,0,0-.08,0l-.3,0a10.61,10.61,0,0,1-1.13,0l-.52,0c-.16,0,.23,0,.11,0l-.1,0-.22,0a1,1,0,1,0-.53,1.93Z"/><path class="cls-31" d="M201.83,11.87c.8,2.73,1.19,5.57,2.08,8.28.36,1.09,1,2.21,2.27,2.25a9.4,9.4,0,0,0,3.13-1,1,1,0,0,0,.7-1.23,1,1,0,0,0-1.23-.7c-.42.15-.83.34-1.25.51a6.06,6.06,0,0,1-1.25.38h-.09c.1.05.12.06.05,0s-.05,0,0,0-.2-.24-.08-.07a1.82,1.82,0,0,1-.15-.27,5.52,5.52,0,0,1-.4-1.19c-.29-1.09-.63-2.16-.88-3.25-.32-1.45-.58-2.91-1-4.33a1,1,0,0,0-1.93.53Z"/><path class="cls-31" d="M204.55,17a29.59,29.59,0,0,0,3.39-.41,1,1,0,0,0-.53-1.93c-.27.06-.55.11-.83.15l.27,0c-.77.1-1.54.12-2.3.22a1.1,1.1,0,0,0-.71.29,1,1,0,0,0-.29.71,1,1,0,0,0,.29.7,1,1,0,0,0,.71.3Z"/><path class="cls-31" d="M213,12c.49,2.41.1,4.93.09,7.36a1,1,0,0,0,2,0c0-2.63.37-5.28-.16-7.89A1,1,0,1,0,213,12Z"/><path class="cls-31" d="M212.16,11.19a9.78,9.78,0,0,1,4.43,1.49c1.18.88,1.32,2.4,1.33,3.76,0,1.07.14,2.4-1,2.93-1.51.72-3.17.49-4.79.48a1,1,0,0,0,0,2,14,14,0,0,0,4.79-.33,3.85,3.85,0,0,0,2.81-2.81,12,12,0,0,0,0-4.05A5.28,5.28,0,0,0,217.6,11a11,11,0,0,0-4.91-1.7,1,1,0,0,0-1.23.7,1,1,0,0,0,.7,1.23Z"/><path class="cls-31" d="M230.79,28c1.17-1.55,1.83-3.42,3.29-4.75s3.48-2.38,5-3.8A1,1,0,1,0,237.72,18a19.75,19.75,0,0,1-2.48,1.79,22.74,22.74,0,0,0-2.68,2.1c-1.55,1.4-2.26,3.42-3.5,5.06a1,1,0,0,0,.36,1.37,1,1,0,0,0,1.37-.36Z"/><path class="cls-31" d="M237.09,19.06a11.24,11.24,0,0,1,2.31,2.31c.45.66,1.07,1.88.25,2.53-.62.48-1.72,0-2.35-.23a22.91,22.91,0,0,1-2.5-1.31l-1,1.73c2.69,1.46.9,5-.1,7-.58,1.15,1.15,2.16,1.72,1,1.53-3.07,3.27-7.64-.61-9.75-1.13-.61-2.14,1.11-1,1.73,2,1.11,5.3,3.24,7.37,1.13a3.68,3.68,0,0,0,.28-4.35,11.57,11.57,0,0,0-2.93-3.23,1,1,0,0,0-1.42,0,1,1,0,0,0,0,1.42Z"/><path class="cls-31" d="M249,29.59a3.86,3.86,0,0,0-1.19-1.82,7.34,7.34,0,0,0-2-1.47,2.32,2.32,0,0,0-2.36.06,7.46,7.46,0,0,0-1.91,2c-.24.32-.46.65-.71,1a2,2,0,0,1-.2.25c0,.06-.11.12-.16.19s.05,0,0,0c-.55.4-1.12.78-1.67,1.19-1,.77-2.83,2-2.3,3.51a4.16,4.16,0,0,0,1.93,1.91,10,10,0,0,0,2.33,1.07,1,1,0,0,0,.53-1.93,6.71,6.71,0,0,1-2.83-1.61c-.11-.12.09.07,0,0s-.13-.09-.06-.06,0-.06,0,0,0,.14,0,.21c0-.14,0,0,0,0a1.48,1.48,0,0,0,.08-.13l.1-.15c-.09.12,0,0,.05,0a10.54,10.54,0,0,1,1.29-1.13l1.45-1a5.32,5.32,0,0,0,1.22-1.24c.41-.55.79-1.12,1.25-1.63a4,4,0,0,1,.59-.58c.06,0,.32-.18.25-.15.13-.05.1,0,0,0a3.27,3.27,0,0,1,.7.33,5.91,5.91,0,0,1,.8.62,6.38,6.38,0,0,1,.72.75l.17.26a.8.8,0,0,1,.08.16c-.06-.14,0-.08,0,0a1,1,0,0,0,1.93-.53Z"/><path class="cls-31" d="M240.42,31a20.93,20.93,0,0,1,1.77,1.18l.83.62.21.16s.14.11,0,0,0,0,0,0l.44.34a1.08,1.08,0,0,0,.7.29,1,1,0,0,0,.71-.29,1,1,0,0,0,.29-.71,1,1,0,0,0-.29-.71,38.35,38.35,0,0,0-3.7-2.65,1,1,0,0,0-1.37.36,1,1,0,0,0,.36,1.37Z"/><path class="cls-31" d="M257,39.46c-.47-2-2.41-3.56-4.13-4.55-1.48-.84-3.64-1.36-4.39.65-.49,1.3-.21,2.91-.18,4.26,0,1.12.25,3.29-1.24,3.58-1.82.37-2.5-2-2.52-3.42a1,1,0,0,0-2,0,5.92,5.92,0,0,0,2.22,4.86,3.49,3.49,0,0,0,4.93-1.09c.81-1.45.64-3.27.59-4.87a19.46,19.46,0,0,1,0-2.16,2.06,2.06,0,0,1,.14-.56c0-.09,0-.06.15,0a5.91,5.91,0,0,1,2.64,1.41A4.71,4.71,0,0,1,255.08,40c.29,1.26,2.22.73,1.93-.53Z"/><path class="cls-31" d="M258.76,50.21a5.61,5.61,0,0,0-2.36-3.48,6.2,6.2,0,0,0-3.88-1.19,3.92,3.92,0,0,0-3.31,2.9,8.35,8.35,0,0,0-.5,4.71c.3,1.3,1,3,2.45,3.42a1,1,0,0,0,.53-1.93c-.15,0,.1.1-.08,0s0,0-.09-.08l-.19-.2c.09.11-.09-.15-.12-.2a4.24,4.24,0,0,1-.5-1.22c-.06-.22-.1-.44-.15-.66s0,.13,0-.1,0-.27,0-.41a7.93,7.93,0,0,1,.35-2.05,5,5,0,0,1,.69-1.59,1.31,1.31,0,0,1,1-.56c.16,0-.14,0,0,0h.15a2.17,2.17,0,0,1,.36,0h.15c-.15,0,0,0,.05,0l.42.09a5.05,5.05,0,0,1,1.35.58,3.58,3.58,0,0,1,1.78,2.5,1,1,0,1,0,1.93-.53Z"/><path class="cls-31" d="M262.3,56.23c-2.09,0-4.24-.39-6.24.41-1.57.63-3.37,1.8-4,3.44-.71,1.86.84,3.47,2.32,4.34a8.31,8.31,0,0,0,4.79,1,14.17,14.17,0,0,0,5.38-1.58c1.15-.59.14-2.31-1-1.73-2.19,1.13-5,1.83-7.37,1-.77-.28-2.41-1.22-2.29-2.1a2.56,2.56,0,0,1,1-1.35,7.78,7.78,0,0,1,1.67-1c1.78-.8,3.85-.36,5.73-.35a1,1,0,0,0,0-2Z"/><path class="cls-31" d="M256.76,74.64c-.78-1-1.7-2.75-1.19-4a1.12,1.12,0,0,1,.79-.57,5.77,5.77,0,0,1,1.6-.22c1.08,0,2.12-.08,3.2-.19a11.77,11.77,0,0,1,2-.08,1.77,1.77,0,0,1,.5.1c.11,0,.08,0,.18.18a7.28,7.28,0,0,1,.49,3.48,1,1,0,0,0,2,0,9.67,9.67,0,0,0-.66-4.3c-.75-1.51-2.44-1.55-3.92-1.43-.73,0-1.45.17-2.18.22s-1.21,0-1.82,0c-1.42.07-3.18.38-3.89,1.79-1.07,2.12.19,4.71,1.51,6.4a1,1,0,0,0,1.42,0,1,1,0,0,0,0-1.42Z"/><path class="cls-31" d="M258.83,70.49a13.46,13.46,0,0,0,1,3.37,1,1,0,0,0,1.73-1c-.07-.13-.13-.26-.19-.39l.1.24a19.62,19.62,0,0,1-.69-2.74,1,1,0,0,0-1.23-.7,1,1,0,0,0-.7,1.23Z"/><path class="cls-15" d="M122.7,328.18a8.7,8.7,0,0,1-.69.94A7.74,7.74,0,0,0,122.7,328.18Z"/></g></g></svg>