<svg width="20" height="20" viewBox="0 0 20 20" fill="none" xmlns="http://www.w3.org/2000/svg">
<path fill-rule="evenodd" clip-rule="evenodd" d="M10.475 1.8V2.89167C14.7917 3.34167 18.1583 6.99167 18.15 11.425C18.15 16.1583 14.3083 20 9.575 20C4.84167 20 1 16.1583 1 11.425C1 6.99167 4.36667 3.34167 8.675 2.89167V1.8H6.90833V0H12.2417V1.8H10.475ZM2.66667 11.425C2.66667 15.2333 5.76667 18.3333 9.575 18.3333C13.3917 18.3333 16.4917 15.2333 16.4833 11.425C16.4833 7.875 13.825 4.91667 10.3 4.55L9.575 4.475L8.85 4.55C5.325 4.91667 2.66667 7.875 2.66667 11.425ZM8.7417 7.80834H10.4084V11.3667H12.7334V13.0333H8.7417V7.80834Z" fill="white"/>
</svg>
