<svg xmlns="http://www.w3.org/2000/svg" xmlns:xlink="http://www.w3.org/1999/xlink" width="174" height="169" viewBox="0 0 174 169">
  <defs>
    <clipPath id="clip-path">
      <rect id="Rectangle_6" data-name="Rectangle 6" width="174" height="169" transform="translate(0.415 0.277)" fill="#fff" stroke="#fff" stroke-width="1"/>
    </clipPath>
  </defs>
  <g id="Mask_Group_1" data-name="Mask Group 1" transform="translate(-0.415 -0.277)" clip-path="url(#clip-path)">
    <g id="petrefuge" transform="translate(-0.272 0.587)">
      <path id="Path_1" data-name="Path 1" d="M87.39,99.842c0,4.606,2.757,17.538-4.976,17.538-1.762,0-2.9-.231-3.813-2.5-1.649-7.28-2.644-13.614-.37-40.111,2.728-5.175,25.815-2.957,25.815,4.036v.4C103.821,81.538,99.842,98.932,87.39,99.842Zm-.512-17.456V90.4c4.379,0,7.049-6.2,7.049-10.064-1.535,0-7.05-.625-7.05,2.047Z" transform="translate(-26.144 -24.451)" fill="#2d3233"/>
      <path id="Path_2" data-name="Path 2" d="M120.221,101.421c0-15.978,7.846-17.1,16.888-17.1,2.274,0,5.742,1.024,5.742,4.038,0,5.117-13.249.84-13.249,7.378,4.265,0,8.3-.682,12.624-.682v.059c0,8.074-12.737,9.5-12.737,10.917,0,.57.231.954.231,1.3h11.144c1.308,0,1.365.74,1.365,1.706,0,5.913-8.187,9.781-12.737,9.781-2.843,0-9.211-2.9-9.211-6.142v-8.745C120.221,103.014,120.221,102.218,120.221,101.421Z" transform="translate(-40.872 -28.665)" fill="#2d3233"/>
      <path id="Path_3" data-name="Path 3" d="M165.009,77.828c.283-.513-.347-.626-3.639.4-4.437-2.5-4.276-7.844-.179-9.723,5.514-1.313,20.465-4.853,20.471,1.688,0,3.582-2.326,5.744-5.226,6.942.059,2.785.07,15.522.015,18.251,0,1.137-.385,15.442-.668,16.64-.508,3.813-4.658,4.666-8.013,4.67a3.132,3.132,0,0,1-2.732-2.671Z" transform="translate(-53.743 -22.561)" fill="#2d3233"/>
      <path id="Path_4" data-name="Path 4" d="M22.118,169.4c0,.116-.057.284-.057.454,0,1.365,11.644,20.351,11.644,26.491,0,3.128-4.264,5.971-7.221,5.971-6.367,0-9.539-25.694-15.623-25.694,0,4.6,2.331,15.011-5.4,15.011-1.763,0-2.9-.231-3.813-2.5C0,181.85,0,178.041,0,171.274v-2.331c0-5.288,0-8.927,1.649-14.5,2.729-5.175,27.861-8.586,27.861-1.592v.4C29.4,154.393,28.6,159.732,22.118,169.4Zm-11.77-10.235v8.017c4.378,0,8.927-7.563,8.927-11.43C17.74,155.751,10.348,156.49,10.348,159.163Z" transform="translate(0 -50.62)" fill="#2d3233"/>
      <path id="Path_5" data-name="Path 5" d="M50.948,168.735c0-15.978,7.846-18.367,16.888-18.367,2.274,0,5.742,1.024,5.742,4.038,0,5.117-13.249,2.1-13.249,8.643,4.265,0,8.3-.682,12.624-.682v.057c0,8.074-12.737,9.5-12.737,10.917,0,.569.231,2.218.231,2.558H71.592c1.308,0,1.365.74,1.365,1.707,0,5.913-8.187,9.78-12.737,9.78-2.843,0-9.211-2.9-9.211-6.141V171.236C50.948,170.326,50.948,169.531,50.948,168.735Z" transform="translate(-17.321 -51.119)" fill="#2d3233"/>
      <path id="Path_6" data-name="Path 6" d="M118.031,156.967c0,3.7-10.241,2.609-12.97,2.325-.171,0-.347-.058-.512-.058a29.328,29.328,0,0,0-.625,6.515l1.819.17c5.572,1.251,2.445,6.027-1.137,6.538.4,5.572,3.291,17.735-1.314,19.44-2.786,1.024-7.049.74-8.529-8.074-1.706-10.292-.733-19.812-.334-26.749.248-4.622,2.528-5.316,5.98-6.125,2.071-.49,8.355.061,11.084.061C115.87,151.009,118.031,152.759,118.031,156.967Z" transform="translate(-31.885 -51.248)" fill="#2d3233"/>
      <path id="Path_7" data-name="Path 7" d="M150.125,184.2c-1.877,3.753-6.37,6.483-11.942,6.483-10.4,0-11.952-5.977-11.952-13.653a74.195,74.195,0,0,1,1.307-10.152c.284-2.161.74-2.56,2.729-2.56,9.268,0,3.2,16.471,8.6,16.471,5.085,0,4.082-6.635,4.146-13.37.047-5-.047-9.175,3.3-9.36h.284c6.482.186,6.793,10.872,6.356,17.655C152.631,180.555,151.452,181.543,150.125,184.2Z" transform="translate(-42.915 -53.734)" fill="#2d3233"/>
      <path id="Path_8" data-name="Path 8" d="M194.2,169.5c2.844-1.08,12.055-1.649,12.283,3.07.569,3.867.4,7.961.8,12.339-.231,4.946-6.142,5.174-6.767.284.116-.74.231-1.536.4-2.275-9.268,8.644-26.871,4.753-27.8-12.85a22.562,22.562,0,0,1,.512-7.108c1.478-4.946,3.639-8.3,8.473-10.917a15.675,15.675,0,0,1,7.049-1.649h.683c4.947.284,12.622,3.582,13.816,8.7-.116,5.97-7.732,6.595-10.516.4-1.707-3.752-15.581,7.506-8.359,17.854,3.351,4.776,10.463,1.308,14.841-2.331C192.889,177.914,189.591,171.316,194.2,169.5Z" transform="translate(-58.82 -51.128)" fill="#2d3233"/>
      <path id="Path_9" data-name="Path 9" d="M230.712,164.906c0-15.978,7.846-18.367,16.888-18.367,2.274,0,5.743,1.024,5.743,4.038,0,5.117-13.249,2.1-13.249,8.643,4.264,0,8.3-.682,12.622-.682v.057c0,8.074-12.736,9.5-12.736,10.917,0,.569.231,2.218.231,2.558h11.143c1.308,0,1.365.74,1.365,1.707,0,5.913-8.187,9.78-12.736,9.78-2.844,0-9.212-2.9-9.212-6.141V167.407C230.712,166.5,230.712,165.7,230.712,164.906Z" transform="translate(-78.436 -49.818)" fill="#2d3233"/>
      <path id="Path_10" data-name="Path 10" d="M78.854,236.855q-5.28.944-10.412,2.152a6.544,6.544,0,0,0-2.4.9c-1.18.916-7.425,5.246-5.865,5.949s9.428,1.492,11.356,1.618c21.093,1.4,58.789-1.98,79.982-1.974,3.215,0,7.325-.432,7.93-2.328a2.228,2.228,0,0,0-.594-1.977c-1.8-2.332-5.631-3.921-9.686-4.722s-23.632-.347-27.882-.462l-25.538-.645Z" transform="translate(-20.376 -80.015)" fill="#2d3233"/>
      <path id="Path_11" data-name="Path 11" d="M17.6,58.2c-4.068-.867-4.986-5.2-2.994-9.661s6.378-8.9,11.174-12.416,21.408-13.2,26.578-15.889L77.287,7.255C82.445,4.57,87.708,1.848,92.86.4c1.309-.366,2.72-.634,3.474-.116,1.733,1.21,3.711,5.631,1.019,7.808C86.028,17.266,69.591,25.537,58.262,34.707,51.491,40.187,32.9,52.876,25.218,55.654Z" transform="translate(-4.622 0.002)" fill="#2d3233"/>
      <path id="Path_12" data-name="Path 12" d="M147.962,3.955q-5.1-1.832-10.245-3.311A5.853,5.853,0,0,0,135.09.3C133.473.638,133.2,2.6,134.04,4.17s-.959,5.874.578,7.041c16.871,12.765,50.99,29.4,68.887,40.748,2.714,1.723,6.478,3.467,8.267,1.8a3.261,3.261,0,0,0,.832-2.4c.054-3.416-2.111-7.141-5-10.154s-19.712-13.027-23.234-15.414L163.235,11.433Z" transform="translate(-45.412 -0.092)" fill="#2d3233"/>
      <path id="Path_13" data-name="Path 13" d="M123.141,19.621s6.539-5.384,9.723-3.737.669-5.893.669-5.893l-6.033.5-4.526,4.525Z" transform="translate(-41.807 -3.395)" fill="#2d3233"/>
    </g>
  </g>
</svg>
