<svg xmlns="http://www.w3.org/2000/svg" width="396" height="376.808" viewBox="0 0 396 376.808"><g transform="translate(-17 -2005.192)"><path d="M14.247,0H381.627a14.247,14.247,0,0,1,14.247,14.247V309.627a14.247,14.247,0,0,1-14.247,14.247H14.247A14.247,14.247,0,0,1,0,309.627V14.247A14.247,14.247,0,0,1,14.247,0Z" transform="translate(17 2048.593)" fill="#d8c2ef"/><path d="M14.247.291A13.944,13.944,0,0,0,.291,14.247V309.627a13.944,13.944,0,0,0,13.956,13.956H381.627a13.944,13.944,0,0,0,13.956-13.956V14.247A13.944,13.944,0,0,0,381.627.291H14.247m0-.291H381.627a14.247,14.247,0,0,1,14.247,14.247V309.627a14.247,14.247,0,0,1-14.247,14.247H14.247A14.247,14.247,0,0,1,0,309.627V14.247A14.247,14.247,0,0,1,14.247,0Z" transform="translate(17 2048.593)" fill="#707070"/><path d="M14.247,0h57.3A14.247,14.247,0,0,1,85.8,14.247V362.561a14.247,14.247,0,0,1-14.247,14.247h-57.3A14.247,14.247,0,0,1,0,362.561V14.247A14.247,14.247,0,0,1,14.247,0Z" transform="translate(221.209 2005.192)" fill="#fff"/><path d="M14.247.291A13.944,13.944,0,0,0,.291,14.247V362.561a13.944,13.944,0,0,0,13.956,13.956h57.3a13.944,13.944,0,0,0,13.956-13.956V14.247A13.944,13.944,0,0,0,71.551.291h-57.3m0-.291h57.3A14.247,14.247,0,0,1,85.8,14.247V362.561a14.247,14.247,0,0,1-14.247,14.247h-57.3A14.247,14.247,0,0,1,0,362.561V14.247A14.247,14.247,0,0,1,14.247,0Z" transform="translate(221.209 2005.192)" fill="#707070"/><path d="M52.9,15.762V19.4h-2.13V9.068H54.8a4.665,4.665,0,0,1,2.048.426,3.138,3.138,0,0,1,1.359,1.21,3.375,3.375,0,0,1,.476,1.785,2.968,2.968,0,0,1-1.04,2.4,4.331,4.331,0,0,1-2.878.877Zm0-1.725h1.9a1.871,1.871,0,0,0,1.288-.4A1.446,1.446,0,0,0,56.53,12.5a1.7,1.7,0,0,0-.447-1.228,1.671,1.671,0,0,0-1.235-.483H52.9Zm11.428-.39a5.573,5.573,0,0,0-.738-.057,1.5,1.5,0,0,0-1.526.788V19.4H60.009v-7.68h1.938l.057.916a1.9,1.9,0,0,1,1.711-1.058,2.15,2.15,0,0,1,.639.092ZM67.476,19.4H65.417v-7.68h2.059ZM65.3,9.735a1.01,1.01,0,0,1,.309-.76,1.331,1.331,0,0,1,1.679,0,1.084,1.084,0,0,1,0,1.526,1.316,1.316,0,0,1-1.668,0A1.007,1.007,0,0,1,65.3,9.735Zm5.792,1.988.064.859a2.7,2.7,0,0,1,2.208-1A2.048,2.048,0,0,1,75.4,12.752,2.637,2.637,0,0,1,77.7,11.581a2.291,2.291,0,0,1,1.86.728,3.344,3.344,0,0,1,.61,2.19v4.9H78.116v-4.9a1.462,1.462,0,0,0-.256-.955,1.132,1.132,0,0,0-.9-.3,1.28,1.28,0,0,0-1.278.88l.007,5.274H73.637V14.512a1.445,1.445,0,0,0-.263-.965,1.144,1.144,0,0,0-.894-.3,1.329,1.329,0,0,0-1.264.724V19.4H69.165v-7.68ZM86.2,19.4A2.278,2.278,0,0,1,86,18.715a2.482,2.482,0,0,1-1.938.831,2.727,2.727,0,0,1-1.87-.653,2.1,2.1,0,0,1-.742-1.647,2.17,2.17,0,0,1,.905-1.874,4.466,4.466,0,0,1,2.616-.66h.944v-.44a1.266,1.266,0,0,0-.273-.852,1.075,1.075,0,0,0-.862-.319,1.222,1.222,0,0,0-.813.248.844.844,0,0,0-.295.681H81.616a2.061,2.061,0,0,1,.412-1.235,2.721,2.721,0,0,1,1.164-.891,4.243,4.243,0,0,1,1.689-.323,3.352,3.352,0,0,1,2.254.713,2.5,2.5,0,0,1,.834,2.005v3.329a3.672,3.672,0,0,0,.305,1.654V19.4Zm-1.7-1.427a1.767,1.767,0,0,0,.838-.2,1.329,1.329,0,0,0,.568-.543v-1.32h-.767q-1.54,0-1.64,1.065L83.5,17.1a.821.821,0,0,0,.27.632A1.048,1.048,0,0,0,84.5,17.976Zm7.2,1.427H89.651V8.5H91.71Zm4.884-1.512a1.345,1.345,0,0,0,.923-.312,1.094,1.094,0,0,0,.369-.831h1.924a2.631,2.631,0,0,1-.426,1.43,2.81,2.81,0,0,1-1.146,1.008,3.588,3.588,0,0,1-1.608.358,3.334,3.334,0,0,1-2.6-1.047,4.143,4.143,0,0,1-.951-2.893v-.135a4.1,4.1,0,0,1,.944-2.832,3.3,3.3,0,0,1,2.591-1.058,3.23,3.23,0,0,1,2.311.82,2.9,2.9,0,0,1,.884,2.183H97.885a1.4,1.4,0,0,0-.369-.969,1.375,1.375,0,0,0-2.019.149,3.02,3.02,0,0,0-.366,1.693v.213a3.058,3.058,0,0,0,.362,1.7A1.252,1.252,0,0,0,96.593,17.891Zm8.837,1.512a2.279,2.279,0,0,1-.206-.689,2.482,2.482,0,0,1-1.938.831,2.727,2.727,0,0,1-1.87-.653,2.1,2.1,0,0,1-.742-1.647,2.17,2.17,0,0,1,.905-1.874,4.466,4.466,0,0,1,2.616-.66h.944v-.44a1.266,1.266,0,0,0-.273-.852A1.075,1.075,0,0,0,104,13.1a1.222,1.222,0,0,0-.813.248.844.844,0,0,0-.295.681h-2.051a2.061,2.061,0,0,1,.412-1.235,2.721,2.721,0,0,1,1.164-.891,4.243,4.243,0,0,1,1.689-.323,3.352,3.352,0,0,1,2.254.713A2.5,2.5,0,0,1,107.2,14.3v3.329a3.672,3.672,0,0,0,.305,1.654V19.4Zm-1.7-1.427a1.767,1.767,0,0,0,.838-.2,1.329,1.329,0,0,0,.568-.543v-1.32h-.767q-1.54,0-1.64,1.065l-.007.121a.821.821,0,0,0,.27.632A1.048,1.048,0,0,0,103.734,17.976Zm9.356-4.33a5.573,5.573,0,0,0-.738-.057,1.5,1.5,0,0,0-1.526.788V19.4h-2.051v-7.68h1.938l.057.916a1.9,1.9,0,0,1,1.711-1.058,2.149,2.149,0,0,1,.639.092Zm4.387,5.9a3.77,3.77,0,0,1-2.751-1.036,3.684,3.684,0,0,1-1.061-2.761v-.2a4.64,4.64,0,0,1,.447-2.069,3.282,3.282,0,0,1,1.267-1.405,3.556,3.556,0,0,1,1.87-.493,3.187,3.187,0,0,1,2.481.994,4.038,4.038,0,0,1,.905,2.818v.838h-4.891a1.906,1.906,0,0,0,.6,1.207,1.813,1.813,0,0,0,1.267.454,2.214,2.214,0,0,0,1.853-.859l1.008,1.129a3.08,3.08,0,0,1-1.249,1.019A4.1,4.1,0,0,1,117.477,19.545Zm-.234-6.3a1.285,1.285,0,0,0-.99.412,2.127,2.127,0,0,0-.486,1.178h2.854v-.163a1.516,1.516,0,0,0-.369-1.054A1.326,1.326,0,0,0,117.243,13.242Z" transform="translate(178.68 2013.344)"/><path d="M8.942,22.656H4.089l-.923,2.768H.222l5-13.436H7.789l5.029,13.436H9.875ZM4.836,20.413H8.2L6.506,15.384Zm11.876,5.011H14.036V11.25h2.676Zm5.011,0H19.047V11.25h2.676Zm18,0H36.958l-5.389-8.84v8.84H28.8V11.988h2.768l5.4,8.859V11.988h2.759Zm8.028,0a2.962,2.962,0,0,1-.268-.9,3.227,3.227,0,0,1-2.519,1.08,3.545,3.545,0,0,1-2.432-.849,2.73,2.73,0,0,1-.964-2.141,2.822,2.822,0,0,1,1.177-2.436,5.806,5.806,0,0,1,3.4-.858h1.227v-.572a1.645,1.645,0,0,0-.355-1.107A1.4,1.4,0,0,0,45.9,17.23a1.589,1.589,0,0,0-1.057.323,1.1,1.1,0,0,0-.383.886H41.794a2.679,2.679,0,0,1,.535-1.606,3.538,3.538,0,0,1,1.513-1.158,5.515,5.515,0,0,1,2.2-.42,4.358,4.358,0,0,1,2.93.927,3.244,3.244,0,0,1,1.084,2.607v4.328a4.773,4.773,0,0,0,.4,2.15v.157Zm-2.205-1.855a2.3,2.3,0,0,0,1.089-.263,1.727,1.727,0,0,0,.738-.706V20.884h-1q-2,0-2.132,1.384l-.009.157a1.068,1.068,0,0,0,.351.821A1.362,1.362,0,0,0,45.549,23.569Zm9.745-10.584v2.455H57V17.4H55.294v4.983a1.19,1.19,0,0,0,.212.794,1.066,1.066,0,0,0,.812.24,4.253,4.253,0,0,0,.784-.065v2.021a5.49,5.49,0,0,1-1.615.24,2.546,2.546,0,0,1-2.861-2.833V17.4H51.169V15.439h1.458V12.985Zm9.172,11.424a3.344,3.344,0,0,1-2.731,1.2,3.154,3.154,0,0,1-2.45-.923,3.939,3.939,0,0,1-.863-2.7V15.439h2.667v6.45q0,1.56,1.421,1.56a1.926,1.926,0,0,0,1.864-.941V15.439H67.05v9.985H64.54ZM74.673,17.94a7.245,7.245,0,0,0-.96-.074,1.953,1.953,0,0,0-1.984,1.024v6.533H69.062V15.439h2.519l.074,1.19a2.471,2.471,0,0,1,2.224-1.375,2.794,2.794,0,0,1,.831.12Zm6.792,7.484a2.961,2.961,0,0,1-.268-.9,3.227,3.227,0,0,1-2.519,1.08,3.545,3.545,0,0,1-2.432-.849,2.73,2.73,0,0,1-.964-2.141,2.822,2.822,0,0,1,1.177-2.436,5.806,5.806,0,0,1,3.4-.858h1.227v-.572a1.645,1.645,0,0,0-.355-1.107,1.4,1.4,0,0,0-1.121-.415,1.589,1.589,0,0,0-1.057.323,1.1,1.1,0,0,0-.383.886H75.5a2.679,2.679,0,0,1,.535-1.606,3.538,3.538,0,0,1,1.513-1.158,5.515,5.515,0,0,1,2.2-.42,4.358,4.358,0,0,1,2.93.927,3.244,3.244,0,0,1,1.084,2.607v4.328a4.773,4.773,0,0,0,.4,2.15v.157Zm-2.205-1.855a2.3,2.3,0,0,0,1.089-.263,1.727,1.727,0,0,0,.738-.706V20.884h-1q-2,0-2.132,1.384l-.009.157a1.068,1.068,0,0,0,.351.821A1.362,1.362,0,0,0,79.259,23.569Zm9.366,1.855H85.949V11.25h2.676ZM4.3,44.323H1.533V30.887H4.3Zm4.845-9.985.083,1.153a3.486,3.486,0,0,1,2.87-1.338,2.9,2.9,0,0,1,2.362.932,4.348,4.348,0,0,1,.794,2.787v6.45H12.587V37.937a1.73,1.73,0,0,0-.369-1.232,1.652,1.652,0,0,0-1.227-.383,1.835,1.835,0,0,0-1.689.96v7.041H6.636V34.338Zm7.742,4.918a5.852,5.852,0,0,1,1.094-3.7,3.543,3.543,0,0,1,2.948-1.4,3.107,3.107,0,0,1,2.556,1.126l.111-.941h2.418V43.99a4.267,4.267,0,0,1-.6,2.279,3.823,3.823,0,0,1-1.675,1.476,5.888,5.888,0,0,1-2.528.508,5.475,5.475,0,0,1-2.141-.438,3.8,3.8,0,0,1-1.578-1.13l1.181-1.624A3.124,3.124,0,0,0,21.1,46.177a2.286,2.286,0,0,0,1.652-.568A2.129,2.129,0,0,0,23.338,44v-.535a3.085,3.085,0,0,1-2.427,1.043A3.534,3.534,0,0,1,18,43.1a5.85,5.85,0,0,1-1.112-3.733Zm2.667.194a3.634,3.634,0,0,0,.544,2.127,1.733,1.733,0,0,0,1.495.771,1.853,1.853,0,0,0,1.744-.914v-4.2a1.848,1.848,0,0,0-1.726-.914,1.744,1.744,0,0,0-1.509.784A4.1,4.1,0,0,0,19.555,39.45Zm14.119-2.611a7.245,7.245,0,0,0-.96-.074,1.953,1.953,0,0,0-1.984,1.024v6.533H28.063V34.338h2.519l.074,1.19a2.471,2.471,0,0,1,2.224-1.375,2.8,2.8,0,0,1,.831.12Zm5.7,7.668A4.9,4.9,0,0,1,35.8,43.16a4.789,4.789,0,0,1-1.38-3.59v-.258A6.032,6.032,0,0,1,35,36.622a4.267,4.267,0,0,1,1.647-1.827,4.623,4.623,0,0,1,2.432-.641,4.144,4.144,0,0,1,3.225,1.292,5.25,5.25,0,0,1,1.177,3.663V40.2H37.124a2.477,2.477,0,0,0,.78,1.569,2.357,2.357,0,0,0,1.647.591,2.879,2.879,0,0,0,2.408-1.117l1.31,1.467a4,4,0,0,1-1.624,1.324A5.328,5.328,0,0,1,39.376,44.507Zm-.3-8.194a1.67,1.67,0,0,0-1.287.535,2.765,2.765,0,0,0-.632,1.532h3.71v-.212a1.971,1.971,0,0,0-.48-1.37A1.724,1.724,0,0,0,39.071,36.313Zm5.509,2.944a6.017,6.017,0,0,1,1.047-3.719,3.4,3.4,0,0,1,2.865-1.384A3.058,3.058,0,0,1,50.9,35.242V30.149h2.676V44.323H51.169l-.129-1.061a3.138,3.138,0,0,1-2.565,1.246,3.389,3.389,0,0,1-2.828-1.389A6.211,6.211,0,0,1,44.58,39.257Zm2.667.194a3.931,3.931,0,0,0,.489,2.15,1.594,1.594,0,0,0,1.421.747A1.785,1.785,0,0,0,50.9,41.305v-3.94a1.759,1.759,0,0,0-1.726-1.043Q47.247,36.322,47.247,39.45Zm11.212,4.872H55.783V34.338h2.676ZM55.626,31.754a1.313,1.313,0,0,1,.4-.987,1.73,1.73,0,0,1,2.182,0,1.409,1.409,0,0,1,0,1.984,1.71,1.71,0,0,1-2.169,0A1.309,1.309,0,0,1,55.626,31.754Zm9.625,12.753a4.9,4.9,0,0,1-3.576-1.347,4.789,4.789,0,0,1-1.38-3.59v-.258a6.032,6.032,0,0,1,.581-2.69,4.266,4.266,0,0,1,1.647-1.827,4.623,4.623,0,0,1,2.432-.641,4.144,4.144,0,0,1,3.225,1.292,5.25,5.25,0,0,1,1.177,3.663V40.2H63a2.477,2.477,0,0,0,.78,1.569,2.357,2.357,0,0,0,1.647.591,2.879,2.879,0,0,0,2.408-1.117l1.31,1.467a4,4,0,0,1-1.624,1.324A5.328,5.328,0,0,1,65.251,44.507Zm-.3-8.194a1.67,1.67,0,0,0-1.287.535,2.765,2.765,0,0,0-.632,1.532h3.71v-.212a1.971,1.971,0,0,0-.48-1.37A1.724,1.724,0,0,0,64.946,36.313Zm8.379-1.975.083,1.153a3.486,3.486,0,0,1,2.87-1.338,2.9,2.9,0,0,1,2.362.932,4.349,4.349,0,0,1,.794,2.787v6.45H76.767V37.937a1.73,1.73,0,0,0-.369-1.232,1.652,1.652,0,0,0-1.227-.383,1.835,1.835,0,0,0-1.689.96v7.041H70.815V34.338Zm11.323-2.455v2.455h1.707v1.956H84.648v4.983a1.19,1.19,0,0,0,.212.794,1.066,1.066,0,0,0,.812.24,4.253,4.253,0,0,0,.784-.065v2.021a5.49,5.49,0,0,1-1.615.24,2.546,2.546,0,0,1-2.861-2.833v-5.38H80.523V34.338h1.458V31.883Zm8.6,9.68a.859.859,0,0,0-.484-.771,5.5,5.5,0,0,0-1.555-.5q-3.562-.747-3.562-3.027a2.743,2.743,0,0,1,1.1-2.219,4.448,4.448,0,0,1,2.884-.89,4.788,4.788,0,0,1,3.041.9,2.821,2.821,0,0,1,1.14,2.325H93.147a1.29,1.29,0,0,0-.369-.946,1.562,1.562,0,0,0-1.153-.374,1.6,1.6,0,0,0-1.043.3.961.961,0,0,0-.369.775.822.822,0,0,0,.42.715,4.319,4.319,0,0,0,1.416.471,11.57,11.57,0,0,1,1.679.448,2.759,2.759,0,0,1,2.113,2.685,2.6,2.6,0,0,1-1.172,2.21,5.055,5.055,0,0,1-3.027.844,5.28,5.28,0,0,1-2.229-.448,3.739,3.739,0,0,1-1.527-1.227,2.852,2.852,0,0,1-.554-1.684h2.528a1.392,1.392,0,0,0,.526,1.089,2.086,2.086,0,0,0,1.31.378,1.931,1.931,0,0,0,1.158-.291A.9.9,0,0,0,93.248,41.564Z" transform="translate(47.661 2054.018)" fill="#fff"/><path d="M13.611,27.225H10.843l-5.389-8.84v8.84H2.685V13.789H5.454l5.4,8.859V13.789h2.759Zm1.827-5.085a5.921,5.921,0,0,1,.572-2.648,4.188,4.188,0,0,1,1.647-1.8,4.806,4.806,0,0,1,2.5-.637,4.547,4.547,0,0,1,3.3,1.237,4.963,4.963,0,0,1,1.426,3.359l.018.683a5.219,5.219,0,0,1-1.283,3.687,4.459,4.459,0,0,1-3.442,1.389,4.481,4.481,0,0,1-3.447-1.384,5.31,5.31,0,0,1-1.287-3.765Zm2.667.194a3.722,3.722,0,0,0,.535,2.173,1.925,1.925,0,0,0,3.045.009,4.073,4.073,0,0,0,.544-2.376,3.685,3.685,0,0,0-.544-2.159,1.771,1.771,0,0,0-1.532-.766,1.742,1.742,0,0,0-1.513.761A4.141,4.141,0,0,0,18.105,22.334ZM33.7,17.24l.083,1.153a3.486,3.486,0,0,1,2.87-1.338,2.9,2.9,0,0,1,2.362.932,4.349,4.349,0,0,1,.794,2.787v6.45H37.142V20.839a1.73,1.73,0,0,0-.369-1.232,1.652,1.652,0,0,0-1.227-.383,1.835,1.835,0,0,0-1.689.96v7.041H31.19V17.24Zm13.916,9.985a2.962,2.962,0,0,1-.268-.9,3.227,3.227,0,0,1-2.519,1.08A3.545,3.545,0,0,1,42.4,26.56a2.73,2.73,0,0,1-.964-2.141,2.822,2.822,0,0,1,1.177-2.436,5.806,5.806,0,0,1,3.4-.858h1.227v-.572a1.645,1.645,0,0,0-.355-1.107,1.4,1.4,0,0,0-1.121-.415,1.589,1.589,0,0,0-1.057.323,1.1,1.1,0,0,0-.383.886H41.655a2.679,2.679,0,0,1,.535-1.606A3.538,3.538,0,0,1,43.7,17.476a5.515,5.515,0,0,1,2.2-.42,4.358,4.358,0,0,1,2.93.927,3.244,3.244,0,0,1,1.084,2.607v4.328a4.773,4.773,0,0,0,.4,2.15v.157ZM45.41,25.37a2.3,2.3,0,0,0,1.089-.263,1.727,1.727,0,0,0,.738-.706V22.685h-1q-2,0-2.132,1.384l-.009.157a1.068,1.068,0,0,0,.351.821A1.362,1.362,0,0,0,45.41,25.37Zm11.959-.9a.859.859,0,0,0-.484-.771,5.5,5.5,0,0,0-1.555-.5q-3.562-.747-3.562-3.027a2.743,2.743,0,0,1,1.1-2.219,4.448,4.448,0,0,1,2.884-.89,4.788,4.788,0,0,1,3.041.9,2.821,2.821,0,0,1,1.14,2.325H57.268a1.29,1.29,0,0,0-.369-.946,1.562,1.562,0,0,0-1.153-.374,1.6,1.6,0,0,0-1.043.3.961.961,0,0,0-.369.775.822.822,0,0,0,.42.715,4.319,4.319,0,0,0,1.416.471,11.569,11.569,0,0,1,1.679.448,2.759,2.759,0,0,1,2.113,2.685,2.6,2.6,0,0,1-1.172,2.21,5.055,5.055,0,0,1-3.027.844,5.28,5.28,0,0,1-2.229-.448,3.739,3.739,0,0,1-1.527-1.227,2.852,2.852,0,0,1-.554-1.684h2.528a1.392,1.392,0,0,0,.526,1.089,2.086,2.086,0,0,0,1.31.378,1.931,1.931,0,0,0,1.158-.291A.9.9,0,0,0,57.37,24.466Zm7.5-9.68V17.24h1.707V19.2H64.872V24.18a1.19,1.19,0,0,0,.212.794,1.066,1.066,0,0,0,.812.24,4.253,4.253,0,0,0,.784-.065v2.021a5.49,5.49,0,0,1-1.615.24A2.546,2.546,0,0,1,62.2,24.576V19.2H60.747V17.24H62.2V14.786Zm6.921,8.665,1.846-6.21H76.5L72.485,28.775l-.221.526a3.044,3.044,0,0,1-2.953,1.956,4.2,4.2,0,0,1-1.181-.175V29.061l.406.009a2.194,2.194,0,0,0,1.13-.231,1.516,1.516,0,0,0,.586-.766l.314-.821-3.5-10.012h2.87ZM6.663,44.158a1.749,1.749,0,0,0,1.2-.406,1.423,1.423,0,0,0,.48-1.08h2.5a3.421,3.421,0,0,1-.554,1.859,3.653,3.653,0,0,1-1.49,1.31,4.664,4.664,0,0,1-2.09.466,4.335,4.335,0,0,1-3.377-1.361,5.386,5.386,0,0,1-1.237-3.76v-.175a5.325,5.325,0,0,1,1.227-3.682A4.284,4.284,0,0,1,6.69,35.954a4.2,4.2,0,0,1,3,1.066,3.774,3.774,0,0,1,1.149,2.838h-2.5a1.818,1.818,0,0,0-.48-1.26,1.6,1.6,0,0,0-1.218-.484,1.607,1.607,0,0,0-1.407.678,3.926,3.926,0,0,0-.475,2.2v.277a3.975,3.975,0,0,0,.471,2.215A1.627,1.627,0,0,0,6.663,44.158Zm8.305-6.93a3.329,3.329,0,0,1,2.667-1.273q3.248,0,3.294,3.774v6.395H18.262V39.8a1.855,1.855,0,0,0-.369-1.269,1.582,1.582,0,0,0-1.227-.411,1.815,1.815,0,0,0-1.7.9v7.1H12.3V31.949h2.667Zm12.568,9.08a4.9,4.9,0,0,1-3.576-1.347,4.789,4.789,0,0,1-1.38-3.59v-.258a6.032,6.032,0,0,1,.581-2.69A4.267,4.267,0,0,1,24.809,36.6a4.623,4.623,0,0,1,2.432-.641,4.144,4.144,0,0,1,3.225,1.292,5.25,5.25,0,0,1,1.177,3.663V42H25.284a2.477,2.477,0,0,0,.78,1.569,2.357,2.357,0,0,0,1.647.591,2.879,2.879,0,0,0,2.408-1.117l1.31,1.467a4,4,0,0,1-1.624,1.324A5.328,5.328,0,0,1,27.536,46.308Zm-.3-8.194a1.67,1.67,0,0,0-1.287.535,2.765,2.765,0,0,0-.632,1.532h3.71v-.212a1.971,1.971,0,0,0-.48-1.37A1.724,1.724,0,0,0,27.231,38.114Zm8.425-1.975.083,1.117a3.509,3.509,0,0,1,2.87-1.3,2.663,2.663,0,0,1,2.648,1.523,3.428,3.428,0,0,1,3-1.523,2.978,2.978,0,0,1,2.418.946,4.348,4.348,0,0,1,.794,2.847v6.376H44.792V39.756a1.9,1.9,0,0,0-.332-1.241,1.472,1.472,0,0,0-1.172-.392,1.664,1.664,0,0,0-1.661,1.144l.009,6.856H38.969V39.765a1.878,1.878,0,0,0-.341-1.255,1.487,1.487,0,0,0-1.163-.388,1.728,1.728,0,0,0-1.643.941v7.059H33.156V36.139Zm16.675,9.985H49.655V36.139h2.676ZM49.5,33.555a1.313,1.313,0,0,1,.4-.987,1.73,1.73,0,0,1,2.182,0,1.409,1.409,0,0,1,0,1.984,1.71,1.71,0,0,1-2.169,0A1.309,1.309,0,0,1,49.5,33.555Zm9.182,10.6a1.749,1.749,0,0,0,1.2-.406,1.423,1.423,0,0,0,.48-1.08h2.5a3.421,3.421,0,0,1-.554,1.859,3.653,3.653,0,0,1-1.49,1.31,4.664,4.664,0,0,1-2.09.466,4.335,4.335,0,0,1-3.377-1.361,5.386,5.386,0,0,1-1.237-3.76v-.175a5.325,5.325,0,0,1,1.227-3.682,4.284,4.284,0,0,1,3.368-1.375,4.2,4.2,0,0,1,3,1.066,3.774,3.774,0,0,1,1.149,2.838h-2.5a1.818,1.818,0,0,0-.48-1.26,1.788,1.788,0,0,0-2.625.194,3.926,3.926,0,0,0-.475,2.2v.277a3.975,3.975,0,0,0,.471,2.215A1.627,1.627,0,0,0,58.68,44.158Zm11.489,1.966a2.961,2.961,0,0,1-.268-.9,3.227,3.227,0,0,1-2.519,1.08,3.545,3.545,0,0,1-2.432-.849,2.73,2.73,0,0,1-.964-2.141,2.822,2.822,0,0,1,1.177-2.436,5.806,5.806,0,0,1,3.4-.858H69.79v-.572a1.645,1.645,0,0,0-.355-1.107,1.4,1.4,0,0,0-1.121-.415,1.589,1.589,0,0,0-1.057.323,1.1,1.1,0,0,0-.383.886H64.207a2.679,2.679,0,0,1,.535-1.606,3.538,3.538,0,0,1,1.513-1.158,5.515,5.515,0,0,1,2.2-.42,4.358,4.358,0,0,1,2.93.927,3.244,3.244,0,0,1,1.084,2.607v4.328a4.773,4.773,0,0,0,.4,2.15v.157Zm-2.205-1.855a2.3,2.3,0,0,0,1.089-.263,1.727,1.727,0,0,0,.738-.706V41.583h-1q-2,0-2.132,1.384l-.009.157a1.068,1.068,0,0,0,.351.821A1.362,1.362,0,0,0,67.963,44.269Zm9.366,1.855H74.653V31.949h2.676Zm7.6-2.759a.859.859,0,0,0-.484-.771,5.5,5.5,0,0,0-1.555-.5q-3.562-.747-3.562-3.027a2.743,2.743,0,0,1,1.1-2.219,4.448,4.448,0,0,1,2.884-.89,4.788,4.788,0,0,1,3.041.9,2.821,2.821,0,0,1,1.14,2.325H84.832a1.29,1.29,0,0,0-.369-.946,1.562,1.562,0,0,0-1.153-.374,1.6,1.6,0,0,0-1.043.3.961.961,0,0,0-.369.775.822.822,0,0,0,.42.715,4.319,4.319,0,0,0,1.416.471,11.569,11.569,0,0,1,1.679.448,2.759,2.759,0,0,1,2.113,2.685,2.6,2.6,0,0,1-1.172,2.21,5.055,5.055,0,0,1-3.027.844A5.28,5.28,0,0,1,81.1,45.86a3.739,3.739,0,0,1-1.527-1.227,2.852,2.852,0,0,1-.554-1.684h2.528a1.392,1.392,0,0,0,.526,1.089,2.086,2.086,0,0,0,1.31.378,1.931,1.931,0,0,0,1.158-.291A.9.9,0,0,0,84.933,43.364Z" transform="translate(46.334 2114.113)" fill="#fff"/><path d="M13.478,18.538a8.1,8.1,0,0,1-.609,3.271,5.616,5.616,0,0,1-1.689,2.229l2.233,1.753-1.763,1.56-2.861-2.3a6.055,6.055,0,0,1-1.015.083,5.59,5.59,0,0,1-2.981-.8,5.333,5.333,0,0,1-2.03-2.293,7.879,7.879,0,0,1-.729-3.428v-.664a8.068,8.068,0,0,1,.715-3.493,5.325,5.325,0,0,1,2.021-2.316,5.559,5.559,0,0,1,2.985-.807,5.559,5.559,0,0,1,2.985.807,5.325,5.325,0,0,1,2.021,2.316,8.045,8.045,0,0,1,.715,3.484Zm-2.805-.609a5.654,5.654,0,0,0-.757-3.211,2.466,2.466,0,0,0-2.159-1.1A2.467,2.467,0,0,0,5.607,14.7a5.589,5.589,0,0,0-.766,3.179v.655A5.725,5.725,0,0,0,5.6,21.731a2.459,2.459,0,0,0,2.178,1.135,2.437,2.437,0,0,0,2.141-1.094,5.692,5.692,0,0,0,.757-3.188Zm10.64,6.007a3.344,3.344,0,0,1-2.731,1.2,3.154,3.154,0,0,1-2.45-.923,3.939,3.939,0,0,1-.863-2.7V14.967h2.667v6.45q0,1.56,1.421,1.56a1.926,1.926,0,0,0,1.864-.941V14.967H23.9v9.985h-2.51Zm7.41,1.015H26.047V14.967h2.676ZM25.89,12.383a1.313,1.313,0,0,1,.4-.987,1.73,1.73,0,0,1,2.182,0,1.409,1.409,0,0,1,0,1.984,1.71,1.71,0,0,1-2.169,0A1.309,1.309,0,0,1,25.89,12.383Zm9.182,10.6a1.749,1.749,0,0,0,1.2-.406,1.423,1.423,0,0,0,.48-1.08h2.5a3.421,3.421,0,0,1-.554,1.859,3.653,3.653,0,0,1-1.49,1.31,4.664,4.664,0,0,1-2.09.466,4.335,4.335,0,0,1-3.377-1.361,5.386,5.386,0,0,1-1.237-3.76v-.175a5.325,5.325,0,0,1,1.227-3.682A4.284,4.284,0,0,1,35.1,14.782a4.2,4.2,0,0,1,3,1.066,3.774,3.774,0,0,1,1.149,2.838h-2.5a1.818,1.818,0,0,0-.48-1.26,1.788,1.788,0,0,0-2.625.194,3.926,3.926,0,0,0-.475,2.2V20.1a3.975,3.975,0,0,0,.471,2.215A1.627,1.627,0,0,0,35.071,22.986ZM44.4,20.946l-.96.96v3.045H40.774V10.777h2.667V18.63l.517-.664,2.556-3h3.2l-3.608,4.162,3.922,5.823H46.966Zm10.806.388a3.081,3.081,0,0,1,.521-1.726,7.24,7.24,0,0,1,1.915-1.763,9.4,9.4,0,0,1-.941-1.509,3.341,3.341,0,0,1-.341-1.472,3.434,3.434,0,0,1,.992-2.552,3.629,3.629,0,0,1,2.671-.983,3.485,3.485,0,0,1,2.468.9,2.921,2.921,0,0,1,.964,2.233,3.522,3.522,0,0,1-1.624,2.833L60.8,18.04l2.316,2.695a5.135,5.135,0,0,0,.544-2.362h2.27a6.932,6.932,0,0,1-1.209,4.245l2.012,2.335H63.705l-.692-.794a6.067,6.067,0,0,1-3.414.978,4.682,4.682,0,0,1-3.193-1.047A3.48,3.48,0,0,1,55.207,21.334Zm4.522,1.661a3.379,3.379,0,0,0,1.818-.535L58.9,19.4l-.194.138a2.114,2.114,0,0,0-.821,1.652,1.749,1.749,0,0,0,.512,1.306A1.822,1.822,0,0,0,59.728,22.995Zm-.978-8.167a3.149,3.149,0,0,0,.812,1.744l.711-.471a2.412,2.412,0,0,0,.752-.683,1.467,1.467,0,0,0,.208-.794,1.1,1.1,0,0,0-.341-.8,1.187,1.187,0,0,0-.877-.341,1.2,1.2,0,0,0-.918.369A1.372,1.372,0,0,0,58.75,14.828ZM73.413,24.951V16.923H71.928V14.967h1.486v-.849a3.447,3.447,0,0,1,.964-2.607,3.735,3.735,0,0,1,2.7-.927,6.234,6.234,0,0,1,1.356.185l-.028,2.067a3.4,3.4,0,0,0-.812-.083q-1.5,0-1.5,1.412v.8h1.984v1.956H76.089v8.028Zm11.655-7.484a7.245,7.245,0,0,0-.96-.074,1.953,1.953,0,0,0-1.984,1.024v6.533H79.457V14.967h2.519l.074,1.19a2.471,2.471,0,0,1,2.224-1.375,2.794,2.794,0,0,1,.83.12Zm4.1,7.484H86.489V14.967h2.676ZM86.332,12.383a1.313,1.313,0,0,1,.4-.987,1.73,1.73,0,0,1,2.182,0,1.409,1.409,0,0,1,0,1.984,1.71,1.71,0,0,1-2.169,0A1.309,1.309,0,0,1,86.332,12.383Zm9.625,12.753a4.9,4.9,0,0,1-3.576-1.347A4.789,4.789,0,0,1,91,20.2v-.258a6.032,6.032,0,0,1,.581-2.69,4.267,4.267,0,0,1,1.647-1.827,4.623,4.623,0,0,1,2.432-.641,4.144,4.144,0,0,1,3.225,1.292,5.25,5.25,0,0,1,1.177,3.663v1.089H93.705a2.477,2.477,0,0,0,.78,1.569,2.357,2.357,0,0,0,1.647.591,2.879,2.879,0,0,0,2.408-1.117l1.31,1.467a4,4,0,0,1-1.624,1.324A5.328,5.328,0,0,1,95.957,25.136Zm-.3-8.194a1.67,1.67,0,0,0-1.287.535,2.765,2.765,0,0,0-.632,1.532h3.71V18.8a1.971,1.971,0,0,0-.48-1.37A1.724,1.724,0,0,0,95.652,16.941Zm8.379-1.975.083,1.153a3.486,3.486,0,0,1,2.87-1.338,2.9,2.9,0,0,1,2.362.932,4.349,4.349,0,0,1,.794,2.787v6.45h-2.667V18.566a1.73,1.73,0,0,0-.369-1.232,1.652,1.652,0,0,0-1.227-.383,1.835,1.835,0,0,0-1.689.96v7.041h-2.667V14.967Zm7.714,4.918a6.017,6.017,0,0,1,1.047-3.719,3.4,3.4,0,0,1,2.865-1.384,3.058,3.058,0,0,1,2.408,1.089V10.777h2.676V24.951h-2.408l-.129-1.061a3.138,3.138,0,0,1-2.565,1.246,3.389,3.389,0,0,1-2.828-1.389A6.211,6.211,0,0,1,111.746,19.885Zm2.667.194a3.931,3.931,0,0,0,.489,2.15,1.594,1.594,0,0,0,1.421.747,1.785,1.785,0,0,0,1.744-1.043v-3.94a1.759,1.759,0,0,0-1.726-1.043Q114.413,16.951,114.413,20.079Zm11.212,4.872h-2.676V10.777h2.676Zm5.924-3.774,1.846-6.21h2.861L132.241,26.5l-.221.526a3.044,3.044,0,0,1-2.953,1.956,4.2,4.2,0,0,1-1.181-.175V26.788l.406.009a2.194,2.194,0,0,0,1.13-.231,1.515,1.515,0,0,0,.586-.766l.314-.821-3.5-10.012h2.87ZM7.692,41.091a.859.859,0,0,0-.484-.771,5.5,5.5,0,0,0-1.555-.5q-3.562-.747-3.562-3.027a2.743,2.743,0,0,1,1.1-2.219,4.448,4.448,0,0,1,2.884-.89,4.788,4.788,0,0,1,3.041.9,2.821,2.821,0,0,1,1.14,2.325H7.591a1.29,1.29,0,0,0-.369-.946,1.562,1.562,0,0,0-1.153-.374,1.6,1.6,0,0,0-1.043.3.961.961,0,0,0-.369.775.822.822,0,0,0,.42.715,4.319,4.319,0,0,0,1.416.471,11.569,11.569,0,0,1,1.679.448,2.759,2.759,0,0,1,2.113,2.685,2.6,2.6,0,0,1-1.172,2.21,5.055,5.055,0,0,1-3.027.844,5.28,5.28,0,0,1-2.229-.448A3.739,3.739,0,0,1,2.331,42.36a2.852,2.852,0,0,1-.554-1.684H4.306a1.392,1.392,0,0,0,.526,1.089,2.086,2.086,0,0,0,1.31.378A1.931,1.931,0,0,0,7.3,41.852.9.9,0,0,0,7.692,41.091Zm8.9,2.944a4.9,4.9,0,0,1-3.576-1.347,4.789,4.789,0,0,1-1.38-3.59v-.258a6.032,6.032,0,0,1,.581-2.69,4.267,4.267,0,0,1,1.647-1.827,4.623,4.623,0,0,1,2.432-.641,4.144,4.144,0,0,1,3.225,1.292A5.25,5.25,0,0,1,20.7,38.636v1.089H14.346a2.477,2.477,0,0,0,.78,1.569,2.357,2.357,0,0,0,1.647.591,2.879,2.879,0,0,0,2.408-1.117l1.31,1.467a4,4,0,0,1-1.624,1.324A5.328,5.328,0,0,1,16.6,44.034Zm-.3-8.194a1.67,1.67,0,0,0-1.287.535,2.765,2.765,0,0,0-.632,1.532h3.71v-.212a1.971,1.971,0,0,0-.48-1.37A1.724,1.724,0,0,0,16.293,35.84Zm11.535.526a7.245,7.245,0,0,0-.96-.074,1.953,1.953,0,0,0-1.984,1.024V43.85H22.217V33.865h2.519l.074,1.19a2.471,2.471,0,0,1,2.224-1.375,2.794,2.794,0,0,1,.831.12Zm5.186,4.226,1.855-6.727h2.787L34.287,43.85H31.74l-3.368-9.985h2.787Zm8.628,3.257H38.966V33.865h2.676ZM38.809,31.282a1.313,1.313,0,0,1,.4-.987,1.73,1.73,0,0,1,2.182,0,1.409,1.409,0,0,1,0,1.984,1.71,1.71,0,0,1-2.169,0A1.309,1.309,0,0,1,38.809,31.282Zm9.182,10.6a1.749,1.749,0,0,0,1.2-.406,1.423,1.423,0,0,0,.48-1.08h2.5a3.421,3.421,0,0,1-.554,1.859,3.653,3.653,0,0,1-1.49,1.31,4.664,4.664,0,0,1-2.09.466,4.335,4.335,0,0,1-3.377-1.361,5.386,5.386,0,0,1-1.237-3.76v-.175a5.325,5.325,0,0,1,1.227-3.682,4.284,4.284,0,0,1,3.368-1.375,4.2,4.2,0,0,1,3,1.066,3.774,3.774,0,0,1,1.149,2.838h-2.5a1.818,1.818,0,0,0-.48-1.26,1.788,1.788,0,0,0-2.625.194,3.926,3.926,0,0,0-.475,2.2V39a3.975,3.975,0,0,0,.471,2.215A1.627,1.627,0,0,0,47.99,41.884Zm10.3,2.15a4.9,4.9,0,0,1-3.576-1.347,4.789,4.789,0,0,1-1.38-3.59v-.258a6.032,6.032,0,0,1,.581-2.69,4.267,4.267,0,0,1,1.647-1.827,4.623,4.623,0,0,1,2.432-.641,4.144,4.144,0,0,1,3.225,1.292A5.25,5.25,0,0,1,62.4,38.636v1.089H56.037a2.477,2.477,0,0,0,.78,1.569,2.357,2.357,0,0,0,1.647.591,2.879,2.879,0,0,0,2.408-1.117l1.31,1.467a4,4,0,0,1-1.624,1.324A5.328,5.328,0,0,1,58.289,44.034Zm-.3-8.194a1.67,1.67,0,0,0-1.287.535,2.765,2.765,0,0,0-.632,1.532h3.71v-.212a1.971,1.971,0,0,0-.48-1.37A1.724,1.724,0,0,0,57.984,35.84Z" transform="translate(46.559 2242.595)" fill="#fff"/><path d="M6.37,11.988l3.451,9.745,3.433-9.745H16.89V25.424H14.112V21.751l.277-6.34L10.763,25.424h-1.9l-3.617-10,.277,6.33v3.673H2.753V11.988Zm12.347,8.351a5.921,5.921,0,0,1,.572-2.648,4.188,4.188,0,0,1,1.647-1.8,4.806,4.806,0,0,1,2.5-.637,4.547,4.547,0,0,1,3.3,1.237,4.963,4.963,0,0,1,1.426,3.359l.018.683a5.219,5.219,0,0,1-1.283,3.687,4.459,4.459,0,0,1-3.442,1.389A4.481,4.481,0,0,1,20,24.224a5.31,5.31,0,0,1-1.287-3.765Zm2.667.194a3.722,3.722,0,0,0,.535,2.173,1.925,1.925,0,0,0,3.045.009,4.073,4.073,0,0,0,.544-2.376,3.685,3.685,0,0,0-.544-2.159,1.771,1.771,0,0,0-1.532-.766,1.742,1.742,0,0,0-1.513.761A4.141,4.141,0,0,0,21.384,20.533Zm10.889-5.094.083,1.153a3.486,3.486,0,0,1,2.87-1.338,2.9,2.9,0,0,1,2.362.932,4.348,4.348,0,0,1,.794,2.787v6.45H35.715V19.038a1.73,1.73,0,0,0-.369-1.232,1.652,1.652,0,0,0-1.227-.383,1.835,1.835,0,0,0-1.689.96v7.041H29.763V15.439ZM45,25.609a4.9,4.9,0,0,1-3.576-1.347,4.789,4.789,0,0,1-1.38-3.59v-.258a6.032,6.032,0,0,1,.581-2.69A4.267,4.267,0,0,1,42.271,15.9a4.623,4.623,0,0,1,2.432-.641,4.144,4.144,0,0,1,3.225,1.292A5.25,5.25,0,0,1,49.1,20.21V21.3H42.746a2.477,2.477,0,0,0,.78,1.569,2.357,2.357,0,0,0,1.647.591,2.879,2.879,0,0,0,2.408-1.117l1.31,1.467a4,4,0,0,1-1.624,1.324A5.328,5.328,0,0,1,45,25.609Zm-.3-8.194a1.67,1.67,0,0,0-1.287.535,2.765,2.765,0,0,0-.632,1.532h3.71v-.212A1.971,1.971,0,0,0,46,17.9,1.724,1.724,0,0,0,44.693,17.414Zm9.532,4.236,1.846-6.21h2.861L54.918,26.974,54.7,27.5a3.044,3.044,0,0,1-2.953,1.956,4.2,4.2,0,0,1-1.181-.175V27.26l.406.009a2.194,2.194,0,0,0,1.13-.231,1.515,1.515,0,0,0,.586-.766L53,25.452,49.5,15.439h2.87Zm19.462-1.126a6.046,6.046,0,0,1-1.024,3.742A3.393,3.393,0,0,1,69.8,25.609a3.117,3.117,0,0,1-2.593-1.246l-.12,1.061h-2.4V11.25h2.667v5.085a3.037,3.037,0,0,1,2.427-1.08A3.421,3.421,0,0,1,72.649,16.6a6.055,6.055,0,0,1,1.038,3.779Zm-2.667-.194a3.972,3.972,0,0,0-.48-2.21,1.623,1.623,0,0,0-1.43-.7,1.759,1.759,0,0,0-1.753,1.043v3.94a1.783,1.783,0,0,0,1.772,1.052,1.646,1.646,0,0,0,1.7-1.273A6.569,6.569,0,0,0,71.021,20.33Zm10.1,5.094a2.961,2.961,0,0,1-.268-.9,3.227,3.227,0,0,1-2.519,1.08A3.545,3.545,0,0,1,75.9,24.76a2.73,2.73,0,0,1-.964-2.141,2.822,2.822,0,0,1,1.177-2.436,5.806,5.806,0,0,1,3.4-.858h1.227v-.572a1.645,1.645,0,0,0-.355-1.107,1.4,1.4,0,0,0-1.121-.415,1.589,1.589,0,0,0-1.057.323,1.1,1.1,0,0,0-.383.886H75.155a2.679,2.679,0,0,1,.535-1.606A3.538,3.538,0,0,1,77.2,15.675a5.515,5.515,0,0,1,2.2-.42,4.357,4.357,0,0,1,2.93.927,3.244,3.244,0,0,1,1.084,2.607v4.328a4.773,4.773,0,0,0,.4,2.15v.157ZM78.91,23.569A2.3,2.3,0,0,0,80,23.306a1.727,1.727,0,0,0,.738-.706V20.884h-1q-2,0-2.132,1.384l-.009.157a1.068,1.068,0,0,0,.351.821A1.362,1.362,0,0,0,78.91,23.569Zm10.7-.111a1.749,1.749,0,0,0,1.2-.406,1.423,1.423,0,0,0,.48-1.08h2.5a3.421,3.421,0,0,1-.554,1.859,3.653,3.653,0,0,1-1.49,1.31,4.664,4.664,0,0,1-2.09.466,4.335,4.335,0,0,1-3.377-1.361,5.386,5.386,0,0,1-1.237-3.76v-.175a5.325,5.325,0,0,1,1.227-3.682,4.284,4.284,0,0,1,3.368-1.375,4.2,4.2,0,0,1,3,1.066,3.774,3.774,0,0,1,1.149,2.838h-2.5a1.818,1.818,0,0,0-.48-1.26,1.788,1.788,0,0,0-2.625.194,3.926,3.926,0,0,0-.475,2.2v.277a3.976,3.976,0,0,0,.471,2.215A1.627,1.627,0,0,0,89.615,23.458Zm9.329-2.039-.96.96v3.045H95.317V11.25h2.667V19.1l.517-.664,2.556-3h3.2L100.651,19.6l3.922,5.823h-3.064ZM2.19,39.257a5.852,5.852,0,0,1,1.094-3.7,3.543,3.543,0,0,1,2.948-1.4,3.107,3.107,0,0,1,2.556,1.126l.111-.941h2.418V43.99a4.267,4.267,0,0,1-.6,2.279,3.823,3.823,0,0,1-1.675,1.476,5.888,5.888,0,0,1-2.528.508,5.475,5.475,0,0,1-2.141-.438A3.8,3.8,0,0,1,2.8,46.685L3.98,45.061A3.124,3.124,0,0,0,6.4,46.177,2.286,2.286,0,0,0,8.05,45.61,2.129,2.129,0,0,0,8.64,44v-.535a3.085,3.085,0,0,1-2.427,1.043A3.534,3.534,0,0,1,3.3,43.1,5.85,5.85,0,0,1,2.19,39.367Zm2.667.194A3.634,3.634,0,0,0,5.4,41.577a1.733,1.733,0,0,0,1.495.771,1.853,1.853,0,0,0,1.744-.914v-4.2a1.848,1.848,0,0,0-1.726-.914,1.744,1.744,0,0,0-1.509.784A4.1,4.1,0,0,0,4.857,39.45Zm14.488,3.857a3.344,3.344,0,0,1-2.731,1.2,3.154,3.154,0,0,1-2.45-.923,3.939,3.939,0,0,1-.863-2.7V34.338h2.667v6.45q0,1.56,1.421,1.56a1.926,1.926,0,0,0,1.864-.941V34.338h2.676v9.985h-2.51Zm10.381,1.015a2.961,2.961,0,0,1-.268-.9,3.227,3.227,0,0,1-2.519,1.08,3.545,3.545,0,0,1-2.432-.849,2.73,2.73,0,0,1-.964-2.141,2.822,2.822,0,0,1,1.177-2.436,5.806,5.806,0,0,1,3.4-.858h1.227v-.572a1.645,1.645,0,0,0-.355-1.107,1.4,1.4,0,0,0-1.121-.415,1.589,1.589,0,0,0-1.057.323,1.1,1.1,0,0,0-.383.886H23.765a2.679,2.679,0,0,1,.535-1.606,3.538,3.538,0,0,1,1.513-1.158,5.515,5.515,0,0,1,2.2-.42,4.358,4.358,0,0,1,2.93.927,3.244,3.244,0,0,1,1.084,2.607v4.328a4.773,4.773,0,0,0,.4,2.15v.157ZM27.52,42.468a2.3,2.3,0,0,0,1.089-.263,1.727,1.727,0,0,0,.738-.706V39.783h-1q-2,0-2.132,1.384l-.009.157a1.068,1.068,0,0,0,.351.821A1.362,1.362,0,0,0,27.52,42.468Zm12.162-5.629a7.245,7.245,0,0,0-.96-.074,1.953,1.953,0,0,0-1.984,1.024v6.533H34.072V34.338h2.519l.074,1.19a2.471,2.471,0,0,1,2.224-1.375,2.8,2.8,0,0,1,.831.12Zm6.792,7.484a2.962,2.962,0,0,1-.268-.9,3.227,3.227,0,0,1-2.519,1.08,3.545,3.545,0,0,1-2.432-.849,2.73,2.73,0,0,1-.964-2.141,2.822,2.822,0,0,1,1.177-2.436,5.806,5.806,0,0,1,3.4-.858H46.1v-.572a1.645,1.645,0,0,0-.355-1.107,1.4,1.4,0,0,0-1.121-.415,1.589,1.589,0,0,0-1.057.323,1.1,1.1,0,0,0-.383.886H40.513a2.679,2.679,0,0,1,.535-1.606,3.538,3.538,0,0,1,1.513-1.158,5.515,5.515,0,0,1,2.2-.42,4.357,4.357,0,0,1,2.93.927,3.244,3.244,0,0,1,1.084,2.607v4.328a4.773,4.773,0,0,0,.4,2.15v.157Zm-2.205-1.855a2.3,2.3,0,0,0,1.089-.263A1.727,1.727,0,0,0,46.1,41.5V39.783h-1q-2,0-2.132,1.384l-.009.157a1.068,1.068,0,0,0,.351.821A1.362,1.362,0,0,0,44.269,42.468Zm9.006-8.13.083,1.153a3.486,3.486,0,0,1,2.87-1.338,2.9,2.9,0,0,1,2.362.932,4.348,4.348,0,0,1,.794,2.787v6.45H56.717V37.937a1.73,1.73,0,0,0-.369-1.232,1.652,1.652,0,0,0-1.227-.383,1.835,1.835,0,0,0-1.689.96v7.041H50.765V34.338ZM64.6,31.883v2.455h1.707v1.956H64.6v4.983a1.19,1.19,0,0,0,.212.794,1.066,1.066,0,0,0,.812.24,4.253,4.253,0,0,0,.784-.065v2.021a5.49,5.49,0,0,1-1.615.24,2.546,2.546,0,0,1-2.861-2.833v-5.38H60.473V34.338h1.458V31.883Zm7.788,12.624A4.9,4.9,0,0,1,68.81,43.16a4.789,4.789,0,0,1-1.38-3.59v-.258a6.032,6.032,0,0,1,.581-2.69,4.266,4.266,0,0,1,1.647-1.827,4.623,4.623,0,0,1,2.432-.641,4.144,4.144,0,0,1,3.225,1.292,5.25,5.25,0,0,1,1.177,3.663V40.2H70.135a2.477,2.477,0,0,0,.78,1.569,2.357,2.357,0,0,0,1.647.591,2.879,2.879,0,0,0,2.408-1.117l1.31,1.467a4,4,0,0,1-1.624,1.324A5.328,5.328,0,0,1,72.386,44.507Zm-.3-8.194a1.67,1.67,0,0,0-1.287.535,2.765,2.765,0,0,0-.632,1.532h3.71v-.212a1.971,1.971,0,0,0-.48-1.37A1.724,1.724,0,0,0,72.082,36.313ZM82.6,44.507a4.9,4.9,0,0,1-3.576-1.347,4.789,4.789,0,0,1-1.38-3.59v-.258a6.032,6.032,0,0,1,.581-2.69,4.267,4.267,0,0,1,1.647-1.827,4.623,4.623,0,0,1,2.432-.641,4.144,4.144,0,0,1,3.225,1.292,5.25,5.25,0,0,1,1.177,3.663V40.2H80.35a2.477,2.477,0,0,0,.78,1.569,2.357,2.357,0,0,0,1.647.591,2.879,2.879,0,0,0,2.408-1.117l1.31,1.467a4,4,0,0,1-1.624,1.324A5.328,5.328,0,0,1,82.6,44.507Zm-.3-8.194a1.67,1.67,0,0,0-1.287.535,2.765,2.765,0,0,0-.632,1.532h3.71v-.212a1.971,1.971,0,0,0-.48-1.37A1.724,1.724,0,0,0,82.3,36.313Z" transform="translate(46.304 2311.454)" fill="#fff"/><path d="M58.587,10.793H55.421V19.4h-2.13v-8.61H50.168V9.068h8.419Zm4.933,2.854a5.573,5.573,0,0,0-.738-.057,1.5,1.5,0,0,0-1.526.788V19.4H59.2v-7.68h1.938l.057.916a1.9,1.9,0,0,1,1.711-1.058,2.15,2.15,0,0,1,.639.092ZM68.745,19.4a2.278,2.278,0,0,1-.206-.689,2.482,2.482,0,0,1-1.938.831,2.727,2.727,0,0,1-1.87-.653,2.1,2.1,0,0,1-.742-1.647,2.17,2.17,0,0,1,.905-1.874,4.466,4.466,0,0,1,2.616-.66h.944v-.44a1.266,1.266,0,0,0-.273-.852,1.075,1.075,0,0,0-.862-.319,1.222,1.222,0,0,0-.813.248.844.844,0,0,0-.295.681H64.159a2.061,2.061,0,0,1,.412-1.235,2.721,2.721,0,0,1,1.164-.891,4.243,4.243,0,0,1,1.689-.323,3.352,3.352,0,0,1,2.254.713,2.5,2.5,0,0,1,.834,2.005v3.329a3.672,3.672,0,0,0,.305,1.654V19.4Zm-1.7-1.427a1.767,1.767,0,0,0,.838-.2,1.329,1.329,0,0,0,.568-.543v-1.32h-.767q-1.54,0-1.64,1.065l-.007.121a.821.821,0,0,0,.27.632A1.048,1.048,0,0,0,67.048,17.976Zm4.72-2.47a4.629,4.629,0,0,1,.806-2.861,2.614,2.614,0,0,1,2.2-1.065,2.352,2.352,0,0,1,1.853.838V8.5H78.69V19.4H76.837l-.1-.816a2.414,2.414,0,0,1-1.973.958,2.607,2.607,0,0,1-2.176-1.068A4.778,4.778,0,0,1,71.769,15.506Zm2.051.149a3.024,3.024,0,0,0,.376,1.654,1.226,1.226,0,0,0,1.093.575,1.373,1.373,0,0,0,1.342-.8V14.051a1.353,1.353,0,0,0-1.327-.8Q73.82,13.249,73.82,15.655ZM82.445,19.4H80.386v-7.68h2.059ZM80.265,9.735a1.01,1.01,0,0,1,.309-.76,1.331,1.331,0,0,1,1.679,0,1.084,1.084,0,0,1,0,1.526,1.316,1.316,0,0,1-1.668,0A1.007,1.007,0,0,1,80.265,9.735Zm6.325.1v1.888H87.9v1.5H86.59v3.833a.915.915,0,0,0,.163.61.82.82,0,0,0,.625.185,3.271,3.271,0,0,0,.6-.05V19.36a4.223,4.223,0,0,1-1.242.185,1.959,1.959,0,0,1-2.2-2.179V13.228H83.417v-1.5h1.122V9.834ZM91.211,19.4H89.152v-7.68h2.059ZM89.032,9.735a1.01,1.01,0,0,1,.309-.76,1.331,1.331,0,0,1,1.679,0,1.084,1.084,0,0,1,0,1.526,1.316,1.316,0,0,1-1.668,0A1.007,1.007,0,0,1,89.032,9.735Zm3.549,5.757a4.555,4.555,0,0,1,.44-2.037,3.222,3.222,0,0,1,1.267-1.384,3.7,3.7,0,0,1,1.92-.49,3.5,3.5,0,0,1,2.538.951,3.817,3.817,0,0,1,1.1,2.584l.014.525a4.014,4.014,0,0,1-.987,2.836,3.824,3.824,0,0,1-5.3,0,4.085,4.085,0,0,1-.99-2.9Zm2.051.149a2.863,2.863,0,0,0,.412,1.672,1.48,1.48,0,0,0,2.342.007,3.133,3.133,0,0,0,.419-1.828,2.835,2.835,0,0,0-.419-1.661,1.362,1.362,0,0,0-1.178-.589,1.34,1.34,0,0,0-1.164.586A3.186,3.186,0,0,0,94.632,15.641Zm8.376-3.918.064.887a2.682,2.682,0,0,1,2.208-1.029,2.228,2.228,0,0,1,1.817.717,3.345,3.345,0,0,1,.61,2.144V19.4h-2.051V14.491a1.331,1.331,0,0,0-.284-.948,1.271,1.271,0,0,0-.944-.295,1.411,1.411,0,0,0-1.3.738V19.4h-2.051v-7.68Zm10.7,7.68a2.277,2.277,0,0,1-.206-.689,2.482,2.482,0,0,1-1.938.831,2.727,2.727,0,0,1-1.87-.653,2.1,2.1,0,0,1-.742-1.647,2.17,2.17,0,0,1,.905-1.874,4.466,4.466,0,0,1,2.616-.66h.944v-.44a1.266,1.266,0,0,0-.273-.852,1.075,1.075,0,0,0-.862-.319,1.222,1.222,0,0,0-.813.248.844.844,0,0,0-.295.681h-2.051a2.061,2.061,0,0,1,.412-1.235A2.721,2.721,0,0,1,110.7,11.9a4.243,4.243,0,0,1,1.689-.323,3.352,3.352,0,0,1,2.254.713,2.5,2.5,0,0,1,.834,2.005v3.329a3.672,3.672,0,0,0,.305,1.654V19.4Zm-1.7-1.427a1.767,1.767,0,0,0,.838-.2,1.329,1.329,0,0,0,.568-.543v-1.32h-.767q-1.54,0-1.64,1.065l-.007.121a.821.821,0,0,0,.27.632A1.048,1.048,0,0,0,112.016,17.976Zm7.2,1.427h-2.059V8.5h2.059ZM62.736,35.59a1.093,1.093,0,0,0-.426-.926,5.586,5.586,0,0,0-1.533-.681,10.869,10.869,0,0,1-1.753-.706,2.865,2.865,0,0,1-1.76-2.563,2.5,2.5,0,0,1,.472-1.494,3.079,3.079,0,0,1,1.356-1.026,5.1,5.1,0,0,1,1.984-.369,4.645,4.645,0,0,1,1.973.4,3.142,3.142,0,0,1,1.345,1.132,2.963,2.963,0,0,1,.479,1.661h-2.13a1.394,1.394,0,0,0-.447-1.1,1.838,1.838,0,0,0-1.256-.394,1.964,1.964,0,0,0-1.214.33,1.041,1.041,0,0,0-.433.87,1,1,0,0,0,.508.845,5.734,5.734,0,0,0,1.494.639,6.456,6.456,0,0,1,2.648,1.356,2.7,2.7,0,0,1,.83,2.016,2.487,2.487,0,0,1-1.015,2.1,4.444,4.444,0,0,1-2.733.763,5.277,5.277,0,0,1-2.172-.437,3.437,3.437,0,0,1-1.494-1.2,3.063,3.063,0,0,1-.515-1.76H59.08q0,1.711,2.044,1.711a1.989,1.989,0,0,0,1.185-.309A1,1,0,0,0,62.736,35.59Zm6.232-.369-.738.738V38.3H66.179V27.4H68.23v6.041l.4-.511,1.966-2.307h2.463l-2.775,3.2L73.3,38.3H70.942ZM76.109,38.3H74.051v-7.68h2.059ZM73.93,28.634a1.01,1.01,0,0,1,.309-.76,1.331,1.331,0,0,1,1.679,0,1.084,1.084,0,0,1,0,1.526,1.316,1.316,0,0,1-1.668,0A1.007,1.007,0,0,1,73.93,28.634Zm5.757,1.988.064.887a2.682,2.682,0,0,1,2.208-1.029,2.229,2.229,0,0,1,1.817.717,3.345,3.345,0,0,1,.61,2.144V38.3H82.335V33.39a1.331,1.331,0,0,0-.284-.948,1.271,1.271,0,0,0-.944-.295,1.411,1.411,0,0,0-1.3.738V38.3H77.756v-7.68Zm9.448,6.168a1.346,1.346,0,0,0,.923-.312,1.094,1.094,0,0,0,.369-.831H92.35a2.632,2.632,0,0,1-.426,1.43,2.81,2.81,0,0,1-1.146,1.008,3.588,3.588,0,0,1-1.608.358,3.334,3.334,0,0,1-2.6-1.047,4.143,4.143,0,0,1-.951-2.893v-.135a4.1,4.1,0,0,1,.944-2.832,3.3,3.3,0,0,1,2.591-1.058,3.23,3.23,0,0,1,2.311.82,2.9,2.9,0,0,1,.884,2.183H90.427a1.4,1.4,0,0,0-.369-.969,1.375,1.375,0,0,0-2.019.149,3.02,3.02,0,0,0-.366,1.693v.213a3.058,3.058,0,0,0,.362,1.7A1.252,1.252,0,0,0,89.135,36.79ZM97.972,38.3a2.278,2.278,0,0,1-.206-.689,2.482,2.482,0,0,1-1.938.831,2.727,2.727,0,0,1-1.87-.653,2.1,2.1,0,0,1-.742-1.647,2.17,2.17,0,0,1,.905-1.874,4.466,4.466,0,0,1,2.616-.66h.944v-.44a1.266,1.266,0,0,0-.273-.852A1.075,1.075,0,0,0,96.545,32a1.222,1.222,0,0,0-.813.248.844.844,0,0,0-.295.681H93.387a2.061,2.061,0,0,1,.412-1.235,2.721,2.721,0,0,1,1.164-.891,4.243,4.243,0,0,1,1.689-.323,3.352,3.352,0,0,1,2.254.713A2.5,2.5,0,0,1,99.74,33.2v3.329a3.672,3.672,0,0,0,.305,1.654V38.3Zm-1.7-1.427a1.767,1.767,0,0,0,.838-.2,1.329,1.329,0,0,0,.568-.543v-1.32h-.767q-1.54,0-1.64,1.065l-.007.121a.821.821,0,0,0,.27.632A1.048,1.048,0,0,0,96.276,36.875Zm9.356-4.33a5.573,5.573,0,0,0-.738-.057,1.5,1.5,0,0,0-1.526.788V38.3h-2.051v-7.68h1.938l.057.916a1.9,1.9,0,0,1,1.711-1.058,2.15,2.15,0,0,1,.639.092Zm4.387,5.9a3.77,3.77,0,0,1-2.751-1.036,3.684,3.684,0,0,1-1.061-2.761v-.2a4.64,4.64,0,0,1,.447-2.069,3.282,3.282,0,0,1,1.267-1.405,3.556,3.556,0,0,1,1.87-.493,3.187,3.187,0,0,1,2.481.994,4.038,4.038,0,0,1,.905,2.818v.838h-4.891a1.906,1.906,0,0,0,.6,1.207,1.813,1.813,0,0,0,1.267.454,2.214,2.214,0,0,0,1.853-.859l1.008,1.129a3.08,3.08,0,0,1-1.249,1.019A4.1,4.1,0,0,1,110.018,38.444Zm-.234-6.3a1.285,1.285,0,0,0-.99.412,2.127,2.127,0,0,0-.486,1.178h2.854v-.163a1.516,1.516,0,0,0-.369-1.054A1.326,1.326,0,0,0,109.784,32.14Z" transform="translate(271.424 2002.408)"/><path d="M395.874-.628H0V-1.5H395.874Z" transform="translate(17.126 2114.507)" fill="#fff"/><path d="M395.874-.628H0V-1.5H395.874Z" transform="translate(17.126 2175.217)" fill="#fff"/><path d="M395.874-.628H0V-1.5H395.874Z" transform="translate(17.126 2235.928)" fill="#fff"/><path d="M395.874-.628H0V-1.5H395.874Z" transform="translate(17.126 2304.329)" fill="#fff"/><g transform="translate(341.964 2067.244)"><path d="M14.464,1.454a13.014,13.014,0,0,0-5.064,25A13.014,13.014,0,0,0,19.527,2.476a12.927,12.927,0,0,0-5.064-1.022m0-1.454A14.464,14.464,0,1,1,0,14.464,14.464,14.464,0,0,1,14.464,0Z" fill="#fff"/><g transform="translate(7.164 7.164)"><path d="M-1.48,11.064-3.536,9.008,9.008-3.536,11.064-1.48Z" transform="translate(3.536 3.536)" fill="#fff"/><path d="M9.008,11.064-3.536-1.48-1.48-3.536,11.064,9.008Z" transform="translate(3.536 3.536)" fill="#fff"/></g></g><g transform="translate(249.644 2067.244)"><path d="M14.464,1.454a13.014,13.014,0,0,0-5.064,25A13.014,13.014,0,0,0,19.527,2.476a12.927,12.927,0,0,0-5.064-1.022m0-1.454A14.464,14.464,0,1,1,0,14.464,14.464,14.464,0,0,1,14.464,0Z" transform="translate(0)" fill="#a394b4"/><path d="M12939.26-2624.624c-.033,0-.064,0-.1,0a1.164,1.164,0,0,1-.861-.5l-2.082-3.006a1.163,1.163,0,0,1,.294-1.618,1.162,1.162,0,0,1,1.618.293l1.275,1.842,8.744-9.035a1.163,1.163,0,0,1,1.645-.027,1.164,1.164,0,0,1,.027,1.644l-9.73,10.053A1.16,1.16,0,0,1,12939.26-2624.624Z" transform="translate(-12929.658 2645.276)" fill="#a394b4"/></g><g transform="translate(249.644 2127.955)"><path d="M14.464,1.454a13.014,13.014,0,0,0-5.064,25A13.014,13.014,0,0,0,19.527,2.476a12.927,12.927,0,0,0-5.064-1.022m0-1.454A14.464,14.464,0,1,1,0,14.464,14.464,14.464,0,0,1,14.464,0Z" transform="translate(0)" fill="#a394b4"/><path d="M12939.26-2624.624c-.033,0-.064,0-.1,0a1.164,1.164,0,0,1-.861-.5l-2.082-3.006a1.163,1.163,0,0,1,.294-1.618,1.162,1.162,0,0,1,1.618.293l1.275,1.842,8.744-9.035a1.163,1.163,0,0,1,1.645-.027,1.164,1.164,0,0,1,.027,1.644l-9.73,10.053A1.16,1.16,0,0,1,12939.26-2624.624Z" transform="translate(-12929.658 2645.276)" fill="#a394b4"/></g><g transform="translate(249.644 2191.425)"><path d="M14.464,1.454a13.014,13.014,0,0,0-5.064,25A13.014,13.014,0,0,0,19.527,2.476a12.927,12.927,0,0,0-5.064-1.022m0-1.454A14.464,14.464,0,1,1,0,14.464,14.464,14.464,0,0,1,14.464,0Z" transform="translate(0)" fill="#a394b4"/><path d="M12939.26-2624.624c-.033,0-.064,0-.1,0a1.164,1.164,0,0,1-.861-.5l-2.082-3.006a1.163,1.163,0,0,1,.294-1.618,1.162,1.162,0,0,1,1.618.293l1.275,1.842,8.744-9.035a1.163,1.163,0,0,1,1.645-.027,1.164,1.164,0,0,1,.027,1.644l-9.73,10.053A1.16,1.16,0,0,1,12939.26-2624.624Z" transform="translate(-12929.658 2645.276)" fill="#a394b4"/></g><g transform="translate(249.644 2257.066)"><path d="M14.464,1.454a13.014,13.014,0,0,0-5.064,25A13.014,13.014,0,0,0,19.527,2.476a12.927,12.927,0,0,0-5.064-1.022m0-1.454A14.464,14.464,0,1,1,0,14.464,14.464,14.464,0,0,1,14.464,0Z" transform="translate(0)" fill="#a394b4"/><path d="M12939.26-2624.624c-.033,0-.064,0-.1,0a1.164,1.164,0,0,1-.861-.5l-2.082-3.006a1.163,1.163,0,0,1,.294-1.618,1.162,1.162,0,0,1,1.618.293l1.275,1.842,8.744-9.035a1.163,1.163,0,0,1,1.645-.027,1.164,1.164,0,0,1,.027,1.644l-9.73,10.053A1.16,1.16,0,0,1,12939.26-2624.624Z" transform="translate(-12929.658 2645.276)" fill="#a394b4"/></g><g transform="translate(249.644 2325.467)"><path d="M14.464,1.454a13.014,13.014,0,0,0-5.064,25A13.014,13.014,0,0,0,19.527,2.476a12.927,12.927,0,0,0-5.064-1.022m0-1.454A14.464,14.464,0,1,1,0,14.464,14.464,14.464,0,0,1,14.464,0Z" transform="translate(0)" fill="#a394b4"/><path d="M12939.26-2624.624c-.033,0-.064,0-.1,0a1.164,1.164,0,0,1-.861-.5l-2.082-3.006a1.163,1.163,0,0,1,.294-1.618,1.162,1.162,0,0,1,1.618.293l1.275,1.842,8.744-9.035a1.163,1.163,0,0,1,1.645-.027,1.164,1.164,0,0,1,.027,1.644l-9.73,10.053A1.16,1.16,0,0,1,12939.26-2624.624Z" transform="translate(-12929.658 2645.276)" fill="#a394b4"/></g><g transform="translate(341.964 2127.955)"><path d="M14.464,1.454a13.014,13.014,0,0,0-5.064,25A13.014,13.014,0,0,0,19.527,2.476a12.927,12.927,0,0,0-5.064-1.022m0-1.454A14.464,14.464,0,1,1,0,14.464,14.464,14.464,0,0,1,14.464,0Z" transform="translate(0 0)" fill="#fff"/><g transform="translate(7.164 7.164)"><path d="M-1.48,11.064-3.536,9.008,9.008-3.536,11.064-1.48Z" transform="translate(3.536 3.536)" fill="#fff"/><path d="M9.008,11.064-3.536-1.48-1.48-3.536,11.064,9.008Z" transform="translate(3.536 3.536)" fill="#fff"/></g></g><g transform="translate(341.964 2188.665)"><path d="M14.464,1.454a13.014,13.014,0,0,0-5.064,25A13.014,13.014,0,0,0,19.527,2.476a12.927,12.927,0,0,0-5.064-1.022m0-1.454A14.464,14.464,0,1,1,0,14.464,14.464,14.464,0,0,1,14.464,0Z" fill="#fff"/><g transform="translate(7.164 7.164)"><path d="M-1.48,11.064-3.536,9.008,9.008-3.536,11.064-1.48Z" transform="translate(3.536 3.536)" fill="#fff"/><path d="M9.008,11.064-3.536-1.48-1.48-3.536,11.064,9.008Z" transform="translate(3.536 3.536)" fill="#fff"/></g></g><g transform="translate(341.964 2257.066)"><path d="M14.464,1.454a13.014,13.014,0,0,0-5.064,25A13.014,13.014,0,0,0,19.527,2.476a12.927,12.927,0,0,0-5.064-1.022m0-1.454A14.464,14.464,0,1,1,0,14.464,14.464,14.464,0,0,1,14.464,0Z" fill="#fff"/><g transform="translate(7.164 7.164)"><path d="M-1.48,11.064-3.536,9.008,9.008-3.536,11.064-1.48Z" transform="translate(3.536 3.536)" fill="#fff"/><path d="M9.008,11.064-3.536-1.48-1.48-3.536,11.064,9.008Z" transform="translate(3.536 3.536)" fill="#fff"/></g></g><g transform="translate(341.964 2325.467)"><path d="M14.464,1.454a13.014,13.014,0,0,0-5.064,25A13.014,13.014,0,0,0,19.527,2.476a12.927,12.927,0,0,0-5.064-1.022m0-1.454A14.464,14.464,0,1,1,0,14.464,14.464,14.464,0,0,1,14.464,0Z" transform="translate(0 0)" fill="#fff"/><g transform="translate(7.164 7.164)"><path d="M-1.48,11.064-3.536,9.008,9.008-3.536,11.064-1.48Z" transform="translate(3.536 3.536)" fill="#fff"/><path d="M9.008,11.064-3.536-1.48-1.48-3.536,11.064,9.008Z" transform="translate(3.536 3.536)" fill="#fff"/></g></g><path d="M-61.9-2.637h-4.623L-67.4,0h-2.8l4.764-12.8H-63L-58.21,0h-2.8Zm-3.911-2.136h3.2l-1.608-4.79ZM-56.487,0V-7.646H-57.9V-9.51h1.415v-.809a3.283,3.283,0,0,1,.918-2.483A3.557,3.557,0,0,1-53-13.685a5.938,5.938,0,0,1,1.292.176l-.026,1.969a3.238,3.238,0,0,0-.773-.079q-1.433,0-1.433,1.345v.765h1.89v1.863h-1.89V0Zm6.451,0V-7.646h-1.415V-9.51h1.415v-.809a3.283,3.283,0,0,1,.918-2.483,3.557,3.557,0,0,1,2.571-.883,5.938,5.938,0,0,1,1.292.176l-.026,1.969a3.238,3.238,0,0,0-.773-.079q-1.433,0-1.433,1.345v.765h1.89v1.863h-1.89V0Zm5.361-4.843a5.64,5.64,0,0,1,.545-2.522,3.989,3.989,0,0,1,1.569-1.714,4.577,4.577,0,0,1,2.377-.606,4.33,4.33,0,0,1,3.142,1.178,4.727,4.727,0,0,1,1.358,3.2l.018.65a4.97,4.97,0,0,1-1.222,3.511A4.247,4.247,0,0,1-40.166.176a4.268,4.268,0,0,1-3.283-1.318,5.058,5.058,0,0,1-1.226-3.586Zm2.54.185a3.545,3.545,0,0,0,.51,2.07,1.682,1.682,0,0,0,1.459.716,1.686,1.686,0,0,0,1.441-.708,3.879,3.879,0,0,0,.519-2.263A3.51,3.51,0,0,0-38.725-6.9a1.686,1.686,0,0,0-1.459-.729,1.659,1.659,0,0,0-1.441.725A3.944,3.944,0,0,0-42.135-4.658Zm13.377-2.47a6.9,6.9,0,0,0-.914-.07,1.86,1.86,0,0,0-1.89.976V0H-34.1V-9.51h2.4l.07,1.134a2.354,2.354,0,0,1,2.118-1.31,2.662,2.662,0,0,1,.791.114Zm.659,2.3a5.731,5.731,0,0,1,1-3.542,3.237,3.237,0,0,1,2.729-1.318,2.913,2.913,0,0,1,2.294,1.037V-13.5h2.549V0h-2.294l-.123-1.011A2.989,2.989,0,0,1-24.39.176a3.228,3.228,0,0,1-2.694-1.323A5.916,5.916,0,0,1-28.1-4.825Zm2.54.185a3.744,3.744,0,0,0,.466,2.048,1.518,1.518,0,0,0,1.354.712,1.7,1.7,0,0,0,1.661-.993V-6.627a1.676,1.676,0,0,0-1.644-.993Q-25.559-7.62-25.559-4.641ZM-12.05,0A2.821,2.821,0,0,1-12.3-.853,3.073,3.073,0,0,1-14.7.176,3.376,3.376,0,0,1-17.02-.633a2.6,2.6,0,0,1-.918-2.039,2.687,2.687,0,0,1,1.121-2.32,5.529,5.529,0,0,1,3.239-.817h1.169v-.545a1.567,1.567,0,0,0-.338-1.055,1.331,1.331,0,0,0-1.068-.4,1.513,1.513,0,0,0-1.006.308,1.045,1.045,0,0,0-.365.844h-2.54a2.551,2.551,0,0,1,.51-1.529,3.37,3.37,0,0,1,1.441-1.1,5.253,5.253,0,0,1,2.092-.4,4.15,4.15,0,0,1,2.791.883A3.09,3.09,0,0,1-9.861-6.319V-2.2A4.546,4.546,0,0,0-9.483-.149V0Zm-2.1-1.767a2.188,2.188,0,0,0,1.037-.25,1.645,1.645,0,0,0,.7-.672V-4.324h-.949q-1.907,0-2.03,1.318l-.009.149a1.017,1.017,0,0,0,.334.782A1.3,1.3,0,0,0-14.15-1.767Zm14.81-2.9A5.758,5.758,0,0,1-.316-1.1,3.231,3.231,0,0,1-3.041.176a2.969,2.969,0,0,1-2.47-1.187L-5.625,0H-7.91V-13.5h2.54v4.843A2.893,2.893,0,0,1-3.059-9.686,3.258,3.258,0,0,1-.33-8.407a5.767,5.767,0,0,1,.989,3.6Zm-2.54-.185a3.783,3.783,0,0,0-.457-2.1A1.545,1.545,0,0,0-3.7-7.62a1.676,1.676,0,0,0-1.67.993v3.753a1.7,1.7,0,0,0,1.688,1A1.568,1.568,0,0,0-2.065-3.085,6.257,6.257,0,0,0-1.881-4.852ZM4.9,0H2.355V-13.5H4.9Zm5.643-3.595L12.3-9.51h2.725L11.206,1.477l-.211.5A2.9,2.9,0,0,1,8.183,3.841a4,4,0,0,1-1.125-.167V1.749l.387.009a2.09,2.09,0,0,0,1.077-.22A1.443,1.443,0,0,0,9.079.809l.3-.782L6.047-9.51H8.78ZM29.074-4.667a5.7,5.7,0,0,1-1,3.52A3.2,3.2,0,0,1,25.383.176a2.963,2.963,0,0,1-2.329-1V3.656h-2.54V-9.51h2.355l.088.932a2.985,2.985,0,0,1,2.408-1.107,3.22,3.22,0,0,1,2.733,1.3A5.858,5.858,0,0,1,29.074-4.8Zm-2.54-.185a3.743,3.743,0,0,0-.47-2.048A1.532,1.532,0,0,0,24.7-7.62a1.663,1.663,0,0,0-1.644.914v3.894a1.692,1.692,0,0,0,1.661.94Q26.534-1.872,26.534-4.852Zm9.457-2.276a6.9,6.9,0,0,0-.914-.07,1.86,1.86,0,0,0-1.89.976V0h-2.54V-9.51h2.4l.07,1.134a2.354,2.354,0,0,1,2.118-1.31,2.662,2.662,0,0,1,.791.114ZM39.894,0H37.345V-9.51h2.549ZM37.2-11.971a1.251,1.251,0,0,1,.382-.94,1.436,1.436,0,0,1,1.042-.369,1.44,1.44,0,0,1,1.037.369,1.244,1.244,0,0,1,.387.94,1.247,1.247,0,0,1-.391.949,1.443,1.443,0,0,1-1.033.369,1.443,1.443,0,0,1-1.033-.369A1.247,1.247,0,0,1,37.2-11.971Zm8.745,10.1a1.666,1.666,0,0,0,1.143-.387,1.355,1.355,0,0,0,.457-1.028h2.382a3.258,3.258,0,0,1-.527,1.771A3.48,3.48,0,0,1,47.975-.268a4.442,4.442,0,0,1-1.991.444,4.129,4.129,0,0,1-3.217-1.3A5.13,5.13,0,0,1,41.59-4.7v-.167a5.071,5.071,0,0,1,1.169-3.507,4.08,4.08,0,0,1,3.208-1.31A4,4,0,0,1,48.828-8.67a3.594,3.594,0,0,1,1.094,2.7H47.54a1.731,1.731,0,0,0-.457-1.2,1.528,1.528,0,0,0-1.16-.461,1.531,1.531,0,0,0-1.34.646,3.739,3.739,0,0,0-.453,2.1v.264a3.786,3.786,0,0,0,.448,2.109A1.55,1.55,0,0,0,45.94-1.872ZM55.749.176a4.668,4.668,0,0,1-3.406-1.283,4.561,4.561,0,0,1-1.314-3.419v-.246a5.745,5.745,0,0,1,.554-2.562,4.064,4.064,0,0,1,1.569-1.74,4.4,4.4,0,0,1,2.316-.611,3.947,3.947,0,0,1,3.072,1.23A5,5,0,0,1,59.66-4.966v1.037H53.6a2.36,2.36,0,0,0,.743,1.494,2.245,2.245,0,0,0,1.569.563A2.742,2.742,0,0,0,58.21-2.936l1.248,1.4A3.813,3.813,0,0,1,57.911-.277,5.075,5.075,0,0,1,55.749.176Zm-.29-7.8a1.591,1.591,0,0,0-1.226.51,2.634,2.634,0,0,0-.6,1.459h3.533v-.2a1.878,1.878,0,0,0-.457-1.305A1.642,1.642,0,0,0,55.459-7.629Zm5.247,2.8a5.731,5.731,0,0,1,1-3.542,3.237,3.237,0,0,1,2.729-1.318,2.913,2.913,0,0,1,2.294,1.037V-13.5h2.549V0H66.981l-.123-1.011A2.989,2.989,0,0,1,64.415.176a3.228,3.228,0,0,1-2.694-1.323A5.916,5.916,0,0,1,60.706-4.825Zm2.54.185a3.744,3.744,0,0,0,.466,2.048,1.518,1.518,0,0,0,1.354.712,1.7,1.7,0,0,0,1.661-.993V-6.627a1.676,1.676,0,0,0-1.644-.993Q63.246-7.62,63.246-4.641Z" transform="translate(117 2210)" fill="#fff"/></g></svg>