<svg xmlns="http://www.w3.org/2000/svg" viewBox="0 0 151.359 145.203"><defs><style>.a{fill:#2d3233;}</style></defs><title>Pet Refuge - White - No Tag</title><path class="a" d="M53,65.239c0,3.986,2.386,15.177-4.306,15.177-1.525,0-2.509-.2-3.3-2.165-1.427-6.3-2.288-11.781-.32-34.711,2.361-4.478,22.339-2.559,22.339,3.493v.345C67.219,49.4,63.775,64.452,53,65.239Zm-.443-15.106v6.938c3.789,0,6.1-5.363,6.1-8.709C57.329,48.362,52.556,47.821,52.556,50.133Z"/><path class="a" d="M68.666,62.96c0-13.827,6.79-14.8,14.614-14.8,1.968,0,4.969.886,4.969,3.494,0,4.428-11.465.727-11.465,6.385,3.691,0,7.184-.59,10.924-.59V57.5c0,6.987-11.022,8.217-11.022,9.447,0,.493.2.826.2,1.121h9.644c1.132,0,1.181.64,1.181,1.476,0,5.117-7.085,8.464-11.022,8.464-2.46,0-7.971-2.51-7.971-5.315V65.125C68.666,64.338,68.666,63.649,68.666,62.96Z"/><path class="a" d="M96.286,47.825c.245-.444-.3-.542-3.149.347-3.84-2.162-3.7-6.788-.155-8.414,4.772-1.136,17.71-4.2,17.715,1.461,0,3.1-2.013,4.971-4.522,6.007.051,2.41.061,13.432.013,15.794,0,.984-.333,13.363-.578,14.4-.44,3.3-4.031,4.038-6.934,4.041a2.71,2.71,0,0,1-2.364-2.311Z"/><path class="a" d="M19.14,102.785c0,.1-.049.246-.049.393,0,1.181,10.076,17.611,10.076,22.924,0,2.707-3.69,5.167-6.249,5.167-5.51,0-8.255-22.235-13.52-22.235,0,3.985,2.017,12.99-4.674,12.99-1.526,0-2.51-.2-3.3-2.165C0,113.56,0,110.264,0,104.408v-2.017c0-4.576,0-7.725,1.427-12.547,2.362-4.478,24.11-7.43,24.11-1.378v.345C25.439,89.8,24.75,94.42,19.14,102.785ZM8.955,93.928v6.938c3.789,0,7.725-6.545,7.725-9.891C15.352,90.975,8.955,91.615,8.955,93.928Z"/><path class="a" d="M29.1,101.779c0-13.827,6.79-15.894,14.614-15.894,1.968,0,4.969.886,4.969,3.494,0,4.428-11.465,1.821-11.465,7.479,3.691,0,7.184-.59,10.924-.59v.049c0,6.987-11.022,8.217-11.022,9.447,0,.492.2,1.919.2,2.214h9.644c1.132,0,1.181.64,1.181,1.477,0,5.117-7.085,8.463-11.022,8.463-2.46,0-7.971-2.51-7.971-5.314v-8.66C29.1,103.156,29.1,102.468,29.1,101.779Z"/><path class="a" d="M74.547,91.484c0,3.2-8.862,2.258-11.224,2.012-.148,0-.3-.05-.443-.05a25.379,25.379,0,0,0-.541,5.638l1.574.147c4.822,1.083,2.116,5.216-.984,5.658.345,4.822,2.848,15.347-1.137,16.823-2.411.886-6.1.64-7.381-6.987-1.476-8.906-.634-17.145-.289-23.148.215-4,2.188-4.6,5.175-5.3,1.792-.424,7.23.053,9.592.053C72.677,86.328,74.547,87.843,74.547,91.484Z"/><path class="a" d="M92.776,112.9c-1.624,3.248-5.512,5.61-10.334,5.61-9,0-10.343-5.172-10.343-11.815a64.206,64.206,0,0,1,1.131-8.785c.246-1.87.64-2.215,2.362-2.215,8.02,0,2.766,14.253,7.441,14.253,4.4,0,3.532-5.742,3.588-11.57.041-4.329-.041-7.94,2.852-8.1h.246c5.609.161,5.878,9.408,5.5,15.278C94.944,109.745,93.924,110.6,92.776,112.9Z"/><path class="a" d="M117.149,102.432c2.461-.935,10.432-1.427,10.629,2.657.492,3.346.344,6.889.689,10.678-.2,4.28-5.315,4.477-5.856.246.1-.64.2-1.329.344-1.969-8.02,7.48-23.253,4.113-24.061-11.12a19.524,19.524,0,0,1,.443-6.151c1.279-4.28,3.149-7.183,7.332-9.447a13.565,13.565,0,0,1,6.1-1.427h.591c4.281.246,10.923,3.1,11.956,7.529-.1,5.166-6.691,5.707-9.1.344-1.477-3.247-13.483,6.495-7.234,15.45,2.9,4.133,9.054,1.132,12.843-2.017C116.018,109.715,113.164,104.006,117.149,102.432Z"/><path class="a" d="M131.775,99.592c0-13.827,6.79-15.894,14.614-15.894,1.968,0,4.97.886,4.97,3.494,0,4.428-11.465,1.821-11.465,7.479,3.69,0,7.184-.59,10.923-.59v.049c0,6.987-11.021,8.217-11.021,9.447,0,.492.2,1.919.2,2.214h9.643c1.132,0,1.181.64,1.181,1.477,0,5.117-7.085,8.463-11.021,8.463-2.461,0-7.972-2.51-7.972-5.314v-8.66C131.775,100.969,131.775,100.281,131.775,99.592Z"/><path class="a" d="M50.605,135.723q-4.569.817-9.01,1.862a5.663,5.663,0,0,0-2.073.775c-1.021.793-6.425,4.54-5.075,5.148s8.159,1.291,9.827,1.4c18.253,1.209,50.874-1.713,69.214-1.708,2.782,0,6.339-.374,6.862-2.015a1.928,1.928,0,0,0-.514-1.711c-1.556-2.018-4.873-3.393-8.382-4.086s-20.45-.3-24.128-.4l-22.1-.558Z"/><path class="a" d="M11.233,50.361c-3.52-.75-4.315-4.5-2.591-8.36s5.519-7.7,9.67-10.744,18.526-11.42,23-13.75L62.882,6.279C67.345,3.955,71.9,1.6,76.358.349c1.133-.317,2.354-.549,3.006-.1,1.5,1.047,3.211,4.873.882,6.757-9.8,7.936-24.024,15.093-33.828,23.029-5.859,4.742-21.944,15.723-28.595,18.127Z"/><path class="a" d="M88.744,3.342Q84.334,1.757,79.878.477A5.065,5.065,0,0,0,77.605.182c-1.4.289-1.639,1.983-.909,3.346s-.83,5.083.5,6.093c14.6,11.046,44.125,25.438,59.612,35.262,2.349,1.491,5.606,3,7.154,1.555a2.822,2.822,0,0,0,.72-2.078c.047-2.956-1.827-6.18-4.324-8.787S123.3,24.3,120.252,22.234L101.96,9.813Z"/><path class="a" d="M70.383,14.04s5.659-4.659,8.414-3.234.579-5.1.579-5.1l-5.221.435-3.917,3.916Z"/></svg>