<svg xmlns="http://www.w3.org/2000/svg" width="411.633" height="391.683" viewBox="0 0 411.633 391.683"><g transform="translate(-47 -2002.882)"><g transform="translate(-12340 4373)"><g transform="translate(12387 -2370.118)"><path d="M14.809,0H396.693A14.809,14.809,0,0,1,411.5,14.809V321.851a14.809,14.809,0,0,1-14.809,14.809H14.809A14.809,14.809,0,0,1,0,321.851V14.809A14.809,14.809,0,0,1,14.809,0Z" transform="translate(0 45.114)" fill="#488a00"/><path d="M14.809.3A14.494,14.494,0,0,0,.3,14.809V321.851a14.494,14.494,0,0,0,14.507,14.507H396.693A14.494,14.494,0,0,0,411.2,321.851V14.809A14.494,14.494,0,0,0,396.693.3H14.809m0-.3H396.693A14.809,14.809,0,0,1,411.5,14.809V321.851a14.809,14.809,0,0,1-14.809,14.809H14.809A14.809,14.809,0,0,1,0,321.851V14.809A14.809,14.809,0,0,1,14.809,0Z" transform="translate(0 45.114)" fill="#707070"/><path d="M14.809,0H74.376A14.809,14.809,0,0,1,89.185,14.809V376.874a14.809,14.809,0,0,1-14.809,14.809H14.809A14.809,14.809,0,0,1,0,376.874V14.809A14.809,14.809,0,0,1,14.809,0Z" transform="translate(212.271 0)" fill="#fff"/><path d="M14.809.3A14.495,14.495,0,0,0,.3,14.809V376.874a14.495,14.495,0,0,0,14.507,14.507H74.376a14.495,14.495,0,0,0,14.507-14.507V14.809A14.495,14.495,0,0,0,74.376.3H14.809m0-.3H74.376A14.809,14.809,0,0,1,89.185,14.809V376.874a14.809,14.809,0,0,1-14.809,14.809H14.809A14.809,14.809,0,0,1,0,376.874V14.809A14.809,14.809,0,0,1,14.809,0Z" transform="translate(212.27 0)" fill="#707070"/><path d="M49.013,16.048v3.785H46.8V9.09H50.99a4.849,4.849,0,0,1,2.129.443,3.262,3.262,0,0,1,1.413,1.258,3.508,3.508,0,0,1,.494,1.856,3.085,3.085,0,0,1-1.081,2.49,4.5,4.5,0,0,1-2.992.911Zm0-1.793H50.99a1.944,1.944,0,0,0,1.339-.413,1.5,1.5,0,0,0,.461-1.181,1.772,1.772,0,0,0-.465-1.276,1.736,1.736,0,0,0-1.284-.5H49.013Zm11.88-.406a5.793,5.793,0,0,0-.767-.059,1.562,1.562,0,0,0-1.586.819v5.224H56.406V11.85H58.42l.059.952a1.976,1.976,0,0,1,1.778-1.1,2.234,2.234,0,0,1,.664.1Zm3.276,5.984h-2.14V11.85h2.14ZM61.9,9.784a1.05,1.05,0,0,1,.321-.79,1.383,1.383,0,0,1,1.745,0,1.127,1.127,0,0,1,0,1.586,1.368,1.368,0,0,1-1.734,0A1.047,1.047,0,0,1,61.9,9.784Zm6.021,2.066.066.893a2.806,2.806,0,0,1,2.295-1.04A2.129,2.129,0,0,1,72.4,12.92,2.741,2.741,0,0,1,74.8,11.7a2.381,2.381,0,0,1,1.933.756,3.476,3.476,0,0,1,.635,2.276v5.1h-2.14V14.742a1.52,1.52,0,0,0-.266-.992,1.177,1.177,0,0,0-.937-.314,1.331,1.331,0,0,0-1.328.915l.007,5.482H70.573V14.75a1.5,1.5,0,0,0-.273-1,1.189,1.189,0,0,0-.93-.31,1.382,1.382,0,0,0-1.313.753v5.645H65.924V11.85Zm14.757,8.131A3.919,3.919,0,0,1,79.822,18.9a3.829,3.829,0,0,1-1.1-2.87v-.207a4.823,4.823,0,0,1,.465-2.151A3.412,3.412,0,0,1,80.5,12.215a3.7,3.7,0,0,1,1.944-.513,3.313,3.313,0,0,1,2.579,1.033,4.2,4.2,0,0,1,.941,2.929v.871H80.881A1.981,1.981,0,0,0,81.5,17.79a1.885,1.885,0,0,0,1.317.472,2.3,2.3,0,0,0,1.926-.893L85.8,18.542A3.2,3.2,0,0,1,84.5,19.6,4.261,4.261,0,0,1,82.681,19.981Zm-.243-6.552a1.335,1.335,0,0,0-1.029.428,2.211,2.211,0,0,0-.505,1.225h2.966v-.17a1.576,1.576,0,0,0-.384-1.1A1.378,1.378,0,0,0,82.438,13.429Zm11.931,2.487a4.834,4.834,0,0,1-.819,2.992,2.713,2.713,0,0,1-2.287,1.074,2.493,2.493,0,0,1-2.073-1l-.1.849H87.175V8.5h2.132v4.066a2.429,2.429,0,0,1,1.941-.863,2.735,2.735,0,0,1,2.291,1.074,4.841,4.841,0,0,1,.83,3.022Zm-2.132-.155a3.176,3.176,0,0,0-.384-1.767,1.3,1.3,0,0,0-1.144-.557,1.407,1.407,0,0,0-1.4.834v3.151a1.426,1.426,0,0,0,1.417.841,1.316,1.316,0,0,0,1.358-1.018A5.253,5.253,0,0,0,92.237,15.761Zm7.932-1.911a5.793,5.793,0,0,0-.767-.059,1.562,1.562,0,0,0-1.586.819v5.224H95.682V11.85H97.7l.059.952a1.976,1.976,0,0,1,1.778-1.1,2.234,2.234,0,0,1,.664.1Zm.428,1.918a4.735,4.735,0,0,1,.457-2.118,3.349,3.349,0,0,1,1.317-1.439,3.843,3.843,0,0,1,2-.509,3.635,3.635,0,0,1,2.638.989,3.968,3.968,0,0,1,1.14,2.686l.015.546a4.173,4.173,0,0,1-1.026,2.948,3.975,3.975,0,0,1-5.508,0,4.246,4.246,0,0,1-1.029-3.01Zm2.132.155a2.976,2.976,0,0,0,.428,1.738,1.539,1.539,0,0,0,2.435.007,3.257,3.257,0,0,0,.435-1.9,2.946,2.946,0,0,0-.435-1.727,1.416,1.416,0,0,0-1.225-.612,1.393,1.393,0,0,0-1.21.609A3.311,3.311,0,0,0,102.729,15.923Zm9.3-6.036V11.85h1.365v1.564h-1.365V17.4a.951.951,0,0,0,.17.635.852.852,0,0,0,.649.192,3.4,3.4,0,0,0,.627-.052v1.616a4.39,4.39,0,0,1-1.291.192,2.036,2.036,0,0,1-2.287-2.265v-4.3h-1.166V11.85h1.166V9.887Zm4.634,2.833a2.661,2.661,0,0,1,2.132-1.018q2.6,0,2.634,3.018v5.113h-2.132V14.779a1.483,1.483,0,0,0-.3-1.015,1.265,1.265,0,0,0-.981-.328,1.451,1.451,0,0,0-1.358.723v5.674h-2.132V8.5h2.132Z" transform="translate(172.835 9.716)"/><path d="M5.914,23.207h7.041v2.312H2.317V23.83l6.906-9.947h-6.9V11.552H12.8V13.2Zm13.247,2.5a5.1,5.1,0,0,1-3.717-1.4,4.978,4.978,0,0,1-1.434-3.731V20.31a6.27,6.27,0,0,1,.6-2.8,4.435,4.435,0,0,1,1.712-1.9,4.806,4.806,0,0,1,2.528-.667,4.307,4.307,0,0,1,3.352,1.343A5.457,5.457,0,0,1,23.429,20.1v1.132H16.82a2.575,2.575,0,0,0,.811,1.631,2.45,2.45,0,0,0,1.712.614,2.992,2.992,0,0,0,2.5-1.161l1.362,1.525a4.161,4.161,0,0,1-1.688,1.376A5.539,5.539,0,0,1,19.161,25.71Zm-.317-8.518a1.736,1.736,0,0,0-1.338.556,2.874,2.874,0,0,0-.657,1.592h3.856v-.221a2.049,2.049,0,0,0-.5-1.424A1.792,1.792,0,0,0,18.844,17.192Zm11.99.547a7.531,7.531,0,0,0-1-.077,2.03,2.03,0,0,0-2.062,1.065v6.791H25V15.14h2.619l.077,1.237a2.569,2.569,0,0,1,2.312-1.429,2.9,2.9,0,0,1,.863.125Zm.556,2.494a6.155,6.155,0,0,1,.595-2.753A4.354,4.354,0,0,1,33.7,15.61a5,5,0,0,1,2.595-.662,4.726,4.726,0,0,1,3.429,1.285A5.159,5.159,0,0,1,41.2,19.725l.019.71a5.425,5.425,0,0,1-1.333,3.832,4.635,4.635,0,0,1-3.578,1.444,4.658,4.658,0,0,1-3.583-1.439,5.52,5.52,0,0,1-1.338-3.914Zm2.772.2a3.869,3.869,0,0,0,.556,2.259,2,2,0,0,0,3.165.01,4.233,4.233,0,0,0,.566-2.47,3.83,3.83,0,0,0-.566-2.245,1.841,1.841,0,0,0-1.592-.8,1.81,1.81,0,0,0-1.573.791A4.3,4.3,0,0,0,34.163,20.435Zm16.364-4.163A3.46,3.46,0,0,1,53.3,14.948q3.376,0,3.424,3.923v6.647H53.951V18.948a1.928,1.928,0,0,0-.384-1.319,1.645,1.645,0,0,0-1.276-.427,1.887,1.887,0,0,0-1.765.94v7.376H47.755V10.785h2.772Zm14.3,9.247a3.078,3.078,0,0,1-.278-.93,3.354,3.354,0,0,1-2.619,1.122,3.685,3.685,0,0,1-2.528-.882,2.838,2.838,0,0,1-1-2.225,2.933,2.933,0,0,1,1.223-2.532,6.035,6.035,0,0,1,3.535-.892h1.276v-.595a1.71,1.71,0,0,0-.369-1.151A1.453,1.453,0,0,0,62.9,17a1.652,1.652,0,0,0-1.1.336,1.14,1.14,0,0,0-.4.921H58.632a2.785,2.785,0,0,1,.556-1.669,3.677,3.677,0,0,1,1.573-1.2,5.733,5.733,0,0,1,2.283-.436,4.53,4.53,0,0,1,3.046.964,3.372,3.372,0,0,1,1.127,2.71v4.5a4.962,4.962,0,0,0,.412,2.235v.163ZM62.536,23.59a2.388,2.388,0,0,0,1.132-.273,1.8,1.8,0,0,0,.767-.734V20.8H63.4q-2.081,0-2.216,1.439l-.01.163a1.11,1.11,0,0,0,.365.854A1.416,1.416,0,0,0,62.536,23.59Zm12.642-5.851a7.531,7.531,0,0,0-1-.077,2.03,2.03,0,0,0-2.062,1.065v6.791H69.347V15.14h2.619l.077,1.237a2.569,2.569,0,0,1,2.312-1.429,2.9,2.9,0,0,1,.863.125Zm3.933-2.6L79.2,16.3a3.647,3.647,0,0,1,2.983-1.352,2.768,2.768,0,0,1,2.753,1.583,3.564,3.564,0,0,1,3.117-1.583,3.1,3.1,0,0,1,2.513.983,4.519,4.519,0,0,1,.825,2.959v6.628H88.608V18.9a1.976,1.976,0,0,0-.345-1.29,1.53,1.53,0,0,0-1.218-.408,1.73,1.73,0,0,0-1.727,1.189l.01,7.127H82.555V18.909a1.952,1.952,0,0,0-.355-1.3,1.545,1.545,0,0,0-1.209-.4,1.8,1.8,0,0,0-1.707.978v7.338H76.512V15.14ZM94.277,25.518V17.173H92.733V15.14h1.544v-.882a3.583,3.583,0,0,1,1-2.71,3.882,3.882,0,0,1,2.806-.964,6.481,6.481,0,0,1,1.41.192l-.029,2.149a3.534,3.534,0,0,0-.844-.086q-1.564,0-1.564,1.468v.835h2.062v2.034H97.059v8.345Zm12.5-1.055a3.476,3.476,0,0,1-2.839,1.247,3.279,3.279,0,0,1-2.547-.959,4.1,4.1,0,0,1-.9-2.811v-6.8h2.772v6.7q0,1.621,1.477,1.621a2,2,0,0,0,1.938-.978V15.14h2.782V25.518h-2.609Zm7.7,1.055H111.7V10.785h2.782ZM12.024,40.07a6.225,6.225,0,0,1-1.089,3.842A3.491,3.491,0,0,1,8,45.355a3.233,3.233,0,0,1-2.542-1.094v4.892H2.681V34.785H5.252l.1,1.017a3.258,3.258,0,0,1,2.628-1.209,3.514,3.514,0,0,1,2.983,1.42,6.393,6.393,0,0,1,1.065,3.914Zm-2.772-.2a4.085,4.085,0,0,0-.513-2.235,1.672,1.672,0,0,0-1.492-.787,1.815,1.815,0,0,0-1.794,1v4.249A1.846,1.846,0,0,0,7.266,43.12Q9.252,43.12,9.252,39.868Zm10.321-2.484a7.532,7.532,0,0,0-1-.077,2.03,2.03,0,0,0-2.062,1.065v6.791H13.741V34.785H16.36l.077,1.237a2.569,2.569,0,0,1,2.312-1.429,2.9,2.9,0,0,1,.863.125ZM25.5,45.355a5.1,5.1,0,0,1-3.717-1.4,4.978,4.978,0,0,1-1.434-3.731v-.269a6.27,6.27,0,0,1,.6-2.8,4.435,4.435,0,0,1,1.712-1.9,4.806,4.806,0,0,1,2.528-.667,4.307,4.307,0,0,1,3.352,1.343,5.457,5.457,0,0,1,1.223,3.808v1.132H23.161a2.575,2.575,0,0,0,.811,1.631,2.45,2.45,0,0,0,1.712.614,2.992,2.992,0,0,0,2.5-1.161l1.362,1.525a4.161,4.161,0,0,1-1.688,1.376A5.539,5.539,0,0,1,25.5,45.355Zm-.317-8.518a1.736,1.736,0,0,0-1.338.556,2.874,2.874,0,0,0-.657,1.592h3.856v-.221a2.049,2.049,0,0,0-.5-1.424A1.792,1.792,0,0,0,25.185,36.837ZM36.964,42.3a.893.893,0,0,0-.5-.8,5.72,5.72,0,0,0-1.616-.523q-3.7-.777-3.7-3.146a2.852,2.852,0,0,1,1.146-2.307,4.624,4.624,0,0,1,3-.926,4.977,4.977,0,0,1,3.161.93A2.932,2.932,0,0,1,39.63,37.94H36.858a1.341,1.341,0,0,0-.384-.983,1.624,1.624,0,0,0-1.2-.388,1.659,1.659,0,0,0-1.084.317,1,1,0,0,0-.384.806.854.854,0,0,0,.436.743,4.49,4.49,0,0,0,1.472.489,12.027,12.027,0,0,1,1.746.465,2.868,2.868,0,0,1,2.2,2.791,2.707,2.707,0,0,1-1.218,2.3,5.255,5.255,0,0,1-3.146.878,5.489,5.489,0,0,1-2.317-.465,3.887,3.887,0,0,1-1.588-1.276,2.964,2.964,0,0,1-.576-1.751h2.628A1.447,1.447,0,0,0,33.99,43a2.169,2.169,0,0,0,1.362.393,2.007,2.007,0,0,0,1.2-.3A.94.94,0,0,0,36.964,42.3Zm9.256,3.06a5.1,5.1,0,0,1-3.717-1.4,4.978,4.978,0,0,1-1.434-3.731v-.269a6.27,6.27,0,0,1,.6-2.8,4.435,4.435,0,0,1,1.712-1.9,4.806,4.806,0,0,1,2.528-.667,4.307,4.307,0,0,1,3.352,1.343,5.457,5.457,0,0,1,1.223,3.808v1.132H43.88a2.575,2.575,0,0,0,.811,1.631,2.45,2.45,0,0,0,1.712.614,2.992,2.992,0,0,0,2.5-1.161l1.362,1.525a4.161,4.161,0,0,1-1.688,1.376A5.539,5.539,0,0,1,46.22,45.355ZM45.9,36.837a1.736,1.736,0,0,0-1.338.556,2.874,2.874,0,0,0-.657,1.592h3.856v-.221a2.049,2.049,0,0,0-.5-1.424A1.792,1.792,0,0,0,45.9,36.837Zm11.99.547a7.532,7.532,0,0,0-1-.077,2.03,2.03,0,0,0-2.062,1.065v6.791H52.062V34.785H54.68l.077,1.237a2.569,2.569,0,0,1,2.312-1.429,2.9,2.9,0,0,1,.863.125Zm5.391,4.393,1.928-6.993h2.9l-3.5,10.379H61.961l-3.5-10.379h2.9ZM75.2,45.163a3.079,3.079,0,0,1-.278-.93A3.354,3.354,0,0,1,72.3,45.355a3.685,3.685,0,0,1-2.528-.882,2.838,2.838,0,0,1-1-2.225,2.933,2.933,0,0,1,1.223-2.532,6.035,6.035,0,0,1,3.535-.892H74.8v-.595a1.71,1.71,0,0,0-.369-1.151,1.453,1.453,0,0,0-1.165-.432,1.652,1.652,0,0,0-1.1.336,1.141,1.141,0,0,0-.4.921H69a2.785,2.785,0,0,1,.556-1.669,3.678,3.678,0,0,1,1.573-1.2,5.733,5.733,0,0,1,2.283-.436,4.53,4.53,0,0,1,3.046.964,3.372,3.372,0,0,1,1.127,2.71v4.5A4.962,4.962,0,0,0,78,45v.163Zm-2.293-1.928a2.388,2.388,0,0,0,1.132-.273,1.8,1.8,0,0,0,.767-.734V40.444H73.769q-2.081,0-2.216,1.439l-.01.163a1.11,1.11,0,0,0,.365.854A1.416,1.416,0,0,0,72.906,43.235Zm10.129-11v2.552h1.775v2.034H83.035V42a1.237,1.237,0,0,0,.221.825,1.108,1.108,0,0,0,.844.249A4.421,4.421,0,0,0,84.915,43v2.1a5.707,5.707,0,0,1-1.679.249,2.647,2.647,0,0,1-2.974-2.945V36.818H78.747V34.785h1.516V32.233Zm6.244,12.93H86.5V34.785h2.782ZM86.335,32.1a1.365,1.365,0,0,1,.417-1.026,1.8,1.8,0,0,1,2.269,0,1.465,1.465,0,0,1,0,2.062,1.778,1.778,0,0,1-2.254,0A1.361,1.361,0,0,1,86.335,32.1Zm9.113,9.678,1.928-6.993h2.9l-3.5,10.379H94.123l-3.5-10.379h2.9Zm10.7,3.578a5.1,5.1,0,0,1-3.717-1.4,4.978,4.978,0,0,1-1.434-3.731v-.269a6.27,6.27,0,0,1,.6-2.8,4.435,4.435,0,0,1,1.712-1.9,4.806,4.806,0,0,1,2.528-.667,4.307,4.307,0,0,1,3.352,1.343,5.457,5.457,0,0,1,1.223,3.808v1.132H103.8a2.575,2.575,0,0,0,.811,1.631,2.45,2.45,0,0,0,1.712.614,2.992,2.992,0,0,0,2.5-1.161l1.362,1.525a4.161,4.161,0,0,1-1.688,1.376A5.539,5.539,0,0,1,106.142,45.355Zm-.317-8.518a1.736,1.736,0,0,0-1.338.556,2.874,2.874,0,0,0-.657,1.592h3.856v-.221a2.049,2.049,0,0,0-.5-1.424A1.792,1.792,0,0,0,105.826,36.837ZM117.6,42.3a.893.893,0,0,0-.5-.8,5.72,5.72,0,0,0-1.616-.523q-3.7-.777-3.7-3.146a2.852,2.852,0,0,1,1.146-2.307,4.624,4.624,0,0,1,3-.926,4.977,4.977,0,0,1,3.161.93,2.932,2.932,0,0,1,1.185,2.417H117.5a1.341,1.341,0,0,0-.384-.983,1.624,1.624,0,0,0-1.2-.388,1.659,1.659,0,0,0-1.084.317,1,1,0,0,0-.384.806.854.854,0,0,0,.436.743,4.49,4.49,0,0,0,1.472.489,12.027,12.027,0,0,1,1.746.465,2.868,2.868,0,0,1,2.2,2.791,2.707,2.707,0,0,1-1.218,2.3,5.255,5.255,0,0,1-3.146.878,5.489,5.489,0,0,1-2.317-.465,3.887,3.887,0,0,1-1.588-1.276,2.964,2.964,0,0,1-.576-1.751h2.628A1.447,1.447,0,0,0,114.631,43a2.169,2.169,0,0,0,1.362.393,2.007,2.007,0,0,0,1.2-.3A.94.94,0,0,0,117.6,42.3Z" transform="translate(9.263 51.663)" fill="#fff"/><path d="M14.066,26.537H11.188l-5.6-9.189v9.189H2.709V12.571H5.586L11.2,21.779V12.571h2.868Zm1.9-5.285A6.155,6.155,0,0,1,16.56,18.5a4.354,4.354,0,0,1,1.712-1.87,5,5,0,0,1,2.595-.662A4.726,4.726,0,0,1,24.3,17.252a5.159,5.159,0,0,1,1.482,3.492l.019.71a5.425,5.425,0,0,1-1.333,3.832,4.635,4.635,0,0,1-3.578,1.444A4.658,4.658,0,0,1,17.3,25.29a5.52,5.52,0,0,1-1.338-3.914Zm2.772.2a3.869,3.869,0,0,0,.556,2.259,2,2,0,0,0,3.165.01,4.233,4.233,0,0,0,.566-2.47,3.83,3.83,0,0,0-.566-2.245,1.841,1.841,0,0,0-1.592-.8A1.81,1.81,0,0,0,19.293,19,4.3,4.3,0,0,0,18.737,21.453Zm22.685,1.314,1.362-6.609h2.676L42.813,26.537H40.492L38.526,20l-1.966,6.532H34.248L31.6,16.158h2.676l1.352,6.6,1.9-6.6h2Zm11.424,3.77a3.078,3.078,0,0,1-.278-.93,3.354,3.354,0,0,1-2.619,1.122,3.685,3.685,0,0,1-2.528-.882,2.838,2.838,0,0,1-1-2.225,2.933,2.933,0,0,1,1.223-2.532,6.035,6.035,0,0,1,3.535-.892h1.276V19.6a1.71,1.71,0,0,0-.369-1.151,1.453,1.453,0,0,0-1.165-.432,1.652,1.652,0,0,0-1.1.336,1.14,1.14,0,0,0-.4.921H46.65a2.785,2.785,0,0,1,.556-1.669,3.677,3.677,0,0,1,1.573-1.2,5.733,5.733,0,0,1,2.283-.436,4.53,4.53,0,0,1,3.046.964,3.372,3.372,0,0,1,1.127,2.71v4.5a4.962,4.962,0,0,0,.412,2.235v.163Zm-2.293-1.928a2.388,2.388,0,0,0,1.132-.273,1.8,1.8,0,0,0,.767-.734V21.818H51.418q-2.081,0-2.216,1.439l-.01.163a1.11,1.11,0,0,0,.365.854A1.416,1.416,0,0,0,50.554,24.609Zm10.129-11v2.552h1.775v2.034H60.684v5.18a1.237,1.237,0,0,0,.221.825,1.108,1.108,0,0,0,.844.249,4.421,4.421,0,0,0,.815-.067v2.1a5.707,5.707,0,0,1-1.679.249,2.647,2.647,0,0,1-2.974-2.945V18.192H56.4V16.158h1.516V13.607Zm8.1,13.122a5.1,5.1,0,0,1-3.717-1.4A4.978,4.978,0,0,1,63.628,21.6v-.269a6.27,6.27,0,0,1,.6-2.8,4.435,4.435,0,0,1,1.712-1.9,4.806,4.806,0,0,1,2.528-.667,4.307,4.307,0,0,1,3.352,1.343,5.457,5.457,0,0,1,1.223,3.808V22.25H66.439a2.575,2.575,0,0,0,.811,1.631,2.45,2.45,0,0,0,1.712.614,2.992,2.992,0,0,0,2.5-1.161l1.362,1.525a4.161,4.161,0,0,1-1.688,1.376A5.539,5.539,0,0,1,68.779,26.729Zm-.317-8.518a1.736,1.736,0,0,0-1.338.556,2.874,2.874,0,0,0-.657,1.592h3.856v-.221a2.049,2.049,0,0,0-.5-1.424A1.792,1.792,0,0,0,68.463,18.211Zm11.99.547a7.531,7.531,0,0,0-1-.077,2.03,2.03,0,0,0-2.062,1.065v6.791H74.621V16.158H77.24l.077,1.237a2.569,2.569,0,0,1,2.312-1.429,2.9,2.9,0,0,1,.863.125Zm4.259,7.779H81.93V16.158h2.782ZM81.767,13.473a1.365,1.365,0,0,1,.417-1.026,1.8,1.8,0,0,1,2.269,0,1.465,1.465,0,0,1,0,2.062,1.778,1.778,0,0,1-2.254,0A1.361,1.361,0,0,1,81.767,13.473Zm7.779,2.686.086,1.2a3.624,3.624,0,0,1,2.983-1.391,3.011,3.011,0,0,1,2.456.969,4.52,4.52,0,0,1,.825,2.9v6.7H93.124V19.9a1.8,1.8,0,0,0-.384-1.281,1.718,1.718,0,0,0-1.276-.4,1.907,1.907,0,0,0-1.755,1v7.319H86.937V16.158Zm8.048,5.113a6.083,6.083,0,0,1,1.137-3.846,3.683,3.683,0,0,1,3.065-1.458,3.23,3.23,0,0,1,2.657,1.17l.115-.978h2.513V26.192a4.436,4.436,0,0,1-.619,2.369,3.973,3.973,0,0,1-1.741,1.535,6.12,6.12,0,0,1-2.628.528,5.691,5.691,0,0,1-2.225-.456,3.95,3.95,0,0,1-1.64-1.175L99.455,27.3a3.247,3.247,0,0,0,2.513,1.161,2.377,2.377,0,0,0,1.717-.59A2.213,2.213,0,0,0,104.3,26.2v-.556a3.206,3.206,0,0,1-2.523,1.084,3.674,3.674,0,0,1-3.026-1.463,6.081,6.081,0,0,1-1.156-3.88Zm2.772.2a3.777,3.777,0,0,0,.566,2.211,1.8,1.8,0,0,0,1.554.8,1.926,1.926,0,0,0,1.813-.95V19.17a1.921,1.921,0,0,0-1.794-.95,1.812,1.812,0,0,0-1.568.815A4.257,4.257,0,0,0,100.366,21.473ZM2.095,40.916A6.255,6.255,0,0,1,3.183,37.05a3.532,3.532,0,0,1,2.978-1.439,3.179,3.179,0,0,1,2.5,1.132V31.448h2.782V46.182h-2.5l-.134-1.1a3.262,3.262,0,0,1-2.667,1.295A3.523,3.523,0,0,1,3.2,44.93,6.456,6.456,0,0,1,2.095,40.916Zm2.772.2a4.086,4.086,0,0,0,.508,2.235,1.657,1.657,0,0,0,1.477.777,1.855,1.855,0,0,0,1.813-1.084v-4.1a1.829,1.829,0,0,0-1.794-1.084Q4.867,37.866,4.867,41.117Zm8.3-.221a6.155,6.155,0,0,1,.595-2.753,4.354,4.354,0,0,1,1.712-1.87,5,5,0,0,1,2.595-.662A4.726,4.726,0,0,1,21.495,36.9a5.159,5.159,0,0,1,1.482,3.492L23,41.1a5.425,5.425,0,0,1-1.333,3.832,4.635,4.635,0,0,1-3.578,1.444A4.658,4.658,0,0,1,14.5,44.935a5.52,5.52,0,0,1-1.338-3.914Zm2.772.2a3.869,3.869,0,0,0,.556,2.259,2,2,0,0,0,3.165.01,4.233,4.233,0,0,0,.566-2.47,3.83,3.83,0,0,0-.566-2.245,1.841,1.841,0,0,0-1.592-.8,1.81,1.81,0,0,0-1.573.791A4.3,4.3,0,0,0,15.936,41.1ZM33.73,42.412,35.092,35.8h2.676L35.121,46.182H32.8L30.833,39.65l-1.966,6.532H26.555L23.907,35.8h2.676l1.352,6.6,1.9-6.6h2ZM41.691,35.8l.086,1.2a3.624,3.624,0,0,1,2.983-1.391,3.011,3.011,0,0,1,2.456.969,4.52,4.52,0,0,1,.825,2.9v6.7H45.269V39.544a1.8,1.8,0,0,0-.384-1.281,1.718,1.718,0,0,0-1.276-.4,1.907,1.907,0,0,0-1.755,1v7.319H39.082V35.8Zm14.1,10.379V37.837H54.247V35.8h1.544v-.882a3.583,3.583,0,0,1,1-2.71,3.882,3.882,0,0,1,2.806-.964,6.48,6.48,0,0,1,1.41.192l-.029,2.149a3.534,3.534,0,0,0-.844-.086q-1.564,0-1.564,1.468V35.8h2.062v2.034H58.573v8.345ZM61.643,40.9a6.155,6.155,0,0,1,.595-2.753,4.354,4.354,0,0,1,1.712-1.87,5,5,0,0,1,2.595-.662A4.726,4.726,0,0,1,69.974,36.9a5.159,5.159,0,0,1,1.482,3.492l.019.71a5.425,5.425,0,0,1-1.333,3.832,5.168,5.168,0,0,1-7.161,0,5.52,5.52,0,0,1-1.338-3.914Zm2.772.2a3.869,3.869,0,0,0,.556,2.259,2,2,0,0,0,3.165.01A4.233,4.233,0,0,0,68.7,40.9a3.83,3.83,0,0,0-.566-2.245,1.841,1.841,0,0,0-1.592-.8,1.81,1.81,0,0,0-1.573.791A4.3,4.3,0,0,0,64.415,41.1Zm14.6-2.7a7.531,7.531,0,0,0-1-.077,2.03,2.03,0,0,0-2.062,1.065v6.791H73.182V35.8H75.8l.077,1.237a2.569,2.569,0,0,1,2.312-1.429,2.9,2.9,0,0,1,.863.125Zm15.568,2.686a6.225,6.225,0,0,1-1.089,3.842,3.491,3.491,0,0,1-2.94,1.444,3.233,3.233,0,0,1-2.542-1.094v4.892H85.24V35.8H87.81l.1,1.017a3.258,3.258,0,0,1,2.628-1.209,3.514,3.514,0,0,1,2.983,1.42,6.393,6.393,0,0,1,1.065,3.914Zm-2.772-.2a4.085,4.085,0,0,0-.513-2.235,1.672,1.672,0,0,0-1.492-.787,1.815,1.815,0,0,0-1.794,1v4.249a1.846,1.846,0,0,0,1.813,1.026Q91.81,44.139,91.81,40.887ZM102.131,38.4a7.531,7.531,0,0,0-1-.077,2.03,2.03,0,0,0-2.062,1.065v6.791H96.3V35.8h2.619l.077,1.237a2.569,2.569,0,0,1,2.312-1.429,2.9,2.9,0,0,1,.863.125Zm.556,2.494a6.155,6.155,0,0,1,.595-2.753,4.354,4.354,0,0,1,1.712-1.87,5,5,0,0,1,2.595-.662,4.726,4.726,0,0,1,3.429,1.285,5.159,5.159,0,0,1,1.482,3.492l.019.71a5.425,5.425,0,0,1-1.333,3.832,5.168,5.168,0,0,1-7.161,0,5.52,5.52,0,0,1-1.338-3.914Zm2.772.2a3.869,3.869,0,0,0,.556,2.259,2,2,0,0,0,3.165.01,4.233,4.233,0,0,0,.566-2.47,3.83,3.83,0,0,0-.566-2.245,1.841,1.841,0,0,0-1.592-.8,1.81,1.81,0,0,0-1.573.791A4.3,4.3,0,0,0,105.46,41.1Zm9.439,5.084V37.837h-1.544V35.8H114.9v-.48a3.892,3.892,0,0,1,1.2-3.017,4.843,4.843,0,0,1,3.343-1.06,11.088,11.088,0,0,1,3.146.566l-.4,2.293a12.275,12.275,0,0,0-1.458-.36,7.164,7.164,0,0,0-1.113-.082q-1.938,0-1.938,1.717V35.8h2.043v2.034H117.68v8.345Zm8.988,0H121.1V35.8h2.782Zm5.611-12.93V35.8h1.775v2.034H129.5v5.18a1.237,1.237,0,0,0,.221.825,1.108,1.108,0,0,0,.844.249,4.421,4.421,0,0,0,.815-.067v2.1a5.707,5.707,0,0,1-1.679.249,2.647,2.647,0,0,1-2.974-2.945V37.837H125.21V35.8h1.516V33.252Zm8.94,10.062a.893.893,0,0,0-.5-.8,5.72,5.72,0,0,0-1.616-.523q-3.7-.777-3.7-3.146a2.852,2.852,0,0,1,1.146-2.307,4.624,4.624,0,0,1,3-.926,4.977,4.977,0,0,1,3.161.93,2.932,2.932,0,0,1,1.185,2.417h-2.772a1.341,1.341,0,0,0-.384-.983,1.624,1.624,0,0,0-1.2-.388,1.659,1.659,0,0,0-1.084.317,1,1,0,0,0-.384.806.854.854,0,0,0,.436.743,4.49,4.49,0,0,0,1.472.489,12.026,12.026,0,0,1,1.746.465,2.868,2.868,0,0,1,2.2,2.791,2.707,2.707,0,0,1-1.218,2.3,5.255,5.255,0,0,1-3.146.878,5.489,5.489,0,0,1-2.316-.465,3.887,3.887,0,0,1-1.588-1.276,2.964,2.964,0,0,1-.576-1.751h2.628a1.447,1.447,0,0,0,.547,1.132,2.169,2.169,0,0,0,1.362.393,2.007,2.007,0,0,0,1.2-.3A.94.94,0,0,0,138.438,43.314Z" transform="translate(9.419 114.983)" fill="#fff"/><path d="M12.892,26.537H10.014l-5.6-9.189v9.189H1.535V12.571H4.413l5.611,9.208V12.571h2.868Zm1.9-5.285a6.155,6.155,0,0,1,.595-2.753,4.354,4.354,0,0,1,1.712-1.87,5,5,0,0,1,2.595-.662,4.726,4.726,0,0,1,3.429,1.285A5.159,5.159,0,0,1,24.6,20.744l.019.71a5.425,5.425,0,0,1-1.333,3.832,4.635,4.635,0,0,1-3.578,1.444,4.658,4.658,0,0,1-3.583-1.439,5.52,5.52,0,0,1-1.338-3.914Zm2.772.2a3.869,3.869,0,0,0,.556,2.259,2,2,0,0,0,3.165.01,4.233,4.233,0,0,0,.566-2.47,3.83,3.83,0,0,0-.566-2.245,1.841,1.841,0,0,0-1.592-.8A1.81,1.81,0,0,0,18.12,19,4.3,4.3,0,0,0,17.563,21.453Zm13.228-.2a6.155,6.155,0,0,1,.595-2.753,4.354,4.354,0,0,1,1.712-1.87,5,5,0,0,1,2.595-.662,4.726,4.726,0,0,1,3.429,1.285A5.159,5.159,0,0,1,40.6,20.744l.019.71a5.425,5.425,0,0,1-1.333,3.832,4.635,4.635,0,0,1-3.578,1.444,4.658,4.658,0,0,1-3.583-1.439,5.52,5.52,0,0,1-1.338-3.914Zm2.772.2a3.869,3.869,0,0,0,.556,2.259,2,2,0,0,0,3.165.01,4.233,4.233,0,0,0,.566-2.47,3.83,3.83,0,0,0-.566-2.245,1.841,1.841,0,0,0-1.592-.8A1.81,1.81,0,0,0,34.119,19,4.3,4.3,0,0,0,33.563,21.453Zm12.508,1.7L48,16.158h2.9l-3.5,10.379H44.748l-3.5-10.379h2.9Zm10.7,3.578a5.1,5.1,0,0,1-3.717-1.4A4.978,4.978,0,0,1,51.616,21.6v-.269a6.27,6.27,0,0,1,.6-2.8,4.435,4.435,0,0,1,1.712-1.9,4.806,4.806,0,0,1,2.528-.667,4.307,4.307,0,0,1,3.352,1.343,5.457,5.457,0,0,1,1.223,3.808V22.25H54.426a2.575,2.575,0,0,0,.811,1.631,2.45,2.45,0,0,0,1.712.614,2.992,2.992,0,0,0,2.5-1.161l1.362,1.525a4.161,4.161,0,0,1-1.688,1.376A5.539,5.539,0,0,1,56.767,26.729Zm-.317-8.518a1.736,1.736,0,0,0-1.338.556,2.874,2.874,0,0,0-.657,1.592h3.856v-.221a2.049,2.049,0,0,0-.5-1.424A1.792,1.792,0,0,0,56.45,18.211Zm11.99.547a7.531,7.531,0,0,0-1-.077,2.03,2.03,0,0,0-2.062,1.065v6.791H62.608V16.158h2.619L65.3,17.4a2.569,2.569,0,0,1,2.312-1.429,2.9,2.9,0,0,1,.863.125Zm10.676,2.686a6.225,6.225,0,0,1-1.089,3.842,3.491,3.491,0,0,1-2.94,1.444,3.233,3.233,0,0,1-2.542-1.094v4.892H69.773V16.158h2.571l.1,1.017a3.258,3.258,0,0,1,2.628-1.209,3.514,3.514,0,0,1,2.983,1.42A6.393,6.393,0,0,1,79.116,21.3Zm-2.772-.2a4.085,4.085,0,0,0-.513-2.235,1.671,1.671,0,0,0-1.492-.787,1.815,1.815,0,0,0-1.794,1v4.249a1.846,1.846,0,0,0,1.813,1.026Q76.344,24.494,76.344,21.242Zm4.057.01A6.155,6.155,0,0,1,81,18.5a4.354,4.354,0,0,1,1.712-1.87,5,5,0,0,1,2.595-.662,4.726,4.726,0,0,1,3.429,1.285,5.159,5.159,0,0,1,1.482,3.492l.019.71A5.425,5.425,0,0,1,88.9,25.285a5.168,5.168,0,0,1-7.161,0A5.52,5.52,0,0,1,80.4,21.377Zm2.772.2a3.869,3.869,0,0,0,.556,2.259,2,2,0,0,0,3.165.01,4.234,4.234,0,0,0,.566-2.47,3.83,3.83,0,0,0-.566-2.245,1.841,1.841,0,0,0-1.592-.8A1.81,1.81,0,0,0,83.73,19,4.3,4.3,0,0,0,83.174,21.453Zm17.793,1.314,1.362-6.609h2.676l-2.647,10.379h-2.321L98.07,20,96.1,26.537H93.792L91.145,16.158h2.676l1.353,6.6,1.9-6.6h2Zm10.187,3.962a5.1,5.1,0,0,1-3.717-1.4A4.978,4.978,0,0,1,106,21.6v-.269a6.27,6.27,0,0,1,.6-2.8,4.435,4.435,0,0,1,1.712-1.9,4.806,4.806,0,0,1,2.528-.667A4.307,4.307,0,0,1,114.2,17.31a5.457,5.457,0,0,1,1.223,3.808V22.25h-6.609a2.575,2.575,0,0,0,.811,1.631,2.45,2.45,0,0,0,1.712.614,2.992,2.992,0,0,0,2.5-1.161l1.362,1.525a4.162,4.162,0,0,1-1.688,1.376A5.539,5.539,0,0,1,111.154,26.729Zm-.317-8.518a1.736,1.736,0,0,0-1.338.556,2.874,2.874,0,0,0-.657,1.592H112.7v-.221a2.049,2.049,0,0,0-.5-1.424A1.792,1.792,0,0,0,110.837,18.211Zm11.99.547a7.531,7.531,0,0,0-1-.077,2.03,2.03,0,0,0-2.062,1.065v6.791H117V16.158h2.619l.077,1.237A2.569,2.569,0,0,1,122,15.967a2.9,2.9,0,0,1,.863.125Zm4.259,7.779H124.3V16.158h2.782Zm-2.945-13.065a1.365,1.365,0,0,1,.417-1.026,1.8,1.8,0,0,1,2.269,0,1.465,1.465,0,0,1,0,2.062,1.778,1.778,0,0,1-2.254,0A1.361,1.361,0,0,1,124.142,13.473Zm7.779,2.686.086,1.2a3.624,3.624,0,0,1,2.983-1.391,3.011,3.011,0,0,1,2.456.969,4.52,4.52,0,0,1,.825,2.9v6.7H135.5V19.9a1.8,1.8,0,0,0-.384-1.281,1.718,1.718,0,0,0-1.276-.4,1.907,1.907,0,0,0-1.755,1v7.319h-2.772V16.158Zm8.048,5.113a6.083,6.083,0,0,1,1.137-3.846,3.683,3.683,0,0,1,3.065-1.458,3.23,3.23,0,0,1,2.657,1.17l.115-.978h2.513V26.192a4.436,4.436,0,0,1-.619,2.369A3.973,3.973,0,0,1,147.1,30.1a6.12,6.12,0,0,1-2.628.528,5.691,5.691,0,0,1-2.225-.456,3.95,3.95,0,0,1-1.64-1.175L141.83,27.3a3.247,3.247,0,0,0,2.513,1.161,2.377,2.377,0,0,0,1.717-.59,2.213,2.213,0,0,0,.614-1.674v-.556a3.206,3.206,0,0,1-2.523,1.084,3.674,3.674,0,0,1-3.026-1.463,6.081,6.081,0,0,1-1.156-3.88Zm2.772.2a3.777,3.777,0,0,0,.566,2.211,1.8,1.8,0,0,0,1.554.8,1.926,1.926,0,0,0,1.813-.95V19.17a1.921,1.921,0,0,0-1.794-.95,1.813,1.813,0,0,0-1.568.815A4.257,4.257,0,0,0,142.741,21.473ZM5.237,42.8,7.165,35.8h2.9l-3.5,10.379H3.914L.413,35.8h2.9Zm8.969,3.386H11.424V35.8h2.782ZM11.261,33.117a1.365,1.365,0,0,1,.417-1.026,1.568,1.568,0,0,1,1.137-.4,1.571,1.571,0,0,1,1.132.4,1.465,1.465,0,0,1,0,2.062,1.575,1.575,0,0,1-1.127.4,1.575,1.575,0,0,1-1.127-.4A1.361,1.361,0,0,1,11.261,33.117ZM19.041,35.8l.086,1.2a3.624,3.624,0,0,1,2.983-1.391,3.011,3.011,0,0,1,2.456.969,4.52,4.52,0,0,1,.825,2.9v6.7H22.618V39.544a1.8,1.8,0,0,0-.384-1.281,1.718,1.718,0,0,0-1.276-.4,1.907,1.907,0,0,0-1.755,1v7.319H16.431V35.8ZM32.268,46.374a5.1,5.1,0,0,1-3.717-1.4,4.978,4.978,0,0,1-1.434-3.731v-.269a6.27,6.27,0,0,1,.6-2.8,4.435,4.435,0,0,1,1.712-1.9,4.806,4.806,0,0,1,2.528-.667,4.307,4.307,0,0,1,3.352,1.343,5.457,5.457,0,0,1,1.223,3.808v1.132H29.928a2.575,2.575,0,0,0,.811,1.631,2.45,2.45,0,0,0,1.712.614,2.992,2.992,0,0,0,2.5-1.161L36.316,44.5a4.161,4.161,0,0,1-1.688,1.376A5.539,5.539,0,0,1,32.268,46.374Zm-.317-8.518a1.736,1.736,0,0,0-1.338.556A2.874,2.874,0,0,0,29.956,40h3.856v-.221a2.049,2.049,0,0,0-.5-1.424A1.792,1.792,0,0,0,31.952,37.856Zm5.755,3.06a6.083,6.083,0,0,1,1.137-3.846,3.683,3.683,0,0,1,3.065-1.458,3.23,3.23,0,0,1,2.657,1.17l.115-.978h2.513V45.837a4.436,4.436,0,0,1-.619,2.369,3.973,3.973,0,0,1-1.741,1.535,6.12,6.12,0,0,1-2.628.528,5.691,5.691,0,0,1-2.225-.456,3.95,3.95,0,0,1-1.64-1.175l1.228-1.688a3.247,3.247,0,0,0,2.513,1.161,2.377,2.377,0,0,0,1.717-.59,2.213,2.213,0,0,0,.614-1.674V45.29a3.206,3.206,0,0,1-2.523,1.084,3.674,3.674,0,0,1-3.026-1.463,6.081,6.081,0,0,1-1.156-3.88Zm2.772.2a3.777,3.777,0,0,0,.566,2.211,1.8,1.8,0,0,0,1.554.8,1.926,1.926,0,0,0,1.813-.95V38.815a1.921,1.921,0,0,0-1.794-.95,1.813,1.813,0,0,0-1.568.815A4.257,4.257,0,0,0,40.479,41.117Zm14.858,5.065a3.079,3.079,0,0,1-.278-.93,3.354,3.354,0,0,1-2.619,1.122,3.685,3.685,0,0,1-2.528-.882,2.838,2.838,0,0,1-1-2.225,2.933,2.933,0,0,1,1.223-2.532,6.035,6.035,0,0,1,3.535-.892h1.276v-.595a1.71,1.71,0,0,0-.369-1.151,1.453,1.453,0,0,0-1.165-.432,1.652,1.652,0,0,0-1.1.336,1.141,1.141,0,0,0-.4.921H49.141a2.785,2.785,0,0,1,.556-1.669,3.678,3.678,0,0,1,1.573-1.2,5.733,5.733,0,0,1,2.283-.436,4.53,4.53,0,0,1,3.046.964,3.372,3.372,0,0,1,1.127,2.71v4.5a4.962,4.962,0,0,0,.412,2.235v.163Zm-2.293-1.928a2.388,2.388,0,0,0,1.132-.273,1.8,1.8,0,0,0,.767-.734V41.463H53.908q-2.081,0-2.216,1.439l-.01.163a1.11,1.11,0,0,0,.365.854A1.416,1.416,0,0,0,53.045,44.254ZM65.687,38.4a7.531,7.531,0,0,0-1-.077,2.03,2.03,0,0,0-2.062,1.065v6.791H59.855V35.8h2.619l.077,1.237a2.569,2.569,0,0,1,2.312-1.429,2.9,2.9,0,0,1,.863.125Zm9.544-5.151V35.8h1.775v2.034H75.231v5.18a1.237,1.237,0,0,0,.221.825,1.108,1.108,0,0,0,.844.249,4.421,4.421,0,0,0,.815-.067v2.1a5.707,5.707,0,0,1-1.679.249,2.647,2.647,0,0,1-2.974-2.945V37.837H70.944V35.8h1.516V33.252Zm9.333,12.93a3.078,3.078,0,0,1-.278-.93,3.354,3.354,0,0,1-2.619,1.122,3.685,3.685,0,0,1-2.528-.882,2.838,2.838,0,0,1-1-2.225,2.933,2.933,0,0,1,1.223-2.532,6.035,6.035,0,0,1,3.535-.892h1.276v-.595A1.71,1.71,0,0,0,83.8,38.1a1.453,1.453,0,0,0-1.165-.432,1.652,1.652,0,0,0-1.1.336,1.141,1.141,0,0,0-.4.921H78.368a2.785,2.785,0,0,1,.556-1.669,3.678,3.678,0,0,1,1.573-1.2,5.733,5.733,0,0,1,2.283-.436,4.53,4.53,0,0,1,3.046.964,3.372,3.372,0,0,1,1.127,2.71v4.5a4.962,4.962,0,0,0,.412,2.235v.163Zm-2.293-1.928a2.388,2.388,0,0,0,1.132-.273,1.8,1.8,0,0,0,.767-.734V41.463H83.135q-2.081,0-2.216,1.439l-.01.163a1.11,1.11,0,0,0,.365.854A1.416,1.416,0,0,0,82.272,44.254Zm12.431-.94a.893.893,0,0,0-.5-.8,5.72,5.72,0,0,0-1.616-.523q-3.7-.777-3.7-3.146a2.852,2.852,0,0,1,1.146-2.307,4.624,4.624,0,0,1,3-.926,4.977,4.977,0,0,1,3.161.93,2.932,2.932,0,0,1,1.185,2.417H94.6a1.341,1.341,0,0,0-.384-.983,1.624,1.624,0,0,0-1.2-.388,1.659,1.659,0,0,0-1.084.317,1,1,0,0,0-.384.806.854.854,0,0,0,.436.743,4.49,4.49,0,0,0,1.472.489,12.026,12.026,0,0,1,1.746.465A2.868,2.868,0,0,1,97.4,43.2a2.707,2.707,0,0,1-1.218,2.3,5.255,5.255,0,0,1-3.146.878,5.489,5.489,0,0,1-2.317-.465,3.887,3.887,0,0,1-1.588-1.276,2.964,2.964,0,0,1-.576-1.751h2.628a1.447,1.447,0,0,0,.547,1.132,2.169,2.169,0,0,0,1.362.393,2.007,2.007,0,0,0,1.2-.3A.94.94,0,0,0,94.7,43.314Zm7.8-10.062V35.8h1.775v2.034H102.5v5.18a1.237,1.237,0,0,0,.221.825,1.108,1.108,0,0,0,.844.249,4.421,4.421,0,0,0,.815-.067v2.1a5.707,5.707,0,0,1-1.679.249,2.647,2.647,0,0,1-2.974-2.945V37.837H98.214V35.8H99.73V33.252Zm8.1,13.122a5.1,5.1,0,0,1-3.717-1.4,4.978,4.978,0,0,1-1.434-3.731v-.269a6.27,6.27,0,0,1,.6-2.8,4.435,4.435,0,0,1,1.712-1.9,4.806,4.806,0,0,1,2.528-.667,4.307,4.307,0,0,1,3.352,1.343,5.457,5.457,0,0,1,1.223,3.808v1.132h-6.609a2.575,2.575,0,0,0,.811,1.631,2.45,2.45,0,0,0,1.712.614,2.992,2.992,0,0,0,2.5-1.161l1.362,1.525a4.161,4.161,0,0,1-1.688,1.376A5.539,5.539,0,0,1,110.6,46.374Zm-.317-8.518a1.736,1.736,0,0,0-1.338.556A2.874,2.874,0,0,0,108.286,40h3.856v-.221a2.049,2.049,0,0,0-.5-1.424A1.792,1.792,0,0,0,110.281,37.856Z" transform="translate(10.592 176.86)" fill="#fff"/><path d="M12.74,23.754a5,5,0,0,1-2.2,1.444A9.2,9.2,0,0,1,7.4,25.71a6.233,6.233,0,0,1-3.18-.791,5.278,5.278,0,0,1-2.11-2.3,8.085,8.085,0,0,1-.763-3.54v-.95a8.587,8.587,0,0,1,.705-3.621,5.215,5.215,0,0,1,2.034-2.34A5.858,5.858,0,0,1,7.2,11.36a5.833,5.833,0,0,1,3.885,1.185,5.063,5.063,0,0,1,1.659,3.448h-2.8a2.785,2.785,0,0,0-.849-1.755,2.711,2.711,0,0,0-1.808-.556,2.552,2.552,0,0,0-2.235,1.1,5.8,5.8,0,0,0-.777,3.281v.892A5.522,5.522,0,0,0,5.1,22.276,2.858,2.858,0,0,0,7.551,23.4a3.192,3.192,0,0,0,2.312-.691V20.3H7.244V18.18h5.5Zm7.981-6.014a7.531,7.531,0,0,0-1-.077,2.03,2.03,0,0,0-2.062,1.065v6.791H14.889V15.14h2.619l.077,1.237A2.569,2.569,0,0,1,19.9,14.948a2.9,2.9,0,0,1,.863.125Zm7.06,7.779a3.078,3.078,0,0,1-.278-.93,3.354,3.354,0,0,1-2.619,1.122,3.685,3.685,0,0,1-2.528-.882,2.838,2.838,0,0,1-1-2.225,2.933,2.933,0,0,1,1.223-2.532,6.035,6.035,0,0,1,3.535-.892h1.276v-.595a1.71,1.71,0,0,0-.369-1.151A1.453,1.453,0,0,0,25.853,17a1.652,1.652,0,0,0-1.1.336,1.141,1.141,0,0,0-.4.921H21.584a2.785,2.785,0,0,1,.556-1.669,3.677,3.677,0,0,1,1.573-1.2A5.733,5.733,0,0,1,26,14.948a4.53,4.53,0,0,1,3.046.964,3.372,3.372,0,0,1,1.127,2.71v4.5a4.962,4.962,0,0,0,.412,2.235v.163ZM25.488,23.59a2.388,2.388,0,0,0,1.132-.273,1.8,1.8,0,0,0,.767-.734V20.8H26.351q-2.081,0-2.216,1.439l-.01.163a1.11,1.11,0,0,0,.365.854A1.416,1.416,0,0,0,25.488,23.59Zm12.431-.94a.893.893,0,0,0-.5-.8,5.72,5.72,0,0,0-1.616-.523q-3.7-.777-3.7-3.146a2.852,2.852,0,0,1,1.146-2.307,4.624,4.624,0,0,1,3-.926,4.977,4.977,0,0,1,3.161.93A2.932,2.932,0,0,1,40.586,18.3H37.814a1.341,1.341,0,0,0-.384-.983,1.624,1.624,0,0,0-1.2-.388,1.659,1.659,0,0,0-1.084.317,1,1,0,0,0-.384.806.854.854,0,0,0,.436.743,4.49,4.49,0,0,0,1.472.489,12.026,12.026,0,0,1,1.746.465,2.868,2.868,0,0,1,2.2,2.791,2.707,2.707,0,0,1-1.218,2.3,5.255,5.255,0,0,1-3.146.878,5.489,5.489,0,0,1-2.317-.465,3.887,3.887,0,0,1-1.588-1.276,2.964,2.964,0,0,1-.576-1.751H34.4a1.447,1.447,0,0,0,.547,1.132,2.169,2.169,0,0,0,1.362.393,2.007,2.007,0,0,0,1.2-.3A.94.94,0,0,0,37.919,22.65Zm10.1,0a.893.893,0,0,0-.5-.8,5.72,5.72,0,0,0-1.616-.523q-3.7-.777-3.7-3.146a2.852,2.852,0,0,1,1.146-2.307,4.624,4.624,0,0,1,3-.926,4.977,4.977,0,0,1,3.161.93A2.932,2.932,0,0,1,50.687,18.3H47.914a1.341,1.341,0,0,0-.384-.983,1.624,1.624,0,0,0-1.2-.388,1.659,1.659,0,0,0-1.084.317,1,1,0,0,0-.384.806.854.854,0,0,0,.436.743,4.49,4.49,0,0,0,1.472.489,12.026,12.026,0,0,1,1.746.465,2.868,2.868,0,0,1,2.2,2.791,2.707,2.707,0,0,1-1.218,2.3,5.255,5.255,0,0,1-3.146.878,5.489,5.489,0,0,1-2.317-.465,3.887,3.887,0,0,1-1.588-1.276,2.964,2.964,0,0,1-.576-1.751H44.5a1.447,1.447,0,0,0,.547,1.132,2.169,2.169,0,0,0,1.362.393,2.007,2.007,0,0,0,1.2-.3A.94.94,0,0,0,48.02,22.65Zm10.129,2.868V17.173H56.6V15.14h1.544v-.882a3.583,3.583,0,0,1,1-2.71,3.882,3.882,0,0,1,2.806-.964,6.48,6.48,0,0,1,1.41.192l-.029,2.149a3.534,3.534,0,0,0-.844-.086q-1.564,0-1.564,1.468v.835h2.062v2.034H60.931v8.345Zm10.83.192a5.1,5.1,0,0,1-3.717-1.4,4.978,4.978,0,0,1-1.434-3.731V20.31a6.27,6.27,0,0,1,.6-2.8,4.435,4.435,0,0,1,1.712-1.9,4.806,4.806,0,0,1,2.528-.667,4.307,4.307,0,0,1,3.352,1.343A5.457,5.457,0,0,1,73.247,20.1v1.132H66.638a2.575,2.575,0,0,0,.811,1.631,2.45,2.45,0,0,0,1.712.614,2.992,2.992,0,0,0,2.5-1.161l1.362,1.525a4.161,4.161,0,0,1-1.688,1.376A5.539,5.539,0,0,1,68.979,25.71Zm-.317-8.518a1.736,1.736,0,0,0-1.338.556,2.874,2.874,0,0,0-.657,1.592h3.856v-.221a2.049,2.049,0,0,0-.5-1.424A1.792,1.792,0,0,0,68.662,17.192Zm5.727,3.06a6.255,6.255,0,0,1,1.089-3.866,3.532,3.532,0,0,1,2.978-1.439,3.179,3.179,0,0,1,2.5,1.132V10.785h2.782V25.518h-2.5l-.134-1.1a3.262,3.262,0,0,1-2.667,1.295,3.523,3.523,0,0,1-2.94-1.444A6.456,6.456,0,0,1,74.389,20.252Zm2.772.2a4.086,4.086,0,0,0,.508,2.235,1.657,1.657,0,0,0,1.477.777,1.855,1.855,0,0,0,1.813-1.084v-4.1A1.829,1.829,0,0,0,79.166,17.2Q77.161,17.2,77.161,20.454ZM96.8,25.518a3.078,3.078,0,0,1-.278-.93A3.354,3.354,0,0,1,93.9,25.71a3.685,3.685,0,0,1-2.528-.882,2.838,2.838,0,0,1-1-2.225,2.933,2.933,0,0,1,1.223-2.532,6.035,6.035,0,0,1,3.535-.892H96.4v-.595a1.71,1.71,0,0,0-.369-1.151A1.453,1.453,0,0,0,94.868,17a1.652,1.652,0,0,0-1.1.336,1.141,1.141,0,0,0-.4.921H90.6a2.785,2.785,0,0,1,.556-1.669,3.678,3.678,0,0,1,1.573-1.2,5.733,5.733,0,0,1,2.283-.436,4.53,4.53,0,0,1,3.046.964,3.372,3.372,0,0,1,1.127,2.71v4.5a4.962,4.962,0,0,0,.412,2.235v.163ZM94.5,23.59a2.388,2.388,0,0,0,1.132-.273,1.8,1.8,0,0,0,.767-.734V20.8H95.367q-2.081,0-2.216,1.439l-.01.163a1.11,1.11,0,0,0,.365.854A1.416,1.416,0,0,0,94.5,23.59Zm9.362-8.451.086,1.2a3.624,3.624,0,0,1,2.983-1.391,3.011,3.011,0,0,1,2.456.969,4.52,4.52,0,0,1,.825,2.9v6.7h-2.772V18.881a1.8,1.8,0,0,0-.384-1.281,1.718,1.718,0,0,0-1.276-.4,1.907,1.907,0,0,0-1.755,1v7.319h-2.772V15.14Zm8.019,5.113a6.255,6.255,0,0,1,1.089-3.866,3.532,3.532,0,0,1,2.978-1.439,3.179,3.179,0,0,1,2.5,1.132V10.785h2.782V25.518h-2.5l-.134-1.1a3.262,3.262,0,0,1-2.667,1.295,3.523,3.523,0,0,1-2.94-1.444A6.456,6.456,0,0,1,111.885,20.252Zm2.772.2a4.086,4.086,0,0,0,.508,2.235,1.657,1.657,0,0,0,1.477.777,1.855,1.855,0,0,0,1.813-1.084v-4.1a1.829,1.829,0,0,0-1.794-1.084Q114.657,17.2,114.657,20.454ZM2.179,45.163V36.818H.635V34.785H2.179V34.3a3.892,3.892,0,0,1,1.2-3.017,4.843,4.843,0,0,1,3.343-1.06,11.088,11.088,0,0,1,3.146.566l-.4,2.293a12.274,12.274,0,0,0-1.458-.36A7.164,7.164,0,0,0,6.9,32.645q-1.938,0-1.938,1.717v.422H7v2.034H4.961v8.345Zm8.988,0H8.385V34.785h2.782Zm4.844-10.379.086,1.2a3.624,3.624,0,0,1,2.983-1.391,3.011,3.011,0,0,1,2.456.969,4.52,4.52,0,0,1,.825,2.9v6.7H19.589V38.525a1.8,1.8,0,0,0-.384-1.281,1.718,1.718,0,0,0-1.276-.4,1.907,1.907,0,0,0-1.755,1v7.319H13.4V34.785ZM27.387,45.163H24.606V34.785h2.782ZM24.442,32.1a1.365,1.365,0,0,1,.417-1.026,1.8,1.8,0,0,1,2.269,0,1.465,1.465,0,0,1,0,2.062,1.778,1.778,0,0,1-2.254,0A1.361,1.361,0,0,1,24.442,32.1ZM35.291,42.3a.893.893,0,0,0-.5-.8,5.72,5.72,0,0,0-1.616-.523q-3.7-.777-3.7-3.146a2.852,2.852,0,0,1,1.146-2.307,4.624,4.624,0,0,1,3-.926,4.977,4.977,0,0,1,3.161.93,2.932,2.932,0,0,1,1.185,2.417H35.186a1.341,1.341,0,0,0-.384-.983,1.624,1.624,0,0,0-1.2-.388,1.659,1.659,0,0,0-1.084.317,1,1,0,0,0-.384.806.854.854,0,0,0,.436.743,4.49,4.49,0,0,0,1.472.489,12.027,12.027,0,0,1,1.746.465,2.868,2.868,0,0,1,2.2,2.791,2.707,2.707,0,0,1-1.218,2.3,5.255,5.255,0,0,1-3.146.878,5.489,5.489,0,0,1-2.317-.465,3.887,3.887,0,0,1-1.588-1.276,2.964,2.964,0,0,1-.576-1.751h2.628A1.447,1.447,0,0,0,32.318,43a2.169,2.169,0,0,0,1.362.393,2.007,2.007,0,0,0,1.2-.3A.94.94,0,0,0,35.291,42.3Zm7.185-6.379a3.46,3.46,0,0,1,2.772-1.324q3.376,0,3.424,3.923v6.647H45.9V38.593a1.928,1.928,0,0,0-.384-1.319,1.645,1.645,0,0,0-1.276-.427,1.887,1.887,0,0,0-1.765.94v7.376H39.7V30.43h2.772ZM55.54,45.355a5.1,5.1,0,0,1-3.717-1.4,4.978,4.978,0,0,1-1.434-3.731v-.269a6.27,6.27,0,0,1,.6-2.8,4.435,4.435,0,0,1,1.712-1.9,4.806,4.806,0,0,1,2.528-.667,4.307,4.307,0,0,1,3.352,1.343,5.457,5.457,0,0,1,1.223,3.808v1.132H53.2a2.575,2.575,0,0,0,.811,1.631,2.45,2.45,0,0,0,1.712.614,2.992,2.992,0,0,0,2.5-1.161l1.362,1.525A4.161,4.161,0,0,1,57.9,44.861,5.539,5.539,0,0,1,55.54,45.355Zm-.317-8.518a1.736,1.736,0,0,0-1.338.556,2.874,2.874,0,0,0-.657,1.592h3.856v-.221a2.049,2.049,0,0,0-.5-1.424A1.792,1.792,0,0,0,55.224,36.837ZM60.95,39.9a6.255,6.255,0,0,1,1.089-3.866,3.532,3.532,0,0,1,2.978-1.439,3.179,3.179,0,0,1,2.5,1.132V30.43H70.3V45.163H67.8l-.134-1.1A3.262,3.262,0,0,1,65,45.355a3.523,3.523,0,0,1-2.94-1.444A6.456,6.456,0,0,1,60.95,39.9Zm2.772.2a4.086,4.086,0,0,0,.508,2.235,1.657,1.657,0,0,0,1.477.777,1.855,1.855,0,0,0,1.813-1.084v-4.1a1.829,1.829,0,0,0-1.794-1.084Q63.722,36.847,63.722,40.1ZM86.7,40.07a6.285,6.285,0,0,1-1.065,3.89,3.527,3.527,0,0,1-2.974,1.4,3.24,3.24,0,0,1-2.7-1.295l-.125,1.1H77.343V30.43h2.772v5.285a3.157,3.157,0,0,1,2.523-1.122,3.556,3.556,0,0,1,2.978,1.4A6.294,6.294,0,0,1,86.7,39.916Zm-2.772-.2a4.129,4.129,0,0,0-.5-2.3,1.687,1.687,0,0,0-1.487-.724,1.829,1.829,0,0,0-1.823,1.084v4.1a1.853,1.853,0,0,0,1.842,1.094A1.711,1.711,0,0,0,83.722,41.8,6.829,6.829,0,0,0,83.923,39.868Zm9.256,5.487a5.1,5.1,0,0,1-3.717-1.4,4.978,4.978,0,0,1-1.434-3.731v-.269a6.27,6.27,0,0,1,.6-2.8,4.435,4.435,0,0,1,1.712-1.9,4.806,4.806,0,0,1,2.528-.667,4.307,4.307,0,0,1,3.352,1.343,5.457,5.457,0,0,1,1.223,3.808v1.132H90.839a2.575,2.575,0,0,0,.811,1.631,2.45,2.45,0,0,0,1.712.614,2.992,2.992,0,0,0,2.5-1.161l1.362,1.525a4.161,4.161,0,0,1-1.688,1.376A5.539,5.539,0,0,1,93.18,45.355Zm-.317-8.518a1.736,1.736,0,0,0-1.338.556,2.874,2.874,0,0,0-.657,1.592h3.856v-.221a2.049,2.049,0,0,0-.5-1.424A1.792,1.792,0,0,0,92.863,36.837ZM103.8,45.355a5.1,5.1,0,0,1-3.717-1.4,4.978,4.978,0,0,1-1.434-3.731v-.269a6.27,6.27,0,0,1,.6-2.8,4.435,4.435,0,0,1,1.712-1.9,4.806,4.806,0,0,1,2.528-.667,4.307,4.307,0,0,1,3.352,1.343,5.457,5.457,0,0,1,1.223,3.808v1.132h-6.609a2.575,2.575,0,0,0,.811,1.631,2.45,2.45,0,0,0,1.712.614,2.992,2.992,0,0,0,2.5-1.161l1.362,1.525a4.161,4.161,0,0,1-1.688,1.376A5.539,5.539,0,0,1,103.8,45.355Zm-.317-8.518a1.736,1.736,0,0,0-1.338.556,2.874,2.874,0,0,0-.657,1.592h3.856v-.221a2.049,2.049,0,0,0-.5-1.424A1.792,1.792,0,0,0,103.482,36.837Zm6.916,8.326V36.818h-1.544V34.785H110.4V33.9a3.583,3.583,0,0,1,1-2.71,3.882,3.882,0,0,1,2.806-.964,6.48,6.48,0,0,1,1.41.192l-.029,2.149a3.535,3.535,0,0,0-.844-.086q-1.564,0-1.564,1.468v.835h2.062v2.034H113.18v8.345Z" transform="translate(10.437 248.16)" fill="#fff"/><path d="M12.4,14.348H8.124V25.984H5.246V14.348H1.026V12.017H12.4Zm5.861,11.635a3.078,3.078,0,0,1-.278-.93,3.354,3.354,0,0,1-2.619,1.122,3.685,3.685,0,0,1-2.528-.882,2.838,2.838,0,0,1-1-2.225,2.933,2.933,0,0,1,1.223-2.532,6.035,6.035,0,0,1,3.535-.892H17.87v-.595A1.71,1.71,0,0,0,17.5,17.9a1.453,1.453,0,0,0-1.165-.432,1.652,1.652,0,0,0-1.1.336,1.141,1.141,0,0,0-.4.921H12.066a2.785,2.785,0,0,1,.556-1.669,3.678,3.678,0,0,1,1.573-1.2,5.733,5.733,0,0,1,2.283-.436,4.53,4.53,0,0,1,3.046.964,3.372,3.372,0,0,1,1.127,2.71v4.5a4.962,4.962,0,0,0,.412,2.235v.163ZM15.97,24.056a2.388,2.388,0,0,0,1.132-.273,1.8,1.8,0,0,0,.767-.734V21.264H16.834q-2.081,0-2.216,1.439l-.01.163a1.11,1.11,0,0,0,.365.854A1.416,1.416,0,0,0,15.97,24.056Zm12.431-.94a.893.893,0,0,0-.5-.8,5.72,5.72,0,0,0-1.616-.523q-3.7-.777-3.7-3.146a2.852,2.852,0,0,1,1.146-2.307,4.624,4.624,0,0,1,3-.926,4.977,4.977,0,0,1,3.161.93,2.932,2.932,0,0,1,1.185,2.417H28.3a1.341,1.341,0,0,0-.384-.983,1.624,1.624,0,0,0-1.2-.388,1.659,1.659,0,0,0-1.084.317,1,1,0,0,0-.384.806.854.854,0,0,0,.436.743,4.49,4.49,0,0,0,1.472.489,12.026,12.026,0,0,1,1.746.465A2.868,2.868,0,0,1,31.1,23a2.707,2.707,0,0,1-1.218,2.3,5.255,5.255,0,0,1-3.146.878,5.489,5.489,0,0,1-2.317-.465,3.887,3.887,0,0,1-1.588-1.276,2.964,2.964,0,0,1-.576-1.751h2.628a1.447,1.447,0,0,0,.547,1.132,2.169,2.169,0,0,0,1.362.393,2.007,2.007,0,0,0,1.2-.3A.94.94,0,0,0,28.4,23.115Zm7.8-10.062V15.6h1.775v2.034H36.2v5.18a1.237,1.237,0,0,0,.221.825,1.108,1.108,0,0,0,.844.249,4.421,4.421,0,0,0,.815-.067v2.1a5.707,5.707,0,0,1-1.679.249,2.647,2.647,0,0,1-2.974-2.945V17.638H31.913V15.6h1.516V13.053Zm8.1,13.122a5.1,5.1,0,0,1-3.717-1.4,4.978,4.978,0,0,1-1.434-3.731v-.269a6.27,6.27,0,0,1,.6-2.8,4.435,4.435,0,0,1,1.712-1.9,4.806,4.806,0,0,1,2.528-.667,4.307,4.307,0,0,1,3.352,1.343,5.457,5.457,0,0,1,1.223,3.808V21.7H41.956a2.575,2.575,0,0,0,.811,1.631,2.45,2.45,0,0,0,1.712.614,2.992,2.992,0,0,0,2.5-1.161L48.344,24.3a4.161,4.161,0,0,1-1.688,1.376A5.539,5.539,0,0,1,44.3,26.175Zm-.317-8.518a1.736,1.736,0,0,0-1.338.556,2.874,2.874,0,0,0-.657,1.592H45.84v-.221a2.049,2.049,0,0,0-.5-1.424A1.792,1.792,0,0,0,43.98,17.658Zm11.779,5.458a.893.893,0,0,0-.5-.8,5.72,5.72,0,0,0-1.616-.523q-3.7-.777-3.7-3.146a2.852,2.852,0,0,1,1.146-2.307,4.624,4.624,0,0,1,3-.926,4.977,4.977,0,0,1,3.161.93,2.932,2.932,0,0,1,1.185,2.417H55.653a1.341,1.341,0,0,0-.384-.983,1.624,1.624,0,0,0-1.2-.388,1.659,1.659,0,0,0-1.084.317,1,1,0,0,0-.384.806.854.854,0,0,0,.436.743,4.49,4.49,0,0,0,1.472.489,12.026,12.026,0,0,1,1.746.465A2.868,2.868,0,0,1,58.454,23a2.707,2.707,0,0,1-1.218,2.3,5.255,5.255,0,0,1-3.146.878,5.489,5.489,0,0,1-2.317-.465,3.887,3.887,0,0,1-1.588-1.276,2.964,2.964,0,0,1-.576-1.751h2.628a1.447,1.447,0,0,0,.547,1.132,2.169,2.169,0,0,0,1.362.393,2.007,2.007,0,0,0,1.2-.3A.94.94,0,0,0,55.759,23.115Zm8.969-2.4a6.083,6.083,0,0,1,1.137-3.846,3.683,3.683,0,0,1,3.065-1.458,3.23,3.23,0,0,1,2.657,1.17L71.7,15.6h2.513V25.638a4.436,4.436,0,0,1-.619,2.369,3.973,3.973,0,0,1-1.741,1.535,6.12,6.12,0,0,1-2.628.528A5.691,5.691,0,0,1,67,29.614a3.95,3.95,0,0,1-1.64-1.175l1.228-1.688A3.247,3.247,0,0,0,69.1,27.912a2.377,2.377,0,0,0,1.717-.59,2.213,2.213,0,0,0,.614-1.674v-.556a3.206,3.206,0,0,1-2.523,1.084,3.674,3.674,0,0,1-3.026-1.463,6.081,6.081,0,0,1-1.156-3.88Zm2.772.2a3.777,3.777,0,0,0,.566,2.211,1.8,1.8,0,0,0,1.554.8,1.926,1.926,0,0,0,1.813-.95V18.617a1.921,1.921,0,0,0-1.794-.95,1.813,1.813,0,0,0-1.568.815A4.257,4.257,0,0,0,67.5,20.919Zm8.412-.221a6.155,6.155,0,0,1,.595-2.753,4.354,4.354,0,0,1,1.712-1.87,5,5,0,0,1,2.595-.662A4.726,4.726,0,0,1,84.243,16.7a5.159,5.159,0,0,1,1.482,3.492l.019.71a5.425,5.425,0,0,1-1.333,3.832,5.168,5.168,0,0,1-7.161,0,5.52,5.52,0,0,1-1.338-3.914Zm2.772.2a3.869,3.869,0,0,0,.556,2.259,2,2,0,0,0,3.165.01,4.233,4.233,0,0,0,.566-2.47,3.83,3.83,0,0,0-.566-2.245,1.841,1.841,0,0,0-1.592-.8,1.81,1.81,0,0,0-1.573.791A4.3,4.3,0,0,0,78.684,20.9Zm8.336-.2a6.155,6.155,0,0,1,.595-2.753,4.354,4.354,0,0,1,1.712-1.87,5,5,0,0,1,2.595-.662A4.726,4.726,0,0,1,95.35,16.7a5.159,5.159,0,0,1,1.482,3.492l.019.71a5.425,5.425,0,0,1-1.333,3.832,5.168,5.168,0,0,1-7.161,0,5.52,5.52,0,0,1-1.338-3.914Zm2.772.2a3.869,3.869,0,0,0,.556,2.259,2,2,0,0,0,3.165.01,4.233,4.233,0,0,0,.566-2.47,3.83,3.83,0,0,0-.566-2.245,1.841,1.841,0,0,0-1.592-.8,1.81,1.81,0,0,0-1.573.791A4.3,4.3,0,0,0,89.792,20.9Zm8.336-.182a6.255,6.255,0,0,1,1.089-3.866,3.532,3.532,0,0,1,2.978-1.439,3.179,3.179,0,0,1,2.5,1.132V11.25h2.782V25.984h-2.5l-.134-1.1a3.262,3.262,0,0,1-2.667,1.295,3.523,3.523,0,0,1-2.94-1.444A6.456,6.456,0,0,1,98.127,20.717Zm2.772.2a4.086,4.086,0,0,0,.508,2.235,1.657,1.657,0,0,0,1.477.777,1.855,1.855,0,0,0,1.813-1.084v-4.1a1.829,1.829,0,0,0-1.794-1.084Q100.9,17.667,100.9,20.919Zm19.242,2.2a.893.893,0,0,0-.5-.8,5.72,5.72,0,0,0-1.616-.523q-3.7-.777-3.7-3.146a2.852,2.852,0,0,1,1.146-2.307,4.624,4.624,0,0,1,3-.926,4.977,4.977,0,0,1,3.161.93,2.932,2.932,0,0,1,1.185,2.417h-2.772a1.341,1.341,0,0,0-.384-.983,1.624,1.624,0,0,0-1.2-.388,1.659,1.659,0,0,0-1.084.317,1,1,0,0,0-.384.806.854.854,0,0,0,.436.743,4.49,4.49,0,0,0,1.472.489,12.026,12.026,0,0,1,1.746.465,2.868,2.868,0,0,1,2.2,2.791,2.707,2.707,0,0,1-1.218,2.3,5.255,5.255,0,0,1-3.146.878,5.489,5.489,0,0,1-2.317-.465,3.887,3.887,0,0,1-1.588-1.276,2.964,2.964,0,0,1-.576-1.751h2.628a1.447,1.447,0,0,0,.547,1.132,2.169,2.169,0,0,0,1.362.393,2.007,2.007,0,0,0,1.2-.3A.94.94,0,0,0,120.141,23.115Zm7.8-10.062V15.6h1.775v2.034H127.94v5.18a1.237,1.237,0,0,0,.221.825,1.108,1.108,0,0,0,.844.249,4.421,4.421,0,0,0,.815-.067v2.1a5.707,5.707,0,0,1-1.679.249,2.647,2.647,0,0,1-2.974-2.945V17.638h-1.516V15.6h1.516V13.053Zm9.151,5.151a7.531,7.531,0,0,0-1-.077,2.03,2.03,0,0,0-2.062,1.065v6.791h-2.772V15.6h2.619l.077,1.237a2.569,2.569,0,0,1,2.312-1.429,2.9,2.9,0,0,1,.863.125Zm7.06,7.779a3.078,3.078,0,0,1-.278-.93,3.354,3.354,0,0,1-2.619,1.122,3.685,3.685,0,0,1-2.528-.882,2.838,2.838,0,0,1-1-2.225,2.933,2.933,0,0,1,1.223-2.532,6.035,6.035,0,0,1,3.535-.892h1.276v-.595a1.71,1.71,0,0,0-.369-1.151,1.453,1.453,0,0,0-1.165-.432,1.652,1.652,0,0,0-1.1.336,1.141,1.141,0,0,0-.4.921h-2.772a2.785,2.785,0,0,1,.556-1.669,3.678,3.678,0,0,1,1.573-1.2,5.733,5.733,0,0,1,2.283-.436,4.53,4.53,0,0,1,3.046.964,3.372,3.372,0,0,1,1.127,2.71v4.5a4.962,4.962,0,0,0,.412,2.235v.163Zm-2.293-1.928a2.388,2.388,0,0,0,1.132-.273,1.8,1.8,0,0,0,.767-.734V21.264h-1.036q-2.081,0-2.216,1.439l-.01.163a1.11,1.11,0,0,0,.365.854A1.416,1.416,0,0,0,141.858,24.056Zm9.736,1.928h-2.782V15.6h2.782Zm-2.945-13.065a1.365,1.365,0,0,1,.417-1.026,1.8,1.8,0,0,1,2.269,0,1.465,1.465,0,0,1,0,2.062,1.778,1.778,0,0,1-2.254,0A1.361,1.361,0,0,1,148.649,12.919Zm4.825,7.8a6.083,6.083,0,0,1,1.137-3.846,3.683,3.683,0,0,1,3.065-1.458,3.23,3.23,0,0,1,2.657,1.17l.115-.978h2.513V25.638a4.436,4.436,0,0,1-.619,2.369,3.974,3.974,0,0,1-1.741,1.535,6.12,6.12,0,0,1-2.628.528,5.691,5.691,0,0,1-2.225-.456,3.95,3.95,0,0,1-1.64-1.175l1.228-1.688a3.247,3.247,0,0,0,2.513,1.161,2.377,2.377,0,0,0,1.717-.59,2.213,2.213,0,0,0,.614-1.674v-.556a3.206,3.206,0,0,1-2.523,1.084,3.674,3.674,0,0,1-3.026-1.463,6.081,6.081,0,0,1-1.156-3.88Zm2.772.2a3.777,3.777,0,0,0,.566,2.211,1.8,1.8,0,0,0,1.554.8,1.926,1.926,0,0,0,1.813-.95V18.617a1.921,1.921,0,0,0-1.794-.95,1.813,1.813,0,0,0-1.568.815A4.257,4.257,0,0,0,156.246,20.919ZM167.8,16.737a3.46,3.46,0,0,1,2.772-1.324q3.376,0,3.424,3.923v6.647H171.22V19.413a1.928,1.928,0,0,0-.384-1.319,1.645,1.645,0,0,0-1.276-.427,1.887,1.887,0,0,0-1.765.94v7.376h-2.772V11.25H167.8ZM179.4,13.053V15.6h1.775v2.034H179.4v5.18a1.237,1.237,0,0,0,.221.825,1.108,1.108,0,0,0,.844.249,4.421,4.421,0,0,0,.815-.067v2.1a5.707,5.707,0,0,1-1.679.249,2.647,2.647,0,0,1-2.974-2.945V17.638h-1.516V15.6h1.516V13.053ZM2.465,45.628V37.283H.92V35.25H2.465v-.882a3.583,3.583,0,0,1,1-2.71,3.882,3.882,0,0,1,2.806-.964,6.48,6.48,0,0,1,1.41.192l-.029,2.149a3.534,3.534,0,0,0-.844-.086q-1.564,0-1.564,1.468v.835H7.309v2.034H5.246v8.345ZM14.58,37.849a7.531,7.531,0,0,0-1-.077,2.03,2.03,0,0,0-2.062,1.065v6.791H8.748V35.25h2.619l.077,1.237a2.569,2.569,0,0,1,2.312-1.429,2.9,2.9,0,0,1,.863.125Zm.556,2.494a6.155,6.155,0,0,1,.595-2.753,4.354,4.354,0,0,1,1.712-1.87,5,5,0,0,1,2.595-.662,4.726,4.726,0,0,1,3.429,1.285,5.159,5.159,0,0,1,1.482,3.492l.019.71a5.425,5.425,0,0,1-1.333,3.832,4.635,4.635,0,0,1-3.578,1.444,4.658,4.658,0,0,1-3.583-1.439,5.52,5.52,0,0,1-1.338-3.914Zm2.772.2a3.869,3.869,0,0,0,.556,2.259,2,2,0,0,0,3.165.01,4.233,4.233,0,0,0,.566-2.47A3.83,3.83,0,0,0,21.63,38.1a1.841,1.841,0,0,0-1.592-.8,1.81,1.81,0,0,0-1.573.791A4.3,4.3,0,0,0,17.908,40.544ZM29.275,35.25l.086,1.161a3.647,3.647,0,0,1,2.983-1.352A2.768,2.768,0,0,1,35.1,36.64a3.564,3.564,0,0,1,3.117-1.583,3.1,3.1,0,0,1,2.513.983A4.519,4.519,0,0,1,41.553,39v6.628H38.771V39.01a1.976,1.976,0,0,0-.345-1.29,1.53,1.53,0,0,0-1.218-.408A1.73,1.73,0,0,0,35.481,38.5l.01,7.127H32.718V39.019a1.952,1.952,0,0,0-.355-1.3,1.545,1.545,0,0,0-1.209-.4,1.8,1.8,0,0,0-1.707.978v7.338H26.675V35.25ZM51.893,32.7V35.25h1.775v2.034H51.893v5.18a1.237,1.237,0,0,0,.221.825,1.108,1.108,0,0,0,.844.249,4.421,4.421,0,0,0,.815-.067v2.1a5.707,5.707,0,0,1-1.679.249,2.647,2.647,0,0,1-2.974-2.945V37.283H47.605V35.25h1.516V32.7Zm6.024,3.683a3.46,3.46,0,0,1,2.772-1.324q3.376,0,3.424,3.923v6.647H61.341V39.058a1.928,1.928,0,0,0-.384-1.319,1.645,1.645,0,0,0-1.276-.427,1.887,1.887,0,0,0-1.765.94v7.376H55.145V30.895h2.772ZM70.981,45.82a5.1,5.1,0,0,1-3.717-1.4,4.978,4.978,0,0,1-1.434-3.731V40.42a6.27,6.27,0,0,1,.6-2.8,4.435,4.435,0,0,1,1.712-1.9,4.806,4.806,0,0,1,2.528-.667A4.307,4.307,0,0,1,74.027,36.4a5.457,5.457,0,0,1,1.223,3.808v1.132H68.641a2.575,2.575,0,0,0,.811,1.631,2.45,2.45,0,0,0,1.712.614,2.992,2.992,0,0,0,2.5-1.161l1.362,1.525a4.161,4.161,0,0,1-1.688,1.376A5.539,5.539,0,0,1,70.981,45.82ZM70.665,37.3a1.736,1.736,0,0,0-1.338.556,2.874,2.874,0,0,0-.657,1.592h3.856V39.23a2.049,2.049,0,0,0-.5-1.424A1.792,1.792,0,0,0,70.665,37.3Zm20.4,3.233A6.285,6.285,0,0,1,90,44.424a3.527,3.527,0,0,1-2.974,1.4,3.24,3.24,0,0,1-2.7-1.295l-.125,1.1H81.715V30.895h2.772V36.18a3.157,3.157,0,0,1,2.523-1.122,3.556,3.556,0,0,1,2.978,1.4,6.294,6.294,0,0,1,1.079,3.928Zm-2.772-.2a4.129,4.129,0,0,0-.5-2.3,1.687,1.687,0,0,0-1.487-.724A1.829,1.829,0,0,0,84.487,38.4v4.1a1.853,1.853,0,0,0,1.842,1.094,1.711,1.711,0,0,0,1.765-1.324A6.829,6.829,0,0,0,88.3,40.333Zm10.494,5.295a3.078,3.078,0,0,1-.278-.93,3.354,3.354,0,0,1-2.619,1.122,3.685,3.685,0,0,1-2.528-.882,2.838,2.838,0,0,1-1-2.225,2.933,2.933,0,0,1,1.223-2.532,6.035,6.035,0,0,1,3.535-.892H98.4v-.595a1.71,1.71,0,0,0-.369-1.151,1.453,1.453,0,0,0-1.165-.432,1.652,1.652,0,0,0-1.1.336,1.141,1.141,0,0,0-.4.921H92.593a2.785,2.785,0,0,1,.556-1.669,3.678,3.678,0,0,1,1.573-1.2,5.733,5.733,0,0,1,2.283-.436,4.53,4.53,0,0,1,3.046.964,3.372,3.372,0,0,1,1.127,2.71v4.5a4.962,4.962,0,0,0,.412,2.235v.163ZM96.5,43.7a2.388,2.388,0,0,0,1.132-.273,1.8,1.8,0,0,0,.767-.734V40.909H97.36q-2.081,0-2.216,1.439l-.01.163a1.11,1.11,0,0,0,.365.854A1.416,1.416,0,0,0,96.5,43.7Zm6.408-3.338a6.083,6.083,0,0,1,1.137-3.846,3.683,3.683,0,0,1,3.065-1.458,3.23,3.23,0,0,1,2.657,1.17l.115-.978h2.513V45.283a4.436,4.436,0,0,1-.619,2.369,3.973,3.973,0,0,1-1.741,1.535,6.12,6.12,0,0,1-2.628.528,5.691,5.691,0,0,1-2.225-.456,3.95,3.95,0,0,1-1.64-1.175l1.228-1.688a3.247,3.247,0,0,0,2.513,1.161,2.377,2.377,0,0,0,1.717-.59,2.213,2.213,0,0,0,.614-1.674v-.556a3.206,3.206,0,0,1-2.523,1.084,3.674,3.674,0,0,1-3.026-1.463,6.081,6.081,0,0,1-1.156-3.88Zm2.772.2a3.777,3.777,0,0,0,.566,2.211,1.8,1.8,0,0,0,1.554.8,1.926,1.926,0,0,0,1.813-.95V38.262a1.921,1.921,0,0,0-1.794-.95,1.813,1.813,0,0,0-1.568.815A4.257,4.257,0,0,0,105.676,40.564Z" transform="translate(10.238 313.672)" fill="#fff"/><path d="M53.349,14.705a6.485,6.485,0,0,1-.561,2.782,4.223,4.223,0,0,1-1.6,1.845,4.742,4.742,0,0,1-4.778.007,4.265,4.265,0,0,1-1.623-1.834,6.3,6.3,0,0,1-.583-2.741v-.531a6.451,6.451,0,0,1,.572-2.793,4.258,4.258,0,0,1,1.616-1.852,4.735,4.735,0,0,1,4.774,0,4.258,4.258,0,0,1,1.616,1.852,6.433,6.433,0,0,1,.572,2.785Zm-2.243-.487a4.521,4.521,0,0,0-.605-2.568,2.137,2.137,0,0,0-3.446-.011,4.469,4.469,0,0,0-.612,2.542v.524a4.578,4.578,0,0,0,.605,2.553,2.119,2.119,0,0,0,3.453.033,4.551,4.551,0,0,0,.605-2.549ZM57.37,9.887V11.85h1.365v1.564H57.37V17.4a.951.951,0,0,0,.17.635.852.852,0,0,0,.649.192,3.4,3.4,0,0,0,.627-.052v1.616a4.39,4.39,0,0,1-1.291.192,2.036,2.036,0,0,1-2.287-2.265v-4.3H54.072V11.85h1.166V9.887ZM62,12.721A2.661,2.661,0,0,1,64.136,11.7q2.6,0,2.634,3.018v5.113H64.638V14.779a1.483,1.483,0,0,0-.3-1.015,1.265,1.265,0,0,0-.981-.328A1.451,1.451,0,0,0,62,14.159v5.674H59.871V8.5H62Zm10.05,7.261A3.919,3.919,0,0,1,69.194,18.9a3.829,3.829,0,0,1-1.1-2.87v-.207a4.823,4.823,0,0,1,.465-2.151,3.412,3.412,0,0,1,1.317-1.461,3.7,3.7,0,0,1,1.944-.513A3.313,3.313,0,0,1,74.4,12.735a4.2,4.2,0,0,1,.941,2.929v.871H70.253a1.981,1.981,0,0,0,.623,1.254,1.885,1.885,0,0,0,1.317.472,2.3,2.3,0,0,0,1.926-.893l1.048,1.173a3.2,3.2,0,0,1-1.3,1.059A4.261,4.261,0,0,1,72.053,19.981Zm-.243-6.552a1.335,1.335,0,0,0-1.029.428,2.211,2.211,0,0,0-.505,1.225h2.966v-.17a1.576,1.576,0,0,0-.384-1.1A1.378,1.378,0,0,0,71.81,13.429Zm9.223.421a5.793,5.793,0,0,0-.767-.059,1.562,1.562,0,0,0-1.586.819v5.224H76.547V11.85h2.014l.059.952A1.976,1.976,0,0,1,80.4,11.7a2.234,2.234,0,0,1,.664.1Zm11.983,2.066a4.834,4.834,0,0,1-.819,2.992,2.713,2.713,0,0,1-2.287,1.074,2.493,2.493,0,0,1-2.073-1l-.1.849H85.822V8.5h2.132v4.066a2.429,2.429,0,0,1,1.941-.863,2.735,2.735,0,0,1,2.291,1.074,4.841,4.841,0,0,1,.83,3.022Zm-2.132-.155a3.176,3.176,0,0,0-.384-1.767,1.3,1.3,0,0,0-1.144-.557,1.407,1.407,0,0,0-1.4.834v3.151a1.426,1.426,0,0,0,1.417.841,1.316,1.316,0,0,0,1.358-1.018A5.253,5.253,0,0,0,90.883,15.761Zm7.932-1.911a5.793,5.793,0,0,0-.767-.059,1.562,1.562,0,0,0-1.586.819v5.224H94.329V11.85h2.014l.059.952a1.976,1.976,0,0,1,1.778-1.1,2.234,2.234,0,0,1,.664.1Zm.428,1.918A4.735,4.735,0,0,1,99.7,13.65a3.349,3.349,0,0,1,1.317-1.439,3.843,3.843,0,0,1,2-.509,3.635,3.635,0,0,1,2.638.989,3.968,3.968,0,0,1,1.14,2.686l.015.546a4.173,4.173,0,0,1-1.026,2.948,3.975,3.975,0,0,1-5.508,0,4.246,4.246,0,0,1-1.029-3.01Zm2.132.155a2.976,2.976,0,0,0,.428,1.738,1.539,1.539,0,0,0,2.435.007,3.257,3.257,0,0,0,.435-1.9,2.946,2.946,0,0,0-.435-1.727,1.416,1.416,0,0,0-1.225-.612,1.393,1.393,0,0,0-1.21.609A3.311,3.311,0,0,0,101.376,15.923Zm9.3-6.036V11.85h1.365v1.564h-1.365V17.4a.951.951,0,0,0,.17.635.852.852,0,0,0,.649.192,3.4,3.4,0,0,0,.627-.052v1.616a4.39,4.39,0,0,1-1.291.192,2.036,2.036,0,0,1-2.287-2.265v-4.3h-1.166V11.85h1.166V9.887Zm4.634,2.833a2.661,2.661,0,0,1,2.132-1.018q2.6,0,2.634,3.018v5.113h-2.132V14.779a1.483,1.483,0,0,0-.3-1.015,1.265,1.265,0,0,0-.981-.328,1.451,1.451,0,0,0-1.358.723v5.674h-2.132V8.5h2.132ZM59.753,31.495l.066.893a2.806,2.806,0,0,1,2.295-1.04,2.129,2.129,0,0,1,2.118,1.217,2.741,2.741,0,0,1,2.4-1.217,2.381,2.381,0,0,1,1.933.756A3.476,3.476,0,0,1,69.2,34.38v5.1h-2.14V34.387a1.52,1.52,0,0,0-.266-.992,1.177,1.177,0,0,0-.937-.314A1.331,1.331,0,0,0,64.527,34l.007,5.482H62.4V34.394a1.5,1.5,0,0,0-.273-1,1.189,1.189,0,0,0-.93-.31,1.382,1.382,0,0,0-1.313.753v5.645H57.754V31.495Zm15.709,7.984a2.368,2.368,0,0,1-.214-.716,2.58,2.58,0,0,1-2.014.863,2.835,2.835,0,0,1-1.944-.679,2.183,2.183,0,0,1-.771-1.712,2.256,2.256,0,0,1,.941-1.948,4.642,4.642,0,0,1,2.719-.686h.981v-.457a1.316,1.316,0,0,0-.284-.885,1.118,1.118,0,0,0-.9-.332,1.27,1.27,0,0,0-.845.258.877.877,0,0,0-.306.708H70.7a2.142,2.142,0,0,1,.428-1.284,2.829,2.829,0,0,1,1.21-.926,4.41,4.41,0,0,1,1.756-.336,3.484,3.484,0,0,1,2.343.742,2.594,2.594,0,0,1,.867,2.084v3.461a3.817,3.817,0,0,0,.317,1.719v.125ZM73.7,38a1.837,1.837,0,0,0,.871-.21,1.381,1.381,0,0,0,.59-.564V35.848h-.8q-1.6,0-1.7,1.107l-.007.125a.854.854,0,0,0,.28.657A1.089,1.089,0,0,0,73.7,38Zm8.139-1.719-.767.767v2.435H78.937V28.145H81.07v6.279l.413-.531,2.044-2.4h2.56L83.2,34.822l3.136,4.656h-2.45Zm8.7,3.35a3.919,3.919,0,0,1-2.859-1.077,3.829,3.829,0,0,1-1.1-2.87v-.207a4.823,4.823,0,0,1,.465-2.151,3.411,3.411,0,0,1,1.317-1.461,3.7,3.7,0,0,1,1.944-.513,3.313,3.313,0,0,1,2.579,1.033,4.2,4.2,0,0,1,.941,2.929v.871H88.736a1.981,1.981,0,0,0,.623,1.254,1.885,1.885,0,0,0,1.317.472,2.3,2.3,0,0,0,1.926-.893l1.048,1.173a3.2,3.2,0,0,1-1.3,1.059A4.261,4.261,0,0,1,90.537,39.626Zm-.243-6.552a1.335,1.335,0,0,0-1.029.428,2.211,2.211,0,0,0-.505,1.225h2.966v-.17a1.576,1.576,0,0,0-.384-1.1A1.378,1.378,0,0,0,90.293,33.074Zm9.223.421a5.793,5.793,0,0,0-.767-.059,1.562,1.562,0,0,0-1.586.819v5.224H95.03V31.495h2.014l.059.952a1.976,1.976,0,0,1,1.778-1.1,2.234,2.234,0,0,1,.664.1Zm5.349,3.778a.687.687,0,0,0-.387-.616,4.4,4.4,0,0,0-1.243-.4q-2.848-.6-2.848-2.42a2.194,2.194,0,0,1,.882-1.775,3.557,3.557,0,0,1,2.306-.712,3.828,3.828,0,0,1,2.431.716,2.256,2.256,0,0,1,.911,1.859h-2.132a1.032,1.032,0,0,0-.3-.756,1.249,1.249,0,0,0-.922-.3,1.276,1.276,0,0,0-.834.243.769.769,0,0,0-.3.62.657.657,0,0,0,.336.572,3.454,3.454,0,0,0,1.133.376,9.251,9.251,0,0,1,1.343.358,2.206,2.206,0,0,1,1.69,2.147A2.083,2.083,0,0,1,106,38.951a4.042,4.042,0,0,1-2.42.675,4.222,4.222,0,0,1-1.782-.358,2.99,2.99,0,0,1-1.221-.981,2.28,2.28,0,0,1-.443-1.347h2.022a1.113,1.113,0,0,0,.421.871,1.668,1.668,0,0,0,1.048.3,1.544,1.544,0,0,0,.926-.232A.723.723,0,0,0,104.866,37.272Z" transform="translate(270.614 -1.629)"/><path d="M411.5-.593H0V-1.5H411.5Z" transform="translate(0.13 113.571)" fill="#fff"/><path d="M411.5-.593H0V-1.5H411.5Z" transform="translate(0.13 176.678)" fill="#fff"/><path d="M411.5-.593H0V-1.5H411.5Z" transform="translate(0.13 239.786)" fill="#fff"/><path d="M411.5-.593H0V-1.5H411.5Z" transform="translate(0.13 310.887)" fill="#fff"/><g transform="translate(337.793 64.501)"><path d="M15.035,1.511A13.528,13.528,0,0,0,9.771,27.5,13.528,13.528,0,0,0,20.3,2.573a13.438,13.438,0,0,0-5.264-1.062m0-1.511A15.035,15.035,0,1,1,0,15.035,15.035,15.035,0,0,1,15.035,0Z" fill="#fff"/><g transform="translate(7.447 7.447)"><path d="M-1.4,11.64-3.536,9.5,9.5-3.536,11.64-1.4Z" transform="translate(3.536 3.536)" fill="#fff"/><path d="M9.5,11.64-3.536-1.4-1.4-3.536,11.64,9.5Z" transform="translate(3.536 3.536)" fill="#fff"/></g></g><g transform="translate(337.793 127.609)"><path d="M15.035,1.511A13.528,13.528,0,0,0,9.771,27.5,13.528,13.528,0,0,0,20.3,2.573a13.438,13.438,0,0,0-5.264-1.062m0-1.511A15.035,15.035,0,1,1,0,15.035,15.035,15.035,0,0,1,15.035,0Z" transform="translate(0 0)" fill="#fff"/><g transform="translate(7.447 7.447)"><path d="M-1.4,11.64-3.536,9.5,9.5-3.536,11.64-1.4Z" transform="translate(3.536 3.536)" fill="#fff"/><path d="M9.5,11.64-3.536-1.4-1.4-3.536,11.64,9.5Z" transform="translate(3.536 3.536)" fill="#fff"/></g></g><g transform="translate(337.793 190.717)"><path d="M15.035,1.511A13.528,13.528,0,0,0,9.771,27.5,13.528,13.528,0,0,0,20.3,2.573a13.438,13.438,0,0,0-5.264-1.062m0-1.511A15.035,15.035,0,1,1,0,15.035,15.035,15.035,0,0,1,15.035,0Z" transform="translate(0 0)" fill="#fff"/><g transform="translate(7.447 7.447)"><path d="M-1.4,11.64-3.536,9.5,9.5-3.536,11.64-1.4Z" transform="translate(3.536 3.536)" fill="#fff"/><path d="M9.5,11.64-3.536-1.4-1.4-3.536,11.64,9.5Z" transform="translate(3.536 3.536)" fill="#fff"/></g></g><g transform="translate(337.793 261.818)"><path d="M15.035,1.511A13.528,13.528,0,0,0,9.771,27.5,13.528,13.528,0,0,0,20.3,2.573a13.438,13.438,0,0,0-5.264-1.062m0-1.511A15.035,15.035,0,1,1,0,15.035,15.035,15.035,0,0,1,15.035,0Z" fill="#fff"/><g transform="translate(7.447 7.447)"><path d="M-1.4,11.64-3.536,9.5,9.5-3.536,11.64-1.4Z" transform="translate(3.536 3.536)" fill="#fff"/><path d="M9.5,11.64-3.536-1.4-1.4-3.536,11.64,9.5Z" transform="translate(3.536 3.536)" fill="#fff"/></g></g><g transform="translate(337.793 332.919)"><path d="M15.035,1.511A13.528,13.528,0,0,0,9.771,27.5,13.528,13.528,0,0,0,20.3,2.573a13.438,13.438,0,0,0-5.264-1.062m0-1.511A15.035,15.035,0,1,1,0,15.035,15.035,15.035,0,0,1,15.035,0Z" transform="translate(0 0)" fill="#fff"/><g transform="translate(7.447 7.447)"><path d="M-1.4,11.64-3.536,9.5,9.5-3.536,11.64-1.4Z" transform="translate(3.536 3.536)" fill="#fff"/><path d="M9.5,11.64-3.536-1.4-1.4-3.536,11.64,9.5Z" transform="translate(3.536 3.536)" fill="#fff"/></g></g><g transform="translate(241.828 64.501)"><path d="M15.035,1.511A13.528,13.528,0,0,0,9.771,27.5,13.528,13.528,0,0,0,20.3,2.573a13.438,13.438,0,0,0-5.264-1.062m0-1.511A15.035,15.035,0,1,1,0,15.035,15.035,15.035,0,0,1,15.035,0Z" transform="translate(0)" fill="#488a00"/><path d="M12939.387-2624.134c-.035,0-.068,0-.1,0a1.212,1.212,0,0,1-.9-.516l-2.164-3.125a1.209,1.209,0,0,1,.306-1.682,1.209,1.209,0,0,1,1.683.305l1.325,1.914,9.09-9.391a1.209,1.209,0,0,1,1.709-.028,1.21,1.21,0,0,1,.028,1.709l-10.113,10.449A1.21,1.21,0,0,1,12939.387-2624.134Z" transform="translate(-12929.405 2645.602)" fill="#488a00"/></g><g transform="translate(241.828 127.609)"><path d="M15.035,1.511A13.528,13.528,0,0,0,9.771,27.5,13.528,13.528,0,0,0,20.3,2.573a13.438,13.438,0,0,0-5.264-1.062m0-1.511A15.035,15.035,0,1,1,0,15.035,15.035,15.035,0,0,1,15.035,0Z" transform="translate(0)" fill="#488a00"/><path d="M12939.387-2624.134c-.035,0-.068,0-.1,0a1.212,1.212,0,0,1-.9-.516l-2.164-3.125a1.209,1.209,0,0,1,.306-1.682,1.209,1.209,0,0,1,1.683.305l1.325,1.914,9.09-9.391a1.209,1.209,0,0,1,1.709-.028,1.21,1.21,0,0,1,.028,1.709l-10.113,10.449A1.21,1.21,0,0,1,12939.387-2624.134Z" transform="translate(-12929.405 2645.602)" fill="#488a00"/></g><g transform="translate(241.828 190.717)"><path d="M15.035,1.511A13.528,13.528,0,0,0,9.771,27.5,13.528,13.528,0,0,0,20.3,2.573a13.438,13.438,0,0,0-5.264-1.062m0-1.511A15.035,15.035,0,1,1,0,15.035,15.035,15.035,0,0,1,15.035,0Z" transform="translate(0)" fill="#488a00"/><path d="M12939.387-2624.134c-.035,0-.068,0-.1,0a1.212,1.212,0,0,1-.9-.516l-2.164-3.125a1.209,1.209,0,0,1,.306-1.682,1.209,1.209,0,0,1,1.683.305l1.325,1.914,9.09-9.391a1.209,1.209,0,0,1,1.709-.028,1.21,1.21,0,0,1,.028,1.709l-10.113,10.449A1.21,1.21,0,0,1,12939.387-2624.134Z" transform="translate(-12929.405 2645.602)" fill="#488a00"/></g><g transform="translate(241.828 261.818)"><path d="M15.035,1.511A13.528,13.528,0,0,0,9.771,27.5,13.528,13.528,0,0,0,20.3,2.573a13.438,13.438,0,0,0-5.264-1.062m0-1.511A15.035,15.035,0,1,1,0,15.035,15.035,15.035,0,0,1,15.035,0Z" transform="translate(0)" fill="#488a00"/><path d="M12939.387-2624.134c-.035,0-.068,0-.1,0a1.212,1.212,0,0,1-.9-.516l-2.164-3.125a1.209,1.209,0,0,1,.306-1.682,1.209,1.209,0,0,1,1.683.305l1.325,1.914,9.09-9.391a1.209,1.209,0,0,1,1.709-.028,1.21,1.21,0,0,1,.028,1.709l-10.113,10.449A1.21,1.21,0,0,1,12939.387-2624.134Z" transform="translate(-12929.405 2645.602)" fill="#488a00"/></g><g transform="translate(241.828 332.919)"><path d="M15.035,1.511A13.528,13.528,0,0,0,9.771,27.5,13.528,13.528,0,0,0,20.3,2.573a13.438,13.438,0,0,0-5.264-1.062m0-1.511A15.035,15.035,0,1,1,0,15.035,15.035,15.035,0,0,1,15.035,0Z" transform="translate(0)" fill="#488a00"/><path d="M12939.387-2624.134c-.035,0-.068,0-.1,0a1.212,1.212,0,0,1-.9-.516l-2.164-3.125a1.209,1.209,0,0,1,.306-1.682,1.209,1.209,0,0,1,1.683.305l1.325,1.914,9.09-9.391a1.209,1.209,0,0,1,1.709-.028,1.21,1.21,0,0,1,.028,1.709l-10.113,10.449A1.21,1.21,0,0,1,12939.387-2624.134Z" transform="translate(-12929.405 2645.602)" fill="#488a00"/></g></g></g></g></svg>