<svg xmlns="http://www.w3.org/2000/svg" xmlns:xlink="http://www.w3.org/1999/xlink" width="700" height="700" viewBox="0 0 700 700"><defs><clipPath id="b"><rect width="700" height="700"/></clipPath></defs><g id="a" clip-path="url(#b)"><g transform="translate(5.108 -2026.446)"><rect width="1.646" height="9.874" transform="translate(82.583 2583.909)" fill="#fff"/><path d="M0,0H1.646V9.874H0Z" transform="translate(82.583 2583.909)" fill="#707070"/><rect width="1.646" height="9.874" transform="translate(74.354 2583.909)" fill="#fff"/><path d="M0,0H1.646V9.874H0Z" transform="translate(74.354 2583.909)" fill="#707070"/><rect width="1.646" height="9.874" transform="translate(79.291 2583.909)" fill="#fff"/><path d="M0,0H1.646V9.874H0Z" transform="translate(79.291 2583.909)" fill="#707070"/><path d="M592.445,1.146H0V-.5H592.445Z" transform="translate(57.075 2232.233)" fill="#fff"/><path d="M592.445,1.146H0V-.5H592.445Z" transform="translate(57.075 2335.911)" fill="#fff"/><path d="M592.445,1.146H0V-.5H592.445Z" transform="translate(57.075 2439.589)" fill="#fff"/><path d="M592.445,1.146H0V-.5H592.445Z" transform="translate(57.075 2543.267)" fill="#fff"/><g transform="translate(7.184 2054)"><path d="M24.371,0H652.83A24.371,24.371,0,0,1,677.2,24.371V529.664a24.371,24.371,0,0,1-24.371,24.371H24.371A24.371,24.371,0,0,1,0,529.664V24.371A24.371,24.371,0,0,1,24.371,0Z" transform="translate(0 74.243)" fill="#488a00"/><path d="M24.371.5A23.853,23.853,0,0,0,.5,24.371V529.664a23.853,23.853,0,0,0,23.874,23.874H652.83A23.853,23.853,0,0,0,676.7,529.664V24.371A23.853,23.853,0,0,0,652.83.5H24.371m0-.5H652.83A24.371,24.371,0,0,1,677.2,24.371V529.664a24.371,24.371,0,0,1-24.371,24.371H24.371A24.371,24.371,0,0,1,0,529.664V24.371A24.371,24.371,0,0,1,24.371,0Z" transform="translate(0 74.243)" fill="#707070"/><path d="M24.371,0H122.4A24.371,24.371,0,0,1,146.77,24.371V620.215A24.371,24.371,0,0,1,122.4,644.586H24.371A24.371,24.371,0,0,1,0,620.215V24.371A24.371,24.371,0,0,1,24.371,0Z" transform="translate(349.329 0)" fill="#fff"/><path d="M24.371.5A23.853,23.853,0,0,0,.5,24.371V620.215a23.853,23.853,0,0,0,23.874,23.874H122.4a23.853,23.853,0,0,0,23.874-23.874V24.371A23.853,23.853,0,0,0,122.4.5H24.371m0-.5H122.4A24.371,24.371,0,0,1,146.77,24.371V620.215A24.371,24.371,0,0,1,122.4,644.586H24.371A24.371,24.371,0,0,1,0,620.215V24.371A24.371,24.371,0,0,1,24.371,0Z" transform="translate(349.329 0)" fill="#707070"/><path d="M677.2-.008H0V-1.5H677.2Z" transform="translate(0.215 185.933)" fill="#fff"/><path d="M677.2-.008H0V-1.5H677.2Z" transform="translate(0.215 289.788)" fill="#fff"/><path d="M677.2-.008H0V-1.5H677.2Z" transform="translate(0.215 393.642)" fill="#fff"/><path d="M677.2-.008H0V-1.5H677.2Z" transform="translate(0.215 510.652)" fill="#fff"/><g transform="translate(555.9 106.149)"><path d="M24.742,2.487A22.262,22.262,0,0,0,16.08,45.25,22.262,22.262,0,0,0,33.4,4.235a22.114,22.114,0,0,0-8.662-1.748m0-2.487A24.742,24.742,0,1,1,0,24.742,24.742,24.742,0,0,1,24.742,0Z" fill="#fff"/><g transform="translate(12.255 12.255)"><path d="M-.019,21.439l-3.517-3.517L17.922-3.536,21.439-.019Z" transform="translate(3.536 3.536)" fill="#fff"/><path d="M17.922,21.439-3.536-.019-.019-3.536,21.439,17.922Z" transform="translate(3.536 3.536)" fill="#fff"/></g></g><g transform="translate(555.9 210.004)"><path d="M24.742,2.487A22.262,22.262,0,0,0,16.08,45.25,22.262,22.262,0,0,0,33.4,4.235a22.114,22.114,0,0,0-8.662-1.748m0-2.487A24.742,24.742,0,1,1,0,24.742,24.742,24.742,0,0,1,24.742,0Z" transform="translate(0 0)" fill="#fff"/><g transform="translate(12.255 12.255)"><path d="M-.019,21.439l-3.517-3.517L17.922-3.536,21.439-.019Z" transform="translate(3.536 3.536)" fill="#fff"/><path d="M17.922,21.439-3.536-.019-.019-3.536,21.439,17.922Z" transform="translate(3.536 3.536)" fill="#fff"/></g></g><g transform="translate(555.9 313.858)"><path d="M24.742,2.487A22.262,22.262,0,0,0,16.08,45.25,22.262,22.262,0,0,0,33.4,4.235a22.114,22.114,0,0,0-8.662-1.748m0-2.487A24.742,24.742,0,1,1,0,24.742,24.742,24.742,0,0,1,24.742,0Z" transform="translate(0 0)" fill="#fff"/><g transform="translate(12.255 12.255)"><path d="M-.019,21.439l-3.517-3.517L17.922-3.536,21.439-.019Z" transform="translate(3.536 3.536)" fill="#fff"/><path d="M17.922,21.439-3.536-.019-.019-3.536,21.439,17.922Z" transform="translate(3.536 3.536)" fill="#fff"/></g></g><g transform="translate(555.9 430.868)"><path d="M24.742,2.487A22.262,22.262,0,0,0,16.08,45.25,22.262,22.262,0,0,0,33.4,4.235a22.114,22.114,0,0,0-8.662-1.748m0-2.487A24.742,24.742,0,1,1,0,24.742,24.742,24.742,0,0,1,24.742,0Z" fill="#fff"/><g transform="translate(12.255 12.255)"><path d="M-.019,21.439l-3.517-3.517L17.922-3.536,21.439-.019Z" transform="translate(3.536 3.536)" fill="#fff"/><path d="M17.922,21.439-3.536-.019-.019-3.536,21.439,17.922Z" transform="translate(3.536 3.536)" fill="#fff"/></g></g><g transform="translate(555.9 547.878)"><path d="M24.742,2.487A22.262,22.262,0,0,0,16.08,45.25,22.262,22.262,0,0,0,33.4,4.235a22.114,22.114,0,0,0-8.662-1.748m0-2.487A24.742,24.742,0,1,1,0,24.742,24.742,24.742,0,0,1,24.742,0Z" transform="translate(0 0)" fill="#fff"/><g transform="translate(12.255 12.255)"><path d="M-.019,21.439l-3.517-3.517L17.922-3.536,21.439-.019Z" transform="translate(3.536 3.536)" fill="#fff"/><path d="M17.922,21.439-3.536-.019-.019-3.536,21.439,17.922Z" transform="translate(3.536 3.536)" fill="#fff"/></g></g><g transform="translate(397.971 106.149)"><path d="M24.742,2.487A22.262,22.262,0,0,0,16.08,45.25,22.262,22.262,0,0,0,33.4,4.235a22.114,22.114,0,0,0-8.662-1.748m0-2.487A24.742,24.742,0,1,1,0,24.742,24.742,24.742,0,0,1,24.742,0Z" transform="translate(0)" fill="#488a00"/><path d="M12941.565-2615.827c-.059,0-.113,0-.166-.006a1.992,1.992,0,0,1-1.473-.849l-3.562-5.143a1.988,1.988,0,0,1,.5-2.768,1.99,1.99,0,0,1,2.77.5l2.18,3.15,14.959-15.455a1.989,1.989,0,0,1,2.813-.046,1.991,1.991,0,0,1,.047,2.813l-16.643,17.2A2,2,0,0,1,12941.565-2615.827Z" transform="translate(-12925.139 2651.156)" fill="#488a00"/></g><g transform="translate(397.971 210.004)"><path d="M24.742,2.487A22.262,22.262,0,0,0,16.08,45.25,22.262,22.262,0,0,0,33.4,4.235a22.114,22.114,0,0,0-8.662-1.748m0-2.487A24.742,24.742,0,1,1,0,24.742,24.742,24.742,0,0,1,24.742,0Z" transform="translate(0)" fill="#488a00"/><path d="M12941.565-2615.827c-.059,0-.113,0-.166-.006a1.992,1.992,0,0,1-1.473-.849l-3.562-5.143a1.988,1.988,0,0,1,.5-2.768,1.99,1.99,0,0,1,2.77.5l2.18,3.15,14.959-15.455a1.989,1.989,0,0,1,2.813-.046,1.991,1.991,0,0,1,.047,2.813l-16.643,17.2A2,2,0,0,1,12941.565-2615.827Z" transform="translate(-12925.139 2651.156)" fill="#488a00"/></g><g transform="translate(397.971 313.858)"><path d="M24.742,2.487A22.262,22.262,0,0,0,16.08,45.25,22.262,22.262,0,0,0,33.4,4.235a22.114,22.114,0,0,0-8.662-1.748m0-2.487A24.742,24.742,0,1,1,0,24.742,24.742,24.742,0,0,1,24.742,0Z" transform="translate(0)" fill="#488a00"/><path d="M12941.565-2615.827c-.059,0-.113,0-.166-.006a1.992,1.992,0,0,1-1.473-.849l-3.562-5.143a1.988,1.988,0,0,1,.5-2.768,1.99,1.99,0,0,1,2.77.5l2.18,3.15,14.959-15.455a1.989,1.989,0,0,1,2.813-.046,1.991,1.991,0,0,1,.047,2.813l-16.643,17.2A2,2,0,0,1,12941.565-2615.827Z" transform="translate(-12925.139 2651.156)" fill="#488a00"/></g><g transform="translate(397.971 430.868)"><path d="M24.742,2.487A22.262,22.262,0,0,0,16.08,45.25,22.262,22.262,0,0,0,33.4,4.235a22.114,22.114,0,0,0-8.662-1.748m0-2.487A24.742,24.742,0,1,1,0,24.742,24.742,24.742,0,0,1,24.742,0Z" transform="translate(0)" fill="#488a00"/><path d="M12941.565-2615.827c-.059,0-.113,0-.166-.006a1.992,1.992,0,0,1-1.473-.849l-3.562-5.143a1.988,1.988,0,0,1,.5-2.768,1.99,1.99,0,0,1,2.77.5l2.18,3.15,14.959-15.455a1.989,1.989,0,0,1,2.813-.046,1.991,1.991,0,0,1,.047,2.813l-16.643,17.2A2,2,0,0,1,12941.565-2615.827Z" transform="translate(-12925.139 2651.156)" fill="#488a00"/></g><g transform="translate(397.971 547.878)"><path d="M24.742,2.487A22.262,22.262,0,0,0,16.08,45.25,22.262,22.262,0,0,0,33.4,4.235a22.114,22.114,0,0,0-8.662-1.748m0-2.487A24.742,24.742,0,1,1,0,24.742,24.742,24.742,0,0,1,24.742,0Z" transform="translate(0)" fill="#488a00"/><path d="M12941.565-2615.827c-.059,0-.113,0-.166-.006a1.992,1.992,0,0,1-1.473-.849l-3.562-5.143a1.988,1.988,0,0,1,.5-2.768,1.99,1.99,0,0,1,2.77.5l2.18,3.15,14.959-15.455a1.989,1.989,0,0,1,2.813-.046,1.991,1.991,0,0,1,.047,2.813l-16.643,17.2A2,2,0,0,1,12941.565-2615.827Z" transform="translate(-12925.139 2651.156)" fill="#488a00"/></g></g><text transform="translate(426.64 2085.52)" font-size="22" font-family="Roboto-Bold, Roboto" font-weight="700"><tspan x="-60.828" y="0">Salmon skin</tspan><tspan x="-25.255" y="28">Bites</tspan></text><text transform="translate(579.916 2085.52)" font-size="22" font-family="Roboto-Bold, Roboto" font-weight="700"><tspan x="-53.147" y="0">Traditional</tspan><tspan x="-28.843" y="28">treats</tspan></text><text transform="translate(178.268 2193.26)" fill="#fff" font-size="31" font-family="Roboto-Bold, Roboto" font-weight="700"><tspan x="-71.256" y="0">All natural</tspan></text><text transform="translate(178.961 2301.875)" fill="#fff" font-size="31" font-family="Roboto-Bold, Roboto" font-weight="700"><tspan x="-126.134" y="0">100% salmon skin</tspan></text><text transform="translate(175.772 2404.553)" fill="#fff" font-size="30" font-family="Roboto-Bold, Roboto" font-weight="700"><tspan x="-108.135" y="0">Rich in omega 3</tspan></text><text transform="translate(178 2510.877)" fill="#fff" font-size="31" font-family="Roboto-Bold, Roboto" font-weight="700"><tspan x="-102.37" y="0">High in protein</tspan></text><text transform="translate(178.354 2631.011)" fill="#fff" font-size="31" font-family="Roboto-Bold, Roboto" font-weight="700"><tspan x="-104.209" y="0">Intense flavour</tspan></text></g></g></svg>