<svg xmlns="http://www.w3.org/2000/svg" xmlns:xlink="http://www.w3.org/1999/xlink" width="700" height="700" viewBox="0 0 700 700"><defs><clipPath id="b"><rect width="700" height="700"/></clipPath></defs><g id="a" clip-path="url(#b)"><g transform="translate(3.438 -2048.446)"><g transform="translate(83.475 2574.316)" fill="#fff" stroke="#707070" stroke-width="1"><rect width="1.657" height="9.94" stroke="none"/><rect x="0.5" y="0.5" width="0.657" height="8.94" fill="none"/></g><g transform="translate(75.192 2574.316)" fill="#fff" stroke="#707070" stroke-width="1"><rect width="1.657" height="9.94" stroke="none"/><rect x="0.5" y="0.5" width="0.657" height="8.94" fill="none"/></g><g transform="translate(80.162 2574.316)" fill="#fff" stroke="#707070" stroke-width="1"><rect width="1.657" height="9.94" stroke="none"/><rect x="0.5" y="0.5" width="0.657" height="8.94" fill="none"/></g><line x2="596.403" transform="translate(56.816 2253.749)" fill="none" stroke="#fff" stroke-width="1"/><line x2="596.403" transform="translate(56.816 2358.12)" fill="none" stroke="#fff" stroke-width="1"/><line x2="596.403" transform="translate(56.816 2462.49)" fill="none" stroke="#fff" stroke-width="1"/><line x2="596.403" transform="translate(56.816 2566.861)" fill="none" stroke="#fff" stroke-width="1"/><g transform="translate(6.592 2074)"><g transform="translate(0 0)"><path d="M24.534,0H657.191a24.534,24.534,0,0,1,24.534,24.534V533.2a24.534,24.534,0,0,1-24.534,24.534H24.534A24.534,24.534,0,0,1,0,533.2V24.534A24.534,24.534,0,0,1,24.534,0Z" transform="translate(0 74.739)" fill="#d8c2ef"/><path d="M24.534.5A24.013,24.013,0,0,0,.5,24.534V533.2a24.013,24.013,0,0,0,24.033,24.033H657.191A24.013,24.013,0,0,0,681.224,533.2V24.534A24.013,24.013,0,0,0,657.191.5H24.534m0-.5H657.191a24.534,24.534,0,0,1,24.534,24.534V533.2a24.534,24.534,0,0,1-24.534,24.534H24.534A24.534,24.534,0,0,1,0,533.2V24.534A24.534,24.534,0,0,1,24.534,0Z" transform="translate(0 74.739)" fill="#707070"/><path d="M24.534,0h98.683A24.534,24.534,0,0,1,147.75,24.534V624.358a24.534,24.534,0,0,1-24.534,24.534H24.534A24.534,24.534,0,0,1,0,624.358V24.534A24.534,24.534,0,0,1,24.534,0Z" transform="translate(351.663 0)" fill="#fff"/><path d="M24.534.5A24.013,24.013,0,0,0,.5,24.534V624.358a24.013,24.013,0,0,0,24.033,24.033h98.683a24.013,24.013,0,0,0,24.033-24.033V24.534A24.013,24.013,0,0,0,123.216.5H24.534m0-.5h98.683A24.534,24.534,0,0,1,147.75,24.534V624.358a24.534,24.534,0,0,1-24.534,24.534H24.534A24.534,24.534,0,0,1,0,624.358V24.534A24.534,24.534,0,0,1,24.534,0Z" transform="translate(351.663 0)" fill="#707070"/><path d="M681.725,0H0V-1.5H681.725Z" transform="translate(0.216 187.165)" fill="#fff"/><path d="M681.725,0H0V-1.5H681.725Z" transform="translate(0.216 291.714)" fill="#fff"/><path d="M681.725,0H0V-1.5H681.725Z" transform="translate(0.216 396.262)" fill="#fff"/><path d="M681.725,0H0V-1.5H681.725Z" transform="translate(0.216 514.054)" fill="#fff"/><g transform="translate(559.613 106.858)"><path d="M24.908,2.5a22.411,22.411,0,0,0-8.72,43.049A22.411,22.411,0,0,0,33.628,4.263a22.262,22.262,0,0,0-8.72-1.76m0-2.5A24.908,24.908,0,1,1,0,24.908,24.908,24.908,0,0,1,24.908,0Z" fill="#fff"/><g transform="translate(12.337 12.337)"><path d="M0,21.606l-3.54-3.54,21.6-21.6L21.606,0Z" transform="translate(3.536 3.536)" fill="#fff"/><path d="M18.065,21.606-3.536,0,0-3.536l21.6,21.6Z" transform="translate(3.536 3.536)" fill="#fff"/></g></g><g transform="translate(559.613 211.407)"><path d="M24.908,2.5a22.411,22.411,0,0,0-8.72,43.049A22.411,22.411,0,0,0,33.628,4.263a22.262,22.262,0,0,0-8.72-1.76m0-2.5A24.908,24.908,0,1,1,0,24.908,24.908,24.908,0,0,1,24.908,0Z" transform="translate(0 0)" fill="#fff"/><g transform="translate(12.337 12.337)"><path d="M0,21.606l-3.54-3.54,21.6-21.6L21.606,0Z" transform="translate(3.536 3.536)" fill="#fff"/><path d="M18.065,21.606-3.536,0,0-3.536l21.6,21.6Z" transform="translate(3.536 3.536)" fill="#fff"/></g></g><g transform="translate(559.613 315.955)"><path d="M24.908,2.5a22.411,22.411,0,0,0-8.72,43.049A22.411,22.411,0,0,0,33.628,4.263a22.262,22.262,0,0,0-8.72-1.76m0-2.5A24.908,24.908,0,1,1,0,24.908,24.908,24.908,0,0,1,24.908,0Z" transform="translate(0 0)" fill="#fff"/><g transform="translate(12.337 12.337)"><path d="M0,21.606l-3.54-3.54,21.6-21.6L21.606,0Z" transform="translate(3.536 3.536)" fill="#fff"/><path d="M18.065,21.606-3.536,0,0-3.536l21.6,21.6Z" transform="translate(3.536 3.536)" fill="#fff"/></g></g><g transform="translate(559.613 433.747)"><path d="M24.908,2.5a22.411,22.411,0,0,0-8.72,43.049A22.411,22.411,0,0,0,33.628,4.263a22.262,22.262,0,0,0-8.72-1.76m0-2.5A24.908,24.908,0,1,1,0,24.908,24.908,24.908,0,0,1,24.908,0Z" fill="#fff"/><g transform="translate(12.337 12.337)"><path d="M0,21.606l-3.54-3.54,21.6-21.6L21.606,0Z" transform="translate(3.536 3.536)" fill="#fff"/><path d="M18.065,21.606-3.536,0,0-3.536l21.6,21.6Z" transform="translate(3.536 3.536)" fill="#fff"/></g></g><g transform="translate(559.613 551.539)"><path d="M24.908,2.5a22.411,22.411,0,0,0-8.72,43.049A22.411,22.411,0,0,0,33.628,4.263a22.262,22.262,0,0,0-8.72-1.76m0-2.5A24.908,24.908,0,1,1,0,24.908,24.908,24.908,0,0,1,24.908,0Z" transform="translate(0 0)" fill="#fff"/><g transform="translate(12.337 12.337)"><path d="M0,21.606l-3.54-3.54,21.6-21.6L21.606,0Z" transform="translate(3.536 3.536)" fill="#fff"/><path d="M18.065,21.606-3.536,0,0-3.536l21.6,21.6Z" transform="translate(3.536 3.536)" fill="#fff"/></g></g><g transform="translate(400.63 106.858)"><path d="M24.908,2.5a22.411,22.411,0,0,0-8.72,43.049A22.411,22.411,0,0,0,33.628,4.263a22.262,22.262,0,0,0-8.72-1.76m0-2.5A24.908,24.908,0,1,1,0,24.908,24.908,24.908,0,0,1,24.908,0Z" transform="translate(0)" fill="#d8c2ef"/><path d="M12941.6-2615.685c-.059,0-.113,0-.166-.007a2.007,2.007,0,0,1-1.484-.855l-3.584-5.177a2,2,0,0,1,.506-2.786,2,2,0,0,1,2.787.505l2.2,3.171,15.059-15.558a2,2,0,0,1,2.832-.046,2.005,2.005,0,0,1,.047,2.832l-16.754,17.312A2.009,2.009,0,0,1,12941.6-2615.685Z" transform="translate(-12925.066 2651.25)" fill="#d8c2ef"/></g><g transform="translate(400.63 211.407)"><path d="M24.908,2.5a22.411,22.411,0,0,0-8.72,43.049A22.411,22.411,0,0,0,33.628,4.263a22.262,22.262,0,0,0-8.72-1.76m0-2.5A24.908,24.908,0,1,1,0,24.908,24.908,24.908,0,0,1,24.908,0Z" transform="translate(0)" fill="#d8c2ef"/><path d="M12941.6-2615.685c-.059,0-.113,0-.166-.007a2.007,2.007,0,0,1-1.484-.855l-3.584-5.177a2,2,0,0,1,.506-2.786,2,2,0,0,1,2.787.505l2.2,3.171,15.059-15.558a2,2,0,0,1,2.832-.046,2.005,2.005,0,0,1,.047,2.832l-16.754,17.312A2.009,2.009,0,0,1,12941.6-2615.685Z" transform="translate(-12925.066 2651.25)" fill="#d8c2ef"/></g><g transform="translate(400.63 315.955)"><path d="M24.908,2.5a22.411,22.411,0,0,0-8.72,43.049A22.411,22.411,0,0,0,33.628,4.263a22.262,22.262,0,0,0-8.72-1.76m0-2.5A24.908,24.908,0,1,1,0,24.908,24.908,24.908,0,0,1,24.908,0Z" transform="translate(0)" fill="#d8c2ef"/><path d="M12941.6-2615.685c-.059,0-.113,0-.166-.007a2.007,2.007,0,0,1-1.484-.855l-3.584-5.177a2,2,0,0,1,.506-2.786,2,2,0,0,1,2.787.505l2.2,3.171,15.059-15.558a2,2,0,0,1,2.832-.046,2.005,2.005,0,0,1,.047,2.832l-16.754,17.312A2.009,2.009,0,0,1,12941.6-2615.685Z" transform="translate(-12925.066 2651.25)" fill="#d8c2ef"/></g><g transform="translate(400.63 433.747)"><path d="M24.908,2.5a22.411,22.411,0,0,0-8.72,43.049A22.411,22.411,0,0,0,33.628,4.263a22.262,22.262,0,0,0-8.72-1.76m0-2.5A24.908,24.908,0,1,1,0,24.908,24.908,24.908,0,0,1,24.908,0Z" transform="translate(0)" fill="#d8c2ef"/><path d="M12941.6-2615.685c-.059,0-.113,0-.166-.007a2.007,2.007,0,0,1-1.484-.855l-3.584-5.177a2,2,0,0,1,.506-2.786,2,2,0,0,1,2.787.505l2.2,3.171,15.059-15.558a2,2,0,0,1,2.832-.046,2.005,2.005,0,0,1,.047,2.832l-16.754,17.312A2.009,2.009,0,0,1,12941.6-2615.685Z" transform="translate(-12925.066 2651.25)" fill="#d8c2ef"/></g><g transform="translate(400.63 551.538)"><path d="M24.908,2.5a22.411,22.411,0,0,0-8.72,43.049A22.411,22.411,0,0,0,33.628,4.263a22.262,22.262,0,0,0-8.72-1.76m0-2.5A24.908,24.908,0,1,1,0,24.908,24.908,24.908,0,0,1,24.908,0Z" transform="translate(0)" fill="#d8c2ef"/><path d="M12941.6-2615.685c-.059,0-.113,0-.166-.007a2.007,2.007,0,0,1-1.484-.855l-3.584-5.177a2,2,0,0,1,.506-2.786,2,2,0,0,1,2.787.505l2.2,3.171,15.059-15.558a2,2,0,0,1,2.832-.046,2.005,2.005,0,0,1,.047,2.832l-16.754,17.312A2.009,2.009,0,0,1,12941.6-2615.685Z" transform="translate(-12925.066 2651.25)" fill="#d8c2ef"/></g></g></g><text transform="translate(430.271 2105.253)" font-size="19" font-family="Roboto-Bold, Roboto" font-weight="700"><tspan x="-29.947" y="0">Tallow </tspan><tspan x="-62.437" y="19">Shampoo Bars</tspan></text><text transform="translate(584.08 2105.253)" font-size="19" font-family="Roboto-Bold, Roboto" font-weight="700"><tspan x="-45.9" y="0">Traditional</tspan><tspan x="-40.565" y="19">Shampoo</tspan></text><text transform="translate(177.271 2213.654)" fill="#fff" font-size="29" font-family="Roboto-Bold, Roboto" font-weight="700"><tspan x="-113.232" y="0">Soothes irritation</tspan></text><text transform="translate(177.838 2322.994)" fill="#fff" font-size="29" font-family="Roboto-Bold, Roboto" font-weight="700"><tspan x="-97.054" y="0">Hydrates scalp</tspan></text><text transform="translate(178.001 2427.365)" fill="#fff" font-size="29" font-family="Roboto-Bold, Roboto" font-weight="700"><tspan x="-68.776" y="0">All Natural</tspan></text><text transform="translate(176.645 2531.735)" fill="#fff" font-size="29" font-family="Roboto-Bold, Roboto" font-weight="700"><tspan x="-119.094" y="0">Zero plastic waste</tspan></text><text transform="translate(177.405 2653.501)" fill="#fff" font-size="29" font-family="Roboto-Bold, Roboto" font-weight="700"><tspan x="-80.274" y="0">Long lasting</tspan></text></g></g></svg>